<svg xmlns="http://www.w3.org/2000/svg" viewBox="0 0 500 500"><g id="freepik--flowers-2--inject-3"><path d="M238.26,438.48a789,789,0,0,1,6-187q4-26.07,9.7-51.83c.21-.94-1.23-1.34-1.44-.4A790.08,790.08,0,0,0,234,385.82q.53,26.37,2.81,52.66c.08,1,1.58,1,1.5,0Z" style="fill:#263238"></path><path d="M298.24,205.36c-1.75-3.58-6.08-5-10-5.68a45.85,45.85,0,0,0-16.8-.24c-5.53,1.08-11.11,2.18-15,6.28a65.16,65.16,0,0,0-1.79,18.87c.14,2.57.47,5.28,2,7.35,2.18,2.95,6.23,3.85,9.9,3.7,11-.44,20.38-8.14,27.49-16.55a23.41,23.41,0,0,0,4.16-6.34A9.26,9.26,0,0,0,298.24,205.36Z" style="fill:#DB5E68"></path><g style="opacity:0.5"><path d="M298.24,205.36c-1.75-3.58-6.08-5-10-5.68a45.85,45.85,0,0,0-16.8-.24c-5.53,1.08-11.11,2.18-15,6.28a65.16,65.16,0,0,0-1.79,18.87c.14,2.57.47,5.28,2,7.35,2.18,2.95,6.23,3.85,9.9,3.7,11-.44,20.38-8.14,27.49-16.55a23.41,23.41,0,0,0,4.16-6.34A9.26,9.26,0,0,0,298.24,205.36Z" style="fill:#fff"></path></g><path d="M256.56,206.14l-9.2-11.56c-6.15-5.94-13.29-2.79-21.26-.73-6.13,1.59-12.2,5.53-15.28,11.07s-1.57,12.75,2.34,17.7,9.83,7.93,15.83,9.86c5.69,1.84,12.09,2.82,17.52.31,6.18-2.85,9.46-9,9.71-15.8S256.56,206.14,256.56,206.14Z" style="fill:#DB5E68"></path><g style="opacity:0.5"><path d="M256.56,206.14l-9.2-11.56c-6.15-5.94-13.29-2.79-21.26-.73-6.13,1.59-12.2,5.53-15.28,11.07s-1.57,12.75,2.34,17.7,9.83,7.93,15.83,9.86c5.69,1.84,12.09,2.82,17.52.31,6.18-2.85,9.46-9,9.71-15.8S256.56,206.14,256.56,206.14Z" style="fill:#fff"></path></g><path d="M232.45,166.49c-4.13-2.05-8.89-3.29-13.36-2.18-5.64,1.4-9.82,6.29-12.21,11.58-2.18,4.81-3.15,10.46-1.19,15.36,2,5.11,7.08,8.65,12.47,9.78s11.05.08,16.15-2,9.74-5.11,14.34-8.13l2.42-1.45A36.09,36.09,0,0,0,232.45,166.49Z" style="fill:#DB5E68"></path><g style="opacity:0.5"><path d="M232.45,166.49c-4.13-2.05-8.89-3.29-13.36-2.18-5.64,1.4-9.82,6.29-12.21,11.58-2.18,4.81-3.15,10.46-1.19,15.36,2,5.11,7.08,8.65,12.47,9.78s11.05.08,16.15-2,9.74-5.11,14.34-8.13l2.42-1.45A36.09,36.09,0,0,0,232.45,166.49Z" style="fill:#fff"></path></g><path d="M259.54,147.15a19,19,0,0,0-18.8,4.34,19.63,19.63,0,0,0-5.19,18.65c1.34,5.21,4.75,9.64,8.58,13.4,3.15,3.1,7.07,6,11.48,5.83l8.4-5.76c4.33-6.48,8.58-13.82,7.68-21.56A18.33,18.33,0,0,0,259.54,147.15Z" style="fill:#DB5E68"></path><g style="opacity:0.5"><path d="M259.54,147.15a19,19,0,0,0-18.8,4.34,19.63,19.63,0,0,0-5.19,18.65c1.34,5.21,4.75,9.64,8.58,13.4,3.15,3.1,7.07,6,11.48,5.83l8.4-5.76c4.33-6.48,8.58-13.82,7.68-21.56A18.33,18.33,0,0,0,259.54,147.15Z" style="fill:#fff"></path></g><path d="M296.71,163.07c-3.83-1.56-8.2-1.23-12.16-.07-12.19,3.58-23.1,15-23.85,27.69h0c.31,4.35-.26,9.59,3.85,11.05s12.78-.52,17.05-1.41c5.86-1.22,11.62-3.47,16.16-7.36s7.77-9.56,7.85-15.54S302.25,165.33,296.71,163.07Z" style="fill:#DB5E68"></path><g style="opacity:0.5"><path d="M296.71,163.07c-3.83-1.56-8.2-1.23-12.16-.07-12.19,3.58-23.1,15-23.85,27.69h0c.31,4.35-.26,9.59,3.85,11.05s12.78-.52,17.05-1.41c5.86-1.22,11.62-3.47,16.16-7.36s7.77-9.56,7.85-15.54S302.25,165.33,296.71,163.07Z" style="fill:#fff"></path></g><g style="opacity:0.30000000000000004"><path d="M279.33,196.72a20,20,0,0,0-6.68.71A50.07,50.07,0,0,0,262,201.36l2-.17a50.76,50.76,0,0,1,21-1.68A8.18,8.18,0,0,0,279.33,196.72Z"></path></g><g style="opacity:0.30000000000000004"><path d="M246.62,175.11a19.89,19.89,0,0,0-9.88-6.79,11.31,11.31,0,0,0-1.28-.3l-.35-.06A65.91,65.91,0,0,1,250.78,187,20,20,0,0,0,246.62,175.11Z"></path></g><g style="opacity:0.30000000000000004"><path d="M263.32,175.52a13.25,13.25,0,0,0-2.27,10.14l.19-.12c1.8-6.16,4.37-9.64,9.55-14.57C267.25,171.41,265.42,172.63,263.32,175.52Z"></path></g><path d="M265.81,200.67c2.15-3.79,2.24-9.26-.29-12.81A11.78,11.78,0,0,0,254,183.25c-4.29.81-8.33,6-9.4,10.18l10.44,16.19Z" style="fill:#263238"></path><path d="M248.68,196.15a28.91,28.91,0,0,0-8.5-3c-4.09-.79-7.18-.13-10.27.53-7,1.48-10.09,3.8-16.17,7.34a30.15,30.15,0,0,1,13.14-8.52C236.31,189.5,244.9,190.6,248.68,196.15Z" style="opacity:0.30000000000000004"></path><g style="opacity:0.30000000000000004"><path d="M256.41,205.35c1.52,7.47,1.18,13.61-1.79,20.25l.37,2.31c3.57-2.42,4.94-6.09,5.11-10.39A21.11,21.11,0,0,0,256.41,205.35Z"></path></g><path d="M260.71,201.73a17.4,17.4,0,0,1,6.72,11.84c.05.47.8.48.75,0a18.26,18.26,0,0,0-7.09-12.49c-.39-.29-.76.36-.38.65Z" style="fill:#263238"></path><path d="M266.59,193.43a18.25,18.25,0,0,1,6.29-7c.41-.27,0-.92-.38-.65a18.91,18.91,0,0,0-6.55,7.31c-.22.43.43.81.64.38Z" style="fill:#263238"></path><path d="M274.64,185.19a.38.38,0,0,0,0-.75.38.38,0,0,0,0,.75Z" style="fill:#263238"></path><path d="M265.42,190.51a13.5,13.5,0,0,1,3.07-7.38c.31-.36-.22-.9-.53-.53a14.39,14.39,0,0,0-3.29,7.91c-.05.48.7.47.75,0Z" style="fill:#263238"></path><path d="M257.1,186.25a44.28,44.28,0,0,1-1.43-10.43.38.38,0,0,0-.75,0,44.87,44.87,0,0,0,1.46,10.63.37.37,0,0,0,.72-.2Z" style="fill:#263238"></path><path d="M295.38,197.46a.25.25,0,0,1-.12-.47,23.75,23.75,0,0,0,11.38-14.42.25.25,0,1,1,.48.14,24.26,24.26,0,0,1-11.62,14.72A.27.27,0,0,1,295.38,197.46Z" style="fill:#DB5E68"></path><path d="M235.28,369.66a119.28,119.28,0,0,1,13-42.09,123.92,123.92,0,0,1,27-34.66,117,117,0,0,1,20.33-14.61.75.75,0,0,0-.76-1.3,121,121,0,0,0-34.15,29.05,125.43,125.43,0,0,0-21.48,39,118.73,118.73,0,0,0-5.45,24.64c-.11,1,1.39.95,1.5,0Z" style="fill:#263238"></path><path d="M342.79,274.72a14,14,0,0,0-7.38-5.42c-9-3.21-20.71-1.07-26.78,6.32h0c-1.74,2.79-4.4,5.73-2.54,8.43s8,5.34,11,6.69a27,27,0,0,0,13.1,2.67,16.15,16.15,0,0,0,11.66-6C344.56,283.8,345.16,278.55,342.79,274.72Z" style="fill:#DB5E68"></path><g style="opacity:0.30000000000000004"><path d="M317.31,287.54a15.15,15.15,0,0,0-4.38-2.53,38.57,38.57,0,0,0-8.21-2.31l1.3.79a38.19,38.19,0,0,1,13.52,8.26A6.13,6.13,0,0,0,317.31,287.54Z"></path></g><path d="M327.19,248.58a14.33,14.33,0,0,0-13.38-5.68A14.8,14.8,0,0,0,302.4,252c-1.49,3.76-1.37,8-.7,12,.55,3.27,1.65,6.78,4.42,8.62l7.66.21c5.51-2,11.34-4.62,14.22-9.74A13.82,13.82,0,0,0,327.19,248.58Z" style="fill:#DB5E68"></path><path d="M302.13,248.38c-1.61-3.08-4-5.94-7.18-7.24-4.05-1.64-8.76-.52-12.56,1.65-3.45,2-6.55,5-7.52,8.83-1,4,.49,8.41,3.27,11.48A21.24,21.24,0,0,0,288.86,269a62.87,62.87,0,0,0,12.33,1.39l2.12.19A27.13,27.13,0,0,0,302.13,248.38Z" style="fill:#DB5E68"></path><g style="opacity:0.30000000000000004"><path d="M307,259.9a15,15,0,0,0-3-8.51,9.19,9.19,0,0,0-.65-.75l-.18-.19A49.53,49.53,0,0,1,304.2,269,15,15,0,0,0,307,259.9Z"></path></g><g style="opacity:0.30000000000000004"><path d="M316.94,267.53a10,10,0,0,0-5.87,5.18h.17c3.82-3,6.92-3.94,12.26-4.65A7.18,7.18,0,0,0,316.94,267.53Z"></path></g><path d="M307.33,284a9.45,9.45,0,0,0,5.49-7.93,8.9,8.9,0,0,0-5-7.9c-3-1.4-7.71-.05-10.23,2.05l-.8,14.48Z" style="fill:#263238"></path><path d="M299.28,283.2l-.5-11.11c-1.12-6.34-6.86-7.58-12.62-9.85-4.44-1.75-9.89-2-14.21,0s-6.6,7.07-6.4,11.82,2.47,9.17,5.27,13c2.66,3.64,6.12,7.07,10.54,7.94,5,1,9.74-1.3,12.91-5.33S299.28,283.2,299.28,283.2Z" style="fill:#DB5E68"></path><path d="M325,301.17c.52-3-1.5-5.73-3.58-7.9a34.64,34.64,0,0,0-10.14-7.57c-3.84-1.79-7.73-3.59-11.9-2.81A49.14,49.14,0,0,0,290,293.6a10,10,0,0,0-2,5.37c0,2.76,2.09,5.1,4.39,6.63,6.9,4.6,16,4.06,24.07,2.08a18.07,18.07,0,0,0,5.34-2A7,7,0,0,0,325,301.17Z" style="fill:#DB5E68"></path><path d="M298.89,273.63a21.92,21.92,0,0,0-3.83-5.62,18.05,18.05,0,0,0-6.49-4.22c-4.9-2.17-7.83-2.14-13.1-2.68a22.78,22.78,0,0,1,11.77.62C294.3,264.1,299,268.58,298.89,273.63Z" style="opacity:0.30000000000000004"></path><g style="opacity:0.30000000000000004"><path d="M299.53,282.65c-2.38,5.23-5.3,8.81-10,11.55l-.8,1.57c3.24.1,5.7-1.53,7.71-4.07A15.93,15.93,0,0,0,299.53,282.65Z"></path></g><path d="M303.65,282.34a13,13,0,0,1-1.14,10.17c-.23.42.41.8.65.38a13.79,13.79,0,0,0,1.21-10.75.37.37,0,0,0-.72.2Z" style="fill:#263238"></path><path d="M311.09,280a13.74,13.74,0,0,1,6.89-1.48c.49,0,.49-.72,0-.75a14.43,14.43,0,0,0-7.27,1.58c-.43.22,0,.87.38.65Z" style="fill:#263238"></path><path d="M321.83,279.24a.38.38,0,0,0,0-.75.38.38,0,0,0,0,.75Z" style="fill:#263238"></path><path d="M311.62,277.69a10.2,10.2,0,0,1,5.15-3.14.38.38,0,0,0-.19-.73,10.89,10.89,0,0,0-5.49,3.34c-.31.37.21.9.53.53Z" style="fill:#263238"></path><path d="M308.5,271.32a32.88,32.88,0,0,1,3.74-7c.28-.39-.37-.77-.64-.38a33.6,33.6,0,0,0-3.82,7.14c-.18.45.55.65.72.2Z" style="fill:#263238"></path><path d="M235.82,395.09A90.94,90.94,0,0,1,255.72,352a89.89,89.89,0,0,1,9.4-9.62c.72-.65-.34-1.7-1.06-1.07a92.28,92.28,0,0,0-26.35,40,89,89,0,0,0-3.33,13.45c-.16.94,1.28,1.35,1.44.4Z" style="fill:#263238"></path><path d="M236.11,405.37c-6.6-25.18-15.32-49.74-22.85-74.64-2.08-6.87-4.07-13.77-5.89-20.71a.75.75,0,0,0-1.45.4c6.61,25.18,15.32,49.74,22.86,74.64,2.08,6.87,4.07,13.77,5.89,20.71a.75.75,0,0,0,1.44-.4Z" style="fill:#263238"></path><path d="M212.23,333.73c-2.53-2-3.93-3.57-6.89-6.33s-5.92-5.63-7.82-9.19-2.63-8-.93-11.67a12,12,0,0,1,6.8-6c2.19-.81,4.79-1,6.74.24,2.54,1.67,3,5.16,3.12,8.21a221.59,221.59,0,0,1-1,24.7" style="fill:#DB5E68"></path><path d="M214.93,318.3a14.78,14.78,0,0,0-3.67,6.57,21,21,0,0,0-4.79-6.81,40.84,40.84,0,0,0,2.12,9.25,12.36,12.36,0,0,0-8.32-3.19c1.82,2.4,4.45,4,6.87,5.84s4.78,4,5.66,6.86l1.87,1.47A58.6,58.6,0,0,1,214.93,318.3Z" style="fill:#263238"></path><path d="M259.66,347.19c2.61-.56,4.24-1.25,7.45-2.23a30.68,30.68,0,0,0,9.2-4c2.72-2,4.86-5,4.93-8.38a10,10,0,0,0-2.91-6.92,6.3,6.3,0,0,0-5.12-2.28c-2.52.33-4.14,2.76-5.32,5a183.23,183.23,0,0,0-8.23,18.84" style="fill:#DB5E68"></path><g style="opacity:0.5"><path d="M259.66,347.19c2.61-.56,4.24-1.25,7.45-2.23a30.68,30.68,0,0,0,9.2-4c2.72-2,4.86-5,4.93-8.38a10,10,0,0,0-2.91-6.92,6.3,6.3,0,0,0-5.12-2.28c-2.52.33-4.14,2.76-5.32,5a183.23,183.23,0,0,0-8.23,18.84" style="fill:#fff"></path></g><path d="M263.26,334.67a12.38,12.38,0,0,1,.35,6.25,17.26,17.26,0,0,1,6.06-3.35,34.42,34.42,0,0,1-4.95,6.14,10.27,10.27,0,0,1,7.37.64c-2.23,1.13-4.79,1.4-7.25,1.87s-5,1.23-6.73,3.07l-1.93.42A48.91,48.91,0,0,0,263.26,334.67Z" style="fill:#263238"></path></g></svg>
