<svg xmlns="http://www.w3.org/2000/svg" viewBox="0 0 500 500"><g id="freepik--flowers-6--inject-8"><path d="M355.77,244.19c.67-1.68,1.15-3.62.39-5.27a4.92,4.92,0,0,0-3.38-2.57,9.69,9.69,0,0,0-4.35.16,4.46,4.46,0,0,0-2.92,1.67c-.72,1.15-.41,2.64,0,3.95a56.29,56.29,0,0,0,4,9.91l1.72.11A33.11,33.11,0,0,0,355.77,244.19Z" style="fill:#98B1F6"></path><g style="opacity:0.30000000000000004"><path d="M355.77,244.19c.67-1.68,1.15-3.62.39-5.27a4.92,4.92,0,0,0-3.38-2.57,9.69,9.69,0,0,0-4.35.16,4.46,4.46,0,0,0-2.92,1.67c-.72,1.15-.41,2.64,0,3.95a56.29,56.29,0,0,0,4,9.91l1.72.11A33.11,33.11,0,0,0,355.77,244.19Z"></path></g><path d="M362.74,257.48c1.81.17,3.8.07,5.17-1.12a4.92,4.92,0,0,0,1.5-4,9.64,9.64,0,0,0-1.38-4.13,4.48,4.48,0,0,0-2.43-2.32c-1.31-.37-2.65.36-3.79,1.09a54.82,54.82,0,0,0-8.37,6.65l.38,1.67A32.91,32.91,0,0,0,362.74,257.48Z" style="fill:#98B1F6"></path><g style="opacity:0.30000000000000004"><path d="M362.74,257.48c1.81.17,3.8.07,5.17-1.12a4.92,4.92,0,0,0,1.5-4,9.64,9.64,0,0,0-1.38-4.13,4.48,4.48,0,0,0-2.43-2.32c-1.31-.37-2.65.36-3.79,1.09a54.82,54.82,0,0,0-8.37,6.65l.38,1.67A32.91,32.91,0,0,0,362.74,257.48Z"></path></g><path d="M353.69,266.81c.42,1.76,1.13,3.62,2.69,4.54a4.94,4.94,0,0,0,4.25.18,9.59,9.59,0,0,0,3.48-2.62,4.52,4.52,0,0,0,1.44-3c-.07-1.36-1.18-2.4-2.24-3.25a55.47,55.47,0,0,0-8.95-5.84l-1.47.89A32.72,32.72,0,0,0,353.69,266.81Z" style="fill:#98B1F6"></path><g style="opacity:0.30000000000000004"><path d="M353.69,266.81c.42,1.76,1.13,3.62,2.69,4.54a4.94,4.94,0,0,0,4.25.18,9.59,9.59,0,0,0,3.48-2.62,4.52,4.52,0,0,0,1.44-3c-.07-1.36-1.18-2.4-2.24-3.25a55.47,55.47,0,0,0-8.95-5.84l-1.47.89A32.72,32.72,0,0,0,353.69,266.81Z"></path></g><path d="M341.56,259.93c-1.65.75-3.33,1.82-3.93,3.53a4.9,4.9,0,0,0,.66,4.19,9.44,9.44,0,0,0,3.24,2.91,4.48,4.48,0,0,0,3.26.82c1.32-.33,2.13-1.62,2.76-2.83a56,56,0,0,0,4-9.92l-1.17-1.26A33.21,33.21,0,0,0,341.56,259.93Z" style="fill:#98B1F6"></path><g style="opacity:0.30000000000000004"><path d="M341.56,259.93c-1.65.75-3.33,1.82-3.93,3.53a4.9,4.9,0,0,0,.66,4.19,9.44,9.44,0,0,0,3.24,2.91,4.48,4.48,0,0,0,3.26.82c1.32-.33,2.13-1.62,2.76-2.83a56,56,0,0,0,4-9.92l-1.17-1.26A33.21,33.21,0,0,0,341.56,259.93Z"></path></g><path d="M341.36,247.54c-1.56-.93-3.39-1.71-5.14-1.24a4.94,4.94,0,0,0-3.08,2.93,9.58,9.58,0,0,0-.55,4.32,4.51,4.51,0,0,0,1.18,3.15c1,.9,2.54.83,3.89.66A55.62,55.62,0,0,0,348.09,255l.38-1.67A32.83,32.83,0,0,0,341.36,247.54Z" style="fill:#98B1F6"></path><g style="opacity:0.30000000000000004"><path d="M341.36,247.54c-1.56-.93-3.39-1.71-5.14-1.24a4.94,4.94,0,0,0-3.08,2.93,9.58,9.58,0,0,0-.55,4.32,4.51,4.51,0,0,0,1.18,3.15c1,.9,2.54.83,3.89.66A55.62,55.62,0,0,0,348.09,255l.38-1.67A32.83,32.83,0,0,0,341.36,247.54Z"></path></g><path d="M347.65,242.31c-1-1.81-2.46-3.62-4.49-4.12a5.67,5.67,0,0,0-4.74,1.23,11.1,11.1,0,0,0-3,4.05,5.2,5.2,0,0,0-.57,3.83c.53,1.48,2.1,2.26,3.56,2.84a63.83,63.83,0,0,0,11.82,3.46l1.32-1.47A38.08,38.08,0,0,0,347.65,242.31Z" style="fill:#98B1F6"></path><path d="M360.56,263.43c1.72,1.17,3.78,2.2,5.82,1.76a5.65,5.65,0,0,0,3.74-3.16,11.1,11.1,0,0,0,.92-4.94,5.23,5.23,0,0,0-1.15-3.7c-1.11-1.1-2.87-1.12-4.43-1a64.18,64.18,0,0,0-12.16,2l-.55,1.9A38.14,38.14,0,0,0,360.56,263.43Z" style="fill:#98B1F6"></path><path d="M345.14,265c-.87,1.89-1.54,4.09-.77,6a5.64,5.64,0,0,0,3.74,3.15,11,11,0,0,0,5,.09,5.21,5.21,0,0,0,3.46-1.75c.9-1.28.63-3,.26-4.54a63.9,63.9,0,0,0-4-11.65l-2-.23A38,38,0,0,0,345.14,265Z" style="fill:#98B1F6"></path><path d="M339.29,253.21c-2.09,0-4.36.38-5.78,1.92a5.64,5.64,0,0,0-1.24,4.73,11,11,0,0,0,2.09,4.57,5.17,5.17,0,0,0,3.07,2.36c1.54.26,3-.73,4.21-1.72a63.93,63.93,0,0,0,8.78-8.63l-.64-1.88A38.28,38.28,0,0,0,339.29,253.21Z" style="fill:#98B1F6"></path><path d="M361.68,250.78c1.87-.94,3.76-2.24,4.38-4.24a5.64,5.64,0,0,0-.94-4.8,11,11,0,0,0-3.87-3.21,5.17,5.17,0,0,0-3.79-.8c-1.5.44-2.38,2-3,3.38a64.63,64.63,0,0,0-4.17,11.59l1.4,1.41A38.28,38.28,0,0,0,361.68,250.78Z" style="fill:#98B1F6"></path><path d="M357,246.36a14.51,14.51,0,0,1-3.11,4.49,7.68,7.68,0,0,1,1.34-2.4A7.31,7.31,0,0,1,357,246.36Z" style="fill:#263238"></path><path d="M360.6,257.82a12,12,0,0,1-2.93-.71,12.18,12.18,0,0,1-2.86-.94,11.55,11.55,0,0,1,5.79,1.65Z" style="fill:#263238"></path><path d="M351.29,263.65a50.28,50.28,0,0,1,.16-6,6.72,6.72,0,0,1,.35,3A6.8,6.8,0,0,1,351.29,263.65Z" style="fill:#263238"></path><path d="M349.12,256a16.95,16.95,0,0,1-5.74,1.28,8.67,8.67,0,0,1,2.81-.9A8.57,8.57,0,0,1,349.12,256Z" style="fill:#263238"></path><path d="M345.8,248.82a5.36,5.36,0,0,1,3.71,3.62c-.13.07-.73-.93-1.75-1.91S345.74,249,345.8,248.82Z" style="fill:#263238"></path><path d="M345,247.6c-.09.12-.32.09-.55,0s-.41-.25-.39-.39.3-.21.59-.08S345,247.49,345,247.6Z" style="fill:#263238"></path><path d="M355.73,255.18a4.24,4.24,0,1,1-3-5.17A4.24,4.24,0,0,1,355.73,255.18Z" style="fill:#fff"></path><path d="M357.28,275.22c6.06.09,12.29.24,17.37,3.75s8.19,11.43,6.84,20.42c-5.48-1-10-3.79-14.88-6.68a23.21,23.21,0,0,1-10.76-15.28,2.38,2.38,0,0,1,0-1.4A1.36,1.36,0,0,1,357.28,275.22Z" style="fill:#455a64"></path><path d="M365.15,282.29a3.62,3.62,0,0,1,.92.25,8.62,8.62,0,0,1,1.05.4,12.46,12.46,0,0,1,1.34.61,26.39,26.39,0,0,1,6.94,5,30.84,30.84,0,0,1,5.18,6.8,23.43,23.43,0,0,1,1.16,2.32,2.87,2.87,0,0,1,.32.9c-.08,0-.66-1.18-1.8-3a35.4,35.4,0,0,0-5.23-6.62,30.29,30.29,0,0,0-6.74-5C366.39,282.84,365.12,282.38,365.15,282.29Z" style="fill:#263238"></path><path d="M339.36,459.09s0-.19.08-.54.16-.91.29-1.59c.26-1.39.64-3.44,1.23-6.06,1.13-5.25,3-12.81,5.41-22.1s5.46-20.32,8.91-32.54,7.24-25.66,11.21-39.76c2-7.06,3.72-14,5.43-20.7s3.37-13.15,4.94-19.3c3.16-12.3,6-23.37,8.4-32.68l5.7-22c.68-2.58,1.21-4.59,1.58-6l.42-1.55c.1-.35.16-.53.16-.53s0,.19-.11.54l-.37,1.56c-.34,1.4-.84,3.42-1.48,6-1.32,5.23-3.21,12.76-5.55,22.06s-5.16,20.4-8.28,32.71c-1.57,6.15-3.21,12.61-4.92,19.31S369,349.57,367,356.63c-3.92,14.13-7.8,27.54-11.26,39.76s-6.54,23.23-9,32.5-4.37,16.82-5.56,22.06c-.62,2.61-1,4.65-1.33,6l-.34,1.58C339.41,458.91,339.36,459.09,339.36,459.09Z" style="fill:#263238"></path><path d="M426.76,273.65c-6.85-3.29-13.92-6.62-21.57-6.43s-15.53,5.23-19,13.66c6.67,2.23,13.31,2.31,20.39,2.54a28.76,28.76,0,0,0,20.55-7.09,2,2,0,0,0,.77-1.19C428,274.38,427.33,273.92,426.76,273.65Z" style="fill:#455a64"></path><path d="M414,275.33c0,.09-1.61-.2-4.21-.38a44.59,44.59,0,0,0-19.9,3.22c-2.41,1-3.83,1.76-3.88,1.68a5.5,5.5,0,0,1,1-.62,30.3,30.3,0,0,1,2.78-1.4,39.78,39.78,0,0,1,20.07-3.25,29.66,29.66,0,0,1,3.08.46A4.17,4.17,0,0,1,414,275.33Z" style="fill:#263238"></path><path d="M426,343.85C421.16,338,416.14,332,409.12,329s-16.3-1.75-23,4.45c5.13,4.82,11.13,7.67,17.46,10.85a28.8,28.8,0,0,0,21.62,2.17,2.08,2.08,0,0,0,1.21-.76A1.62,1.62,0,0,0,426,343.85Z" style="fill:#455a64"></path><path d="M413.72,340c-.05.08-1.38-.85-3.67-2.1a44.47,44.47,0,0,0-19.42-5.41c-2.6-.12-4.22,0-4.22-.1a4.51,4.51,0,0,1,1.13-.16,28.48,28.48,0,0,1,3.1-.11,39.86,39.86,0,0,1,19.59,5.46,28.76,28.76,0,0,1,2.61,1.7A4.81,4.81,0,0,1,413.72,340Z" style="fill:#263238"></path><path d="M364.86,364.24a6.6,6.6,0,0,1-.16-1.36c-.06-.88-.18-2.14-.36-3.7a78.71,78.71,0,0,0-2.33-12,80.23,80.23,0,0,0-4.23-11.49c-.66-1.42-1.21-2.57-1.62-3.35a7.06,7.06,0,0,1-.56-1.25,8.33,8.33,0,0,1,.74,1.15c.46.76,1.07,1.88,1.77,3.29a66.71,66.71,0,0,1,4.4,11.51,67.44,67.44,0,0,1,2.2,12.12c.13,1.57.19,2.85.19,3.73A6.39,6.39,0,0,1,364.86,364.24Z" style="fill:#263238"></path><path d="M427.13,299.18s-.05.06-.18.15l-.55.4-2.17,1.46c-.94.63-2.1,1.4-3.4,2.35s-2.83,2-4.44,3.19-3.41,2.54-5.27,4-3.82,3.11-5.88,4.83c-4.05,3.5-8.39,7.5-12.73,11.91s-8.21,8.85-11.63,13c-1.67,2.09-3.29,4.06-4.7,6s-2.75,3.7-3.92,5.35-2.2,3.18-3.1,4.51-1.67,2.5-2.27,3.46L365.47,362l-.38.56a.86.86,0,0,1-.15.19,1.25,1.25,0,0,1,.1-.21l.34-.6c.33-.55.77-1.3,1.34-2.24s1.3-2.17,2.19-3.51,1.86-2.91,3-4.56,2.43-3.5,3.87-5.4,3-3.92,4.68-6c3.4-4.16,7.3-8.6,11.63-13.05s8.71-8.41,12.79-11.91c2.07-1.71,4-3.36,5.93-4.8s3.66-2.8,5.31-4,3.16-2.23,4.49-3.14,2.5-1.68,3.46-2.28l2.22-1.38.58-.35Z" style="fill:#263238"></path><path d="M440.47,277.85c1-2.53,1.72-5.45.58-7.94A7.42,7.42,0,0,0,436,266a14.33,14.33,0,0,0-6.57.24c-1.68.39-3.47,1-4.39,2.51-1.09,1.74-.62,4,0,5.95a83.69,83.69,0,0,0,6,14.94l2.58.16A49.78,49.78,0,0,0,440.47,277.85Z" style="fill:#98B1F6"></path><g style="opacity:0.30000000000000004"><path d="M440.47,277.85c1-2.53,1.72-5.45.58-7.94A7.42,7.42,0,0,0,436,266a14.33,14.33,0,0,0-6.57.24c-1.68.39-3.47,1-4.39,2.51-1.09,1.74-.62,4,0,5.95a83.69,83.69,0,0,0,6,14.94l2.58.16A49.78,49.78,0,0,0,440.47,277.85Z"></path></g><path d="M451,297.89c2.72.24,5.72.1,7.78-1.69a7.4,7.4,0,0,0,2.27-6,14.4,14.4,0,0,0-2.08-6.22c-.86-1.51-2-3-3.66-3.5-2-.56-4,.53-5.72,1.65a84.48,84.48,0,0,0-12.62,10l.58,2.52A49.66,49.66,0,0,0,451,297.89Z" style="fill:#98B1F6"></path><g style="opacity:0.30000000000000004"><path d="M451,297.89c2.72.24,5.72.1,7.78-1.69a7.4,7.4,0,0,0,2.27-6,14.4,14.4,0,0,0-2.08-6.22c-.86-1.51-2-3-3.66-3.5-2-.56-4,.53-5.72,1.65a84.48,84.48,0,0,0-12.62,10l.58,2.52A49.66,49.66,0,0,0,451,297.89Z"></path></g><path d="M437.33,311.94c.62,2.66,1.71,5.46,4.06,6.85a7.41,7.41,0,0,0,6.39.26A14.41,14.41,0,0,0,453,315.1c1.16-1.29,2.25-2.85,2.17-4.58-.1-2-1.78-3.62-3.38-4.9a83.33,83.33,0,0,0-13.49-8.8l-2.21,1.34A49.54,49.54,0,0,0,437.33,311.94Z" style="fill:#98B1F6"></path><g style="opacity:0.30000000000000004"><path d="M437.33,311.94c.62,2.66,1.71,5.46,4.06,6.85a7.41,7.41,0,0,0,6.39.26A14.41,14.41,0,0,0,453,315.1c1.16-1.29,2.25-2.85,2.17-4.58-.1-2-1.78-3.62-3.38-4.9a83.33,83.33,0,0,0-13.49-8.8l-2.21,1.34A49.54,49.54,0,0,0,437.33,311.94Z"></path></g><path d="M419.05,301.58c-2.48,1.13-5,2.73-5.93,5.31a7.39,7.39,0,0,0,1,6.32,14.31,14.31,0,0,0,4.89,4.38c1.49.89,3.23,1.66,4.91,1.24,2-.5,3.21-2.45,4.15-4.27a83.62,83.62,0,0,0,6-14.94l-1.75-1.91A50,50,0,0,0,419.05,301.58Z" style="fill:#98B1F6"></path><g style="opacity:0.30000000000000004"><path d="M419.05,301.58c-2.48,1.13-5,2.73-5.93,5.31a7.39,7.39,0,0,0,1,6.32,14.31,14.31,0,0,0,4.89,4.38c1.49.89,3.23,1.66,4.91,1.24,2-.5,3.21-2.45,4.15-4.27a83.62,83.62,0,0,0,6-14.94l-1.75-1.91A50,50,0,0,0,419.05,301.58Z"></path></g><path d="M418.74,282.9c-2.34-1.4-5.11-2.58-7.74-1.86a7.41,7.41,0,0,0-4.64,4.4,14.42,14.42,0,0,0-.83,6.52c.12,1.73.48,3.6,1.78,4.74,1.53,1.36,3.83,1.25,5.86,1a83.75,83.75,0,0,0,15.72-3.54l.57-2.53A49.86,49.86,0,0,0,418.74,282.9Z" style="fill:#98B1F6"></path><g style="opacity:0.30000000000000004"><path d="M418.74,282.9c-2.34-1.4-5.11-2.58-7.74-1.86a7.41,7.41,0,0,0-4.64,4.4,14.42,14.42,0,0,0-.83,6.52c.12,1.73.48,3.6,1.78,4.74,1.53,1.36,3.83,1.25,5.86,1a83.75,83.75,0,0,0,15.72-3.54l.57-2.53A49.86,49.86,0,0,0,418.74,282.9Z"></path></g><path d="M428.22,275c-1.57-2.73-3.7-5.46-6.76-6.2a8.51,8.51,0,0,0-7.14,1.84,16.5,16.5,0,0,0-4.47,6.11c-.85,1.81-1.53,3.89-.87,5.77.8,2.22,3.17,3.4,5.36,4.28A96.81,96.81,0,0,0,432.16,292l2-2.22A57,57,0,0,0,428.22,275Z" style="fill:#98B1F6"></path><path d="M447.67,306.85c2.61,1.77,5.71,3.31,8.79,2.65a8.53,8.53,0,0,0,5.63-4.76,16.58,16.58,0,0,0,1.38-7.44c0-2-.31-4.17-1.73-5.58-1.68-1.66-4.33-1.69-6.68-1.53a96.17,96.17,0,0,0-18.31,3l-.84,2.86A57.56,57.56,0,0,0,447.67,306.85Z" style="fill:#98B1F6"></path><path d="M424.44,309.27c-1.31,2.86-2.31,6.17-1.15,9.1a8.53,8.53,0,0,0,5.63,4.76,16.67,16.67,0,0,0,7.57.12c2-.35,4.06-1,5.21-2.63,1.35-1.93.94-4.55.39-6.85a96.54,96.54,0,0,0-6-17.55l-3-.34A57.26,57.26,0,0,0,424.44,309.27Z" style="fill:#98B1F6"></path><path d="M415.62,291.45c-3.14.05-6.57.58-8.71,2.88a8.54,8.54,0,0,0-1.86,7.14,16.47,16.47,0,0,0,3.15,6.88c1.16,1.62,2.65,3.23,4.62,3.56,2.32.4,4.51-1.1,6.34-2.59a96.33,96.33,0,0,0,13.24-13l-1-2.83A57.27,57.27,0,0,0,415.62,291.45Z" style="fill:#98B1F6"></path><path d="M449.37,287.78c2.81-1.41,5.67-3.38,6.6-6.38a8.53,8.53,0,0,0-1.42-7.24,16.48,16.48,0,0,0-5.83-4.83c-1.75-1-3.79-1.76-5.7-1.21-2.27.66-3.59,3-4.6,5.09a97.06,97.06,0,0,0-6.27,17.47l2.1,2.13A57.59,57.59,0,0,0,449.37,287.78Z" style="fill:#98B1F6"></path><path d="M442.32,281.12a16.69,16.69,0,0,1-2.12,3.53,15.89,15.89,0,0,1-2.55,3.23,16.42,16.42,0,0,1,2.12-3.53A16.63,16.63,0,0,1,442.32,281.12Z" style="fill:#263238"></path><path d="M447.74,298.4a34.33,34.33,0,0,1-4.38-1.21,33.31,33.31,0,0,1-4.35-1.28,14.66,14.66,0,0,1,4.5.78A14.14,14.14,0,0,1,447.74,298.4Z" style="fill:#263238"></path><path d="M433.72,307.17a38,38,0,0,1,.11-4.53,37.84,37.84,0,0,1,.13-4.54,13.6,13.6,0,0,1,.39,4.55A13.77,13.77,0,0,1,433.72,307.17Z" style="fill:#263238"></path><path d="M430.44,295.58a37.1,37.1,0,0,1-8.65,1.94,38.5,38.5,0,0,1,8.65-1.94Z" style="fill:#263238"></path><path d="M425.44,284.83a7.09,7.09,0,0,1,3.41,2.1,7.28,7.28,0,0,1,2.19,3.36c-.14.07-1-1.49-2.56-3S425.37,285,425.44,284.83Z" style="fill:#263238"></path><path d="M424.17,283c-.09.12-.42,0-.78-.13s-.66-.33-.63-.47.41-.19.84,0S424.26,282.88,424.17,283Z" style="fill:#263238"></path><path d="M440.41,294.42a6.39,6.39,0,1,1-4.57-7.8A6.39,6.39,0,0,1,440.41,294.42Z" style="fill:#fff"></path><path d="M349,295.46c.95-2.4,1.63-5.16.56-7.51a7,7,0,0,0-4.82-3.66,13.6,13.6,0,0,0-6.21.23c-1.59.37-3.28,1-4.15,2.37-1,1.64-.58,3.77,0,5.63a79.16,79.16,0,0,0,5.7,14.12l2.44.15A46.94,46.94,0,0,0,349,295.46Z" style="fill:#98B1F6"></path><g style="opacity:0.30000000000000004"><path d="M349,295.46c.95-2.4,1.63-5.16.56-7.51a7,7,0,0,0-4.82-3.66,13.6,13.6,0,0,0-6.21.23c-1.59.37-3.28,1-4.15,2.37-1,1.64-.58,3.77,0,5.63a79.16,79.16,0,0,0,5.7,14.12l2.44.15A46.94,46.94,0,0,0,349,295.46Z"></path></g><path d="M358.93,314.4c2.57.23,5.41.1,7.36-1.6a7,7,0,0,0,2.14-5.66,13.56,13.56,0,0,0-2-5.88c-.81-1.43-1.88-2.87-3.46-3.31-1.86-.53-3.78.51-5.4,1.56A78.85,78.85,0,0,0,345.67,309l.54,2.39A47.44,47.44,0,0,0,358.93,314.4Z" style="fill:#98B1F6"></path><g style="opacity:0.30000000000000004"><path d="M358.93,314.4c2.57.23,5.41.1,7.36-1.6a7,7,0,0,0,2.14-5.66,13.56,13.56,0,0,0-2-5.88c-.81-1.43-1.88-2.87-3.46-3.31-1.86-.53-3.78.51-5.4,1.56A78.85,78.85,0,0,0,345.67,309l.54,2.39A47.44,47.44,0,0,0,358.93,314.4Z"></path></g><path d="M346,327.68c.59,2.51,1.62,5.16,3.84,6.47a7,7,0,0,0,6.05.25,13.72,13.72,0,0,0,5-3.73c1.09-1.22,2.12-2.69,2-4.33-.09-1.93-1.67-3.42-3.18-4.63A78.3,78.3,0,0,0,347,313.39l-2.09,1.27A47.55,47.55,0,0,0,346,327.68Z" style="fill:#98B1F6"></path><g style="opacity:0.30000000000000004"><path d="M346,327.68c.59,2.51,1.62,5.16,3.84,6.47a7,7,0,0,0,6.05.25,13.72,13.72,0,0,0,5-3.73c1.09-1.22,2.12-2.69,2-4.33-.09-1.93-1.67-3.42-3.18-4.63A78.3,78.3,0,0,0,347,313.39l-2.09,1.27A47.55,47.55,0,0,0,346,327.68Z"></path></g><path d="M328.76,317.88c-2.35,1.07-4.75,2.59-5.61,5a7,7,0,0,0,.94,6,13.46,13.46,0,0,0,4.63,4.14c1.4.84,3,1.57,4.64,1.17,1.88-.47,3-2.31,3.92-4A78.88,78.88,0,0,0,343,316l-1.65-1.8A47.18,47.18,0,0,0,328.76,317.88Z" style="fill:#98B1F6"></path><g style="opacity:0.30000000000000004"><path d="M328.76,317.88c-2.35,1.07-4.75,2.59-5.61,5a7,7,0,0,0,.94,6,13.46,13.46,0,0,0,4.63,4.14c1.4.84,3,1.57,4.64,1.17,1.88-.47,3-2.31,3.92-4A78.88,78.88,0,0,0,343,316l-1.65-1.8A47.18,47.18,0,0,0,328.76,317.88Z"></path></g><path d="M328.46,300.23c-2.21-1.33-4.83-2.44-7.31-1.76a7,7,0,0,0-4.39,4.16,13.69,13.69,0,0,0-.78,6.16c.11,1.64.44,3.4,1.67,4.49,1.45,1.28,3.63,1.18,5.55.94a79.58,79.58,0,0,0,14.85-3.35l.55-2.38A46.67,46.67,0,0,0,328.46,300.23Z" style="fill:#98B1F6"></path><g style="opacity:0.30000000000000004"><path d="M328.46,300.23c-2.21-1.33-4.83-2.44-7.31-1.76a7,7,0,0,0-4.39,4.16,13.69,13.69,0,0,0-.78,6.16c.11,1.64.44,3.4,1.67,4.49,1.45,1.28,3.63,1.18,5.55.94a79.58,79.58,0,0,0,14.85-3.35l.55-2.38A46.67,46.67,0,0,0,328.46,300.23Z"></path></g><path d="M337.43,292.78c-1.49-2.58-3.51-5.16-6.4-5.86a8.09,8.09,0,0,0-6.75,1.74,15.89,15.89,0,0,0-4.23,5.77c-.8,1.71-1.44,3.68-.81,5.46.75,2.1,3,3.22,5.06,4a90.66,90.66,0,0,0,16.85,4.93l1.88-2.1A54.19,54.19,0,0,0,337.43,292.78Z" style="fill:#98B1F6"></path><path d="M355.81,322.87c2.46,1.67,5.4,3.12,8.31,2.5a8,8,0,0,0,5.32-4.5,15.76,15.76,0,0,0,1.31-7c0-1.89-.3-3.94-1.64-5.27-1.58-1.57-4.09-1.6-6.32-1.45A91.47,91.47,0,0,0,345.48,310l-.78,2.71A54.25,54.25,0,0,0,355.81,322.87Z" style="fill:#98B1F6"></path><path d="M333.85,325.15c-1.24,2.71-2.19,5.84-1.09,8.61a8.12,8.12,0,0,0,5.33,4.5,15.69,15.69,0,0,0,7.15.11c1.86-.33,3.84-.94,4.92-2.48,1.28-1.83.9-4.31.38-6.48a91.87,91.87,0,0,0-5.71-16.59L342,312.5A54.35,54.35,0,0,0,333.85,325.15Z" style="fill:#98B1F6"></path><path d="M325.52,308.31c-3,.05-6.22.54-8.24,2.73a8.07,8.07,0,0,0-1.76,6.74,15.58,15.58,0,0,0,3,6.51c1.1,1.53,2.5,3,4.36,3.37,2.2.37,4.27-1.05,6-2.45a91,91,0,0,0,12.51-12.31l-.91-2.67A54.56,54.56,0,0,0,325.52,308.31Z" style="fill:#98B1F6"></path><path d="M357.42,304.84c2.66-1.33,5.36-3.19,6.23-6a8.05,8.05,0,0,0-1.34-6.84,15.55,15.55,0,0,0-5.5-4.57c-1.66-.9-3.59-1.67-5.4-1.14-2.14.62-3.39,2.79-4.34,4.81a91.41,91.41,0,0,0-5.93,16.52l2,2A54,54,0,0,0,357.42,304.84Z" style="fill:#98B1F6"></path><path d="M350.76,298.54a14.91,14.91,0,0,1-2,3.35,14.69,14.69,0,0,1-2.42,3.05,15.08,15.08,0,0,1,2-3.35A14.83,14.83,0,0,1,350.76,298.54Z" style="fill:#263238"></path><path d="M355.87,314.88a28.49,28.49,0,0,1-4.13-1.13,29.13,29.13,0,0,1-4.11-1.22,13,13,0,0,1,4.25.72A12.86,12.86,0,0,1,355.87,314.88Z" style="fill:#263238"></path><path d="M342.62,323.17a31.79,31.79,0,0,1,.09-4.29,32.57,32.57,0,0,1,.14-4.28,18.8,18.8,0,0,1-.23,8.57Z" style="fill:#263238"></path><path d="M339.52,312.22a17.3,17.3,0,0,1-4,1.17,16.74,16.74,0,0,1-4.14.66,17.3,17.3,0,0,1,4-1.17A16.8,16.8,0,0,1,339.52,312.22Z" style="fill:#263238"></path><path d="M334.8,302.05a6.61,6.61,0,0,1,3.23,2,6.78,6.78,0,0,1,2.06,3.18c-.14.08-1-1.39-2.43-2.81S334.73,302.19,334.8,302.05Z" style="fill:#263238"></path><path d="M333.6,300.32c-.09.12-.4,0-.75-.11s-.62-.32-.59-.46.4-.2.8,0S333.68,300.21,333.6,300.32Z" style="fill:#263238"></path><path d="M348.94,311.11a6,6,0,1,1-4.31-7.36A6,6,0,0,1,348.94,311.11Z" style="fill:#fff"></path><path d="M410.45,204.82c1.2-3,2.05-6.5.7-9.46a8.85,8.85,0,0,0-6.08-4.62,17.24,17.24,0,0,0-7.82.28c-2,.47-4.14,1.25-5.24,3-1.3,2.07-.73,4.75,0,7.09a99.47,99.47,0,0,0,7.18,17.81l3.08.19A59.19,59.19,0,0,0,410.45,204.82Z" style="fill:#98B1F6"></path><g style="opacity:0.30000000000000004"><path d="M410.45,204.82c1.2-3,2.05-6.5.7-9.46a8.85,8.85,0,0,0-6.08-4.62,17.24,17.24,0,0,0-7.82.28c-2,.47-4.14,1.25-5.24,3-1.3,2.07-.73,4.75,0,7.09a99.47,99.47,0,0,0,7.18,17.81l3.08.19A59.19,59.19,0,0,0,410.45,204.82Z"></path></g><path d="M423,228.7c3.24.29,6.82.13,9.27-2a8.85,8.85,0,0,0,2.71-7.14,17.31,17.31,0,0,0-2.49-7.42c-1-1.79-2.37-3.61-4.36-4.17-2.35-.66-4.76.64-6.81,2a99.42,99.42,0,0,0-15,11.93l.69,3A59.46,59.46,0,0,0,423,228.7Z" style="fill:#98B1F6"></path><g style="opacity:0.30000000000000004"><path d="M423,228.7c3.24.29,6.82.13,9.27-2a8.85,8.85,0,0,0,2.71-7.14,17.31,17.31,0,0,0-2.49-7.42c-1-1.79-2.37-3.61-4.36-4.17-2.35-.66-4.76.64-6.81,2a99.42,99.42,0,0,0-15,11.93l.69,3A59.46,59.46,0,0,0,423,228.7Z"></path></g><path d="M406.71,245.45c.74,3.17,2,6.51,4.83,8.16a8.83,8.83,0,0,0,7.63.31,17.24,17.24,0,0,0,6.25-4.7c1.38-1.54,2.68-3.4,2.58-5.46-.11-2.44-2.11-4.32-4-5.84a99.7,99.7,0,0,0-16.07-10.49l-2.64,1.6A59,59,0,0,0,406.71,245.45Z" style="fill:#98B1F6"></path><g style="opacity:0.30000000000000004"><path d="M406.71,245.45c.74,3.17,2,6.51,4.83,8.16a8.83,8.83,0,0,0,7.63.31,17.24,17.24,0,0,0,6.25-4.7c1.38-1.54,2.68-3.4,2.58-5.46-.11-2.44-2.11-4.32-4-5.84a99.7,99.7,0,0,0-16.07-10.49l-2.64,1.6A59,59,0,0,0,406.71,245.45Z"></path></g><path d="M384.92,233.1c-3,1.34-6,3.26-7.06,6.33A8.83,8.83,0,0,0,379,247a17.22,17.22,0,0,0,5.83,5.22c1.78,1.05,3.85,2,5.85,1.47,2.37-.59,3.83-2.92,4.95-5.08a100.48,100.48,0,0,0,7.17-17.81l-2.09-2.28A59.3,59.3,0,0,0,384.92,233.1Z" style="fill:#98B1F6"></path><g style="opacity:0.30000000000000004"><path d="M384.92,233.1c-3,1.34-6,3.26-7.06,6.33A8.83,8.83,0,0,0,379,247a17.22,17.22,0,0,0,5.83,5.22c1.78,1.05,3.85,2,5.85,1.47,2.37-.59,3.83-2.92,4.95-5.08a100.48,100.48,0,0,0,7.17-17.81l-2.09-2.28A59.3,59.3,0,0,0,384.92,233.1Z"></path></g><path d="M384.55,210.83c-2.79-1.67-6.09-3.07-9.22-2.21a8.84,8.84,0,0,0-5.54,5.25,17.16,17.16,0,0,0-1,7.76c.14,2.07.56,4.29,2.11,5.66,1.83,1.61,4.57,1.49,7,1.18a99.34,99.34,0,0,0,18.73-4.22l.69-3A59.14,59.14,0,0,0,384.55,210.83Z" style="fill:#98B1F6"></path><g style="opacity:0.30000000000000004"><path d="M384.55,210.83c-2.79-1.67-6.09-3.07-9.22-2.21a8.84,8.84,0,0,0-5.54,5.25,17.16,17.16,0,0,0-1,7.76c.14,2.07.56,4.29,2.11,5.66,1.83,1.61,4.57,1.49,7,1.18a99.34,99.34,0,0,0,18.73-4.22l.69-3A59.14,59.14,0,0,0,384.55,210.83Z"></path></g><path d="M395.85,201.44c-1.88-3.25-4.41-6.5-8.06-7.39a10.18,10.18,0,0,0-8.51,2.2,19.82,19.82,0,0,0-5.33,7.28c-1,2.15-1.83,4.63-1,6.88.95,2.65,3.78,4.05,6.39,5.1a115.31,115.31,0,0,0,21.23,6.21l2.38-2.65A68.43,68.43,0,0,0,395.85,201.44Z" style="fill:#98B1F6"></path><path d="M419,239.38c3.1,2.11,6.8,3.94,10.47,3.16a10.2,10.2,0,0,0,6.71-5.68,19.85,19.85,0,0,0,1.65-8.86c0-2.39-.37-5-2.06-6.65-2-2-5.16-2-8-1.82A115.29,115.29,0,0,0,406,223.14l-1,3.42A68.1,68.1,0,0,0,419,239.38Z" style="fill:#98B1F6"></path><path d="M391.34,242.26c-1.56,3.41-2.75,7.37-1.37,10.85a10.2,10.2,0,0,0,6.72,5.68,19.72,19.72,0,0,0,9,.14c2.35-.42,4.84-1.19,6.21-3.13,1.62-2.31,1.13-5.43.48-8.16a114.8,114.8,0,0,0-7.21-20.93l-3.53-.4A68.39,68.39,0,0,0,391.34,242.26Z" style="fill:#98B1F6"></path><path d="M380.83,221c-3.74.06-7.83.69-10.38,3.44a10.18,10.18,0,0,0-2.22,8.51,19.71,19.71,0,0,0,3.75,8.2c1.39,1.93,3.16,3.85,5.51,4.25,2.77.47,5.38-1.32,7.57-3.09a115,115,0,0,0,15.77-15.51l-1.15-3.37A68.83,68.83,0,0,0,380.83,221Z" style="fill:#98B1F6"></path><path d="M421.06,216.65c3.35-1.68,6.76-4,7.86-7.61a10.13,10.13,0,0,0-1.69-8.62,19.62,19.62,0,0,0-6.94-5.76c-2.09-1.14-4.52-2.1-6.8-1.44-2.7.78-4.28,3.52-5.48,6.07a114.85,114.85,0,0,0-7.47,20.82l2.5,2.53A68.21,68.21,0,0,0,421.06,216.65Z" style="fill:#98B1F6"></path><path d="M412.66,208.71a46.48,46.48,0,0,1-5.57,8.07,23.11,23.11,0,0,1,2.57-4.18A23.41,23.41,0,0,1,412.66,208.71Z" style="fill:#263238"></path><path d="M419.11,229.31c-.05.14-2.33-.67-5.2-1.49s-5.22-1.33-5.2-1.47a19,19,0,0,1,5.35,1A18.63,18.63,0,0,1,419.11,229.31Z" style="fill:#263238"></path><path d="M402.4,239.77c-.15,0,.11-2.43.19-5.41s0-5.39.1-5.41a26.2,26.2,0,0,1-.29,10.82Z" style="fill:#263238"></path><path d="M398.5,226a27.2,27.2,0,0,1-5.1,1.41,26.86,26.86,0,0,1-5.21.9,27.2,27.2,0,0,1,5.1-1.41A27.55,27.55,0,0,1,398.5,226Z" style="fill:#263238"></path><path d="M392.54,213.13a11.54,11.54,0,0,1,6.67,6.51c-.14.08-1.15-1.79-3-3.59S392.47,213.27,392.54,213.13Z" style="fill:#263238"></path><path d="M391,211c-.08.12-.47,0-.91-.21s-.8-.37-.77-.51.48-.18,1,0S391.11,210.84,391,211Z" style="fill:#263238"></path><path d="M410.38,224.56a7.61,7.61,0,1,1-5.44-9.29A7.62,7.62,0,0,1,410.38,224.56Z" style="fill:#fff"></path></g></svg>
