<svg xmlns="http://www.w3.org/2000/svg" viewBox="0 0 500 500"><g id="freepik--flowers-3--inject-8"><path d="M295.22,266.58c-2.38.66-4.54,2.94-6.89,2.18s-2.74-3.57-4-5.53c-2.54-3.89-8.62-4-12.41-1.32s-5.75,7.25-7.08,11.7c-4.15,13.9-3.5,31.95,4.62,43.9h0c14.85-5.31,27.6-20.3,32.92-35.14,1.21-3.38,2.07-7.09,1-10.51S298.67,265.62,295.22,266.58Z" style="fill:#f5f5f5"></path><path d="M333.23,319.05c-1.61-1.87-4.6-2.86-4.91-5.31s2.07-4,3.3-6c2.44-3.95,0-9.5-4.09-11.79s-9-2.11-13.6-1.42c-14.35,2.15-30.4,10.42-37.76,22.85h0c11.12,11.18,30.12,16.34,45.81,14.84,3.57-.34,7.3-1.14,9.94-3.56S335.57,321.76,333.23,319.05Z" style="fill:#f5f5f5"></path><path d="M280.6,276.2c-.16-4.38-1.59-9.79-5.9-10.6-4-.76-7.62,3.12-11.63,2.68s-6.5-4.79-10.4-5.56c-3.39-.66-6.8,1.77-8.29,4.88s-.69,8.88,0,12.27c3.5,18.34,9.57,34.93,25,43.59C278.32,310.24,281.18,292.14,280.6,276.2Z" style="fill:#e0e0e0"></path><path d="M312.83,286.86c-2.44-.34-5.34.89-7.19-.75s-1.08-4.37-1.47-6.68c-.78-4.58-6.3-7.11-10.85-6.17s-8.17,4.36-11.17,7.91c-9.36,11.08-16,27.89-13.29,42.08h0c15.73,1.07,33.41-7.58,44.21-19.06,2.46-2.61,4.73-5.67,5.12-9.23S316.38,287.36,312.83,286.86Z" style="fill:#e0e0e0"></path><path d="M268.86,323.25c8.25,9.53,32.44,14.92,48.06,18.12,4.35.9,9.9,1.15,12.15-2.68,1.56-2.64.61-6.19-1.42-8.5s-4.9-3.66-7.69-4.95c3.69-1.39,5.64-8.14,5.16-12.05-.34-2.77-3-4.8-5.73-5.32s-5.56.11-8.27.75c-13.65,3.2-30.45,7.37-42.26,14.63" style="fill:#e0e0e0"></path><path d="M270.09,325c-6.23-2.07-8.23-5.24-10.59-8.63a11.24,11.24,0,0,1,7.85,3.29,12.9,12.9,0,0,1,1.67-9,20.11,20.11,0,0,1,2.72,8.59,35.87,35.87,0,0,1,8.19-5.67,15.5,15.5,0,0,1-3.88,8.29,16.11,16.11,0,0,1,10.23-1.29c-2.41,3-6.6,4.45-10.47,4.24,3.34,1.18,5.67,3,6.77,6.4-4-.86-8.19-1.26-12.27-6.13" style="fill:#263238"></path><path d="M282.55,280.71a10.75,10.75,0,0,1-1.14,1.28c-.19.2-.4.43-.63.66l-.7.84c-.49.6-1.08,1.26-1.64,2.08l-.9,1.24c-.3.45-.59.92-.9,1.41-.64,1-1.19,2.06-1.82,3.2a50,50,0,0,0-3.12,7.82A52.6,52.6,0,0,0,270,307.5c-.11,1.29-.25,2.52-.26,3.67,0,.58,0,1.14,0,1.67s0,1.05,0,1.54c0,1,.1,1.87.16,2.65s.13,1.44.21,2a10.07,10.07,0,0,1,.18,1.7,11.32,11.32,0,0,1-.38-1.67,17.8,17.8,0,0,1-.3-2c-.09-.78-.22-1.67-.24-2.66l-.07-1.55c0-.55,0-1.11,0-1.69,0-1.17.11-2.41.21-3.71a51.55,51.55,0,0,1,1.65-8.36,48.21,48.21,0,0,1,3.19-7.89c.65-1.14,1.22-2.25,1.89-3.21.32-.49.62-1,.93-1.41l.94-1.24a24.38,24.38,0,0,1,1.72-2l.73-.82.67-.63A10.55,10.55,0,0,1,282.55,280.71Z" style="fill:#263238"></path><path d="M307.31,309.38a6.85,6.85,0,0,1-1.14,1.06,35.19,35.19,0,0,1-3.44,2.5A54,54,0,0,1,290,318.8a107.61,107.61,0,0,1-13.61,3.29c-1.76.32-3.18.56-4.17.71a9.06,9.06,0,0,1-1.55.19,8.51,8.51,0,0,1,1.51-.39l4.14-.87a131.58,131.58,0,0,0,13.52-3.43,58.89,58.89,0,0,0,12.67-5.67c1.52-.93,2.71-1.76,3.51-2.35A12.63,12.63,0,0,1,307.31,309.38Z" style="fill:#263238"></path><path d="M288.12,302.08a27.9,27.9,0,0,1-2.38,2.6c-1.49,1.58-3.52,3.79-5.64,6.33s-3.93,4.94-5.22,6.69a27.91,27.91,0,0,1-2.12,2.81,3.83,3.83,0,0,1,.44-.84c.3-.53.78-1.27,1.38-2.18a84.19,84.19,0,0,1,5.12-6.81,81.51,81.51,0,0,1,5.78-6.26c.78-.76,1.43-1.36,1.89-1.75A4.06,4.06,0,0,1,288.12,302.08Z" style="fill:#263238"></path><path d="M305.36,328.29a4.5,4.5,0,0,1-1.12,0c-.72,0-1.76,0-3.05-.1-2.56-.13-6.11-.41-10-.91s-7.39-1.12-9.91-1.65c-1.26-.26-2.27-.5-3-.68a4.62,4.62,0,0,1-1.07-.32,4.36,4.36,0,0,1,1.11.12l3,.52c2.53.43,6,1,9.91,1.5s7.4.83,10,1.05l3,.27A5,5,0,0,1,305.36,328.29Z" style="fill:#263238"></path><path d="M311,327.4c0,.14-.28.26-.61.26s-.61-.12-.61-.26.27-.26.61-.26S311,327.25,311,327.4Z" style="fill:#263238"></path><path d="M258.38,296.55a4.5,4.5,0,0,1,.39,1c.25.76.55,1.67.91,2.74.76,2.3,1.84,5.48,3.14,9s2.58,6.57,3.53,8.81c.43,1,.8,1.93,1.11,2.66a3.56,3.56,0,0,1,.35,1,4.6,4.6,0,0,1-.54-.92c-.31-.6-.75-1.48-1.26-2.59-1-2.2-2.37-5.3-3.67-8.78s-2.34-6.68-3-9c-.34-1.17-.6-2.13-.75-2.79A4.54,4.54,0,0,1,258.38,296.55Z" style="fill:#263238"></path><path d="M203.42,322.26c-.23,1.55.54,3.38-.5,4.54s-2.77.67-4.23.91c-2.9.47-4.52,4-3.94,6.83s2.72,5.18,4.95,7.09c7,6,17.56,10.2,26.54,8.57h0c.74-9.94-4.66-21.15-11.87-28-1.64-1.56-3.57-3-5.81-3.27S203.74,320,203.42,322.26Z" style="fill:#f5f5f5"></path><path d="M243.47,313.73c-1.5.46-2.83,1.93-4.33,1.48s-1.77-2.21-2.61-3.44c-1.66-2.42-5.5-2.4-7.86-.66s-3.53,4.67-4.31,7.5c-2.43,8.84-1.76,20.23,3.54,27.67h0c9.31-3.56,17.15-13.22,20.3-22.67.72-2.15,1.21-4.51.49-6.65S245.63,313.08,243.47,313.73Z" style="fill:#f5f5f5"></path><path d="M205.23,333.17c-2.57-1-6.06-1.58-7.63.69-1.45,2.1-.15,5.21-1.43,7.42s-4.44,2.52-5.87,4.58c-1.25,1.79-.73,4.38.69,6s4.95,2.67,7.08,3.17c11.49,2.67,22.63,3.41,31.6-3.31C224.32,343.21,214.59,336.92,205.23,333.17Z" style="fill:#e0e0e0"></path><path d="M219.65,317.28c-.83,1.32-.86,3.31-2.28,4s-2.8-.49-4.23-.86c-2.85-.72-5.73,1.82-6.35,4.69s.43,5.84,1.71,8.48c4,8.24,12,16.37,20.91,18.46h0c4.65-8.82,4.18-21.25.31-30.43-.88-2.09-2.06-4.19-4-5.32S220.84,315.36,219.65,317.28Z" style="fill:#e0e0e0"></path><path d="M229.41,352c7.62-2.33,16.93-14.93,22.78-23.13,1.63-2.29,3.2-5.43,1.56-7.71-1.13-1.58-3.42-1.94-5.27-1.36a14.1,14.1,0,0,0-4.83,3.18c.14-2.49-3.26-5.34-5.65-6.07a4.31,4.31,0,0,0-4.54,1.95,12.8,12.8,0,0,0-1.68,5c-1.65,8.71-3.54,19.48-2.37,28.17" style="fill:#e0e0e0"></path><path d="M230.75,351.75c-2.79,3.07-5.14,3.41-7.7,3.91A7.09,7.09,0,0,1,227,352a8.07,8.07,0,0,1-4.79-3.28,12.66,12.66,0,0,1,5.66.63,22.46,22.46,0,0,1-1.18-6.18,9.87,9.87,0,0,1,3.8,4.36,10.11,10.11,0,0,1,1.87-6.24,8,8,0,0,1-.23,7.13,6.25,6.25,0,0,1,5.43-2.27c-1.51,2.08-2.83,4.41-6.69,5.52" style="fill:#263238"></path><path d="M208.34,333.2c.1,0,.58,1.44,1.81,3.58a27.18,27.18,0,0,0,2.46,3.57,32.19,32.19,0,0,0,3.72,3.79,33.83,33.83,0,0,0,4.33,3.08,31.58,31.58,0,0,0,3.88,1.93c2.3.94,3.81,1.27,3.78,1.37a4.74,4.74,0,0,1-1.07-.18A8.77,8.77,0,0,1,226,350a15.65,15.65,0,0,1-1.6-.53,26.9,26.9,0,0,1-4-1.86,30.49,30.49,0,0,1-4.43-3.09,30.16,30.16,0,0,1-3.75-3.89,24.42,24.42,0,0,1-2.41-3.69,15.7,15.7,0,0,1-.73-1.52,11.08,11.08,0,0,1-.47-1.19A4.06,4.06,0,0,1,208.34,333.2Z" style="fill:#263238"></path><path d="M231.25,326.24a3.51,3.51,0,0,1,.35.92,20.77,20.77,0,0,1,.6,2.62,33,33,0,0,1,.15,8.87,64.11,64.11,0,0,1-1.61,8.71c-.27,1.1-.51,2-.68,2.59a3.8,3.8,0,0,1-.33.93,28.69,28.69,0,0,1,.65-3.6c.45-2.22,1.09-5.27,1.46-8.69a38.9,38.9,0,0,0,0-8.75C231.55,327.61,231.16,326.26,231.25,326.24Z" style="fill:#263238"></path><path d="M222.12,335.45c.14-.05,1.33,3.14,3.19,6.88s3.65,6.64,3.52,6.72a8.29,8.29,0,0,1-1.34-1.79,48.53,48.53,0,0,1-2.65-4.69,47.6,47.6,0,0,1-2.11-5A8.21,8.21,0,0,1,222.12,335.45Z" style="fill:#263238"></path><path d="M241.67,332.21a12.27,12.27,0,0,1-1,2.42c-.72,1.46-1.78,3.44-3.07,5.57s-2.55,4-3.52,5.29a11.56,11.56,0,0,1-1.67,2,15.07,15.07,0,0,1,1.37-2.25c.88-1.36,2.09-3.24,3.38-5.35s2.38-4.06,3.18-5.47A14.5,14.5,0,0,1,241.67,332.21Z" style="fill:#263238"></path><path d="M242.6,328.72c.13.06.16.27.08.46s-.27.31-.4.25-.17-.26-.08-.46S242.46,328.67,242.6,328.72Z" style="fill:#263238"></path><path d="M211.3,351.22a13.18,13.18,0,0,1,2.49.14c1.53.13,3.64.31,6,.44s4.45.21,6,.25a13.79,13.79,0,0,1,2.49.16,11,11,0,0,1-2.49.21c-1.54.05-3.67,0-6-.1s-4.46-.37-6-.6A10.24,10.24,0,0,1,211.3,351.22Z" style="fill:#263238"></path><path d="M258,460.46a2.24,2.24,0,0,1-.1-.35c-.05-.26-.12-.61-.21-1l-.78-4c-.17-.88-.35-1.84-.55-2.9s-.35-2.23-.54-3.47c-.35-2.5-.84-5.33-1.14-8.49q-.25-2.35-.54-4.95c-.18-1.72-.27-3.52-.41-5.38-.33-3.72-.41-7.7-.55-11.89a234.53,234.53,0,0,1,5.26-54.23c1-4.09,1.79-8,2.83-11.57.5-1.8.93-3.55,1.44-5.2l1.48-4.76c.9-3,1.92-5.72,2.75-8.1.43-1.19.81-2.3,1.19-3.3l1.1-2.74c.66-1.62,1.17-2.89,1.54-3.79.17-.41.31-.73.41-1a1.22,1.22,0,0,1,.16-.32s0,.12-.11.35l-.37,1-1.44,3.82c-.32.83-.67,1.75-1.06,2.75s-.73,2.13-1.14,3.32c-.81,2.38-1.81,5.07-2.68,8.11q-.69,2.28-1.45,4.76c-.5,1.66-.92,3.41-1.41,5.2-1,3.59-1.84,7.48-2.77,11.56a260.49,260.49,0,0,0-4.16,26.91A263.15,263.15,0,0,0,253.62,418c.13,4.18.19,8.16.5,11.87.13,1.86.21,3.66.38,5.38s.34,3.37.51,4.94c.27,3.16.73,6,1.06,8.48.18,1.25.32,2.41.49,3.48s.35,2,.51,2.9c.29,1.73.52,3.08.68,4,.07.44.13.78.17,1.05S258,460.46,258,460.46Z" style="fill:#263238"></path><path d="M248.63,405.73a15,15,0,0,0-.95-4.2,2.48,2.48,0,0,0-2.62-1.56,1.61,1.61,0,0,0-1.09,1.79l-5.14-7.89c-.59-.91-1.41-1.93-2.48-1.81-1.48.16-1.8,2.16-1.71,3.64l-5.86-7.12c-.73-.89-1.84-1.87-2.88-1.37s-1,1.9-.72,3a25.31,25.31,0,0,0,3.52,8.26c-.52-1-2.3-.38-2.53.75a4.07,4.07,0,0,0,1.23,3.12,58.38,58.38,0,0,0,5.89,6.39,1.38,1.38,0,0,0-2.15.5,2.26,2.26,0,0,0,.64,2.38,14.67,14.67,0,0,0,2.27,1.26c3.83,2.6,12.06,9,16.49,8.49C251.46,417.28,249,411.29,248.63,405.73Z" style="fill:#455a64"></path><path d="M253.64,426.15a7.46,7.46,0,0,1-.72-1.08l-1.84-3c-1.57-2.54-3.78-6-6.43-9.68s-5.23-6.87-7.15-9.14l-2.29-2.68a5.56,5.56,0,0,1-.8-1,7.15,7.15,0,0,1,1,.88c.59.59,1.42,1.47,2.42,2.58a109.07,109.07,0,0,1,7.29,9.08,115.13,115.13,0,0,1,6.32,9.79c.75,1.29,1.33,2.35,1.71,3.09A5.94,5.94,0,0,1,253.64,426.15Z" style="fill:#263238"></path><path d="M229.73,350.88a2,2,0,0,1,.36.39l1,1.18c.83,1,2,2.56,3.39,4.48a138.68,138.68,0,0,1,9.92,15.64c1.71,3.2,3.18,6.32,4.4,9.21s2.16,5.57,2.82,7.85c.36,1.13.62,2.17.85,3.09s.42,1.7.54,2.35.21,1.1.28,1.5a2.14,2.14,0,0,1,.07.53,1.65,1.65,0,0,1-.17-.5c-.1-.4-.23-.89-.38-1.48s-.35-1.43-.62-2.33-.54-1.93-.92-3.05c-.7-2.26-1.71-4.89-2.91-7.77s-2.72-6-4.42-9.15a161.08,161.08,0,0,0-9.76-15.68c-1.35-1.94-2.47-3.5-3.25-4.56l-.89-1.25A2,2,0,0,1,229.73,350.88Z" style="fill:#263238"></path><g style="opacity:0.2"><path d="M248.63,405.73a15,15,0,0,0-.95-4.2,2.48,2.48,0,0,0-2.62-1.56,1.61,1.61,0,0,0-1.09,1.79l-5.14-7.89c-.59-.91-1.41-1.93-2.48-1.81-1.48.16-1.8,2.16-1.71,3.64l-5.86-7.12c-.73-.89-1.84-1.87-2.88-1.37s-1,1.9-.72,3a25.31,25.31,0,0,0,3.52,8.26c-.52-1-2.3-.38-2.53.75a4.07,4.07,0,0,0,1.23,3.12,58.38,58.38,0,0,0,5.89,6.39,1.38,1.38,0,0,0-2.15.5,2.26,2.26,0,0,0,.64,2.38,14.67,14.67,0,0,0,2.27,1.26c3.83,2.6,12.06,9,16.49,8.49C251.46,417.28,249,411.29,248.63,405.73Z"></path></g><path d="M309.87,375.75a3.9,3.9,0,0,1-.75.27l-2.19.68-1.59.48c-.57.19-1.18.43-1.85.67-1.32.5-2.85,1-4.46,1.75l-2.56,1.11c-.88.39-1.77.88-2.7,1.35-1.89.89-3.79,2.07-5.82,3.25a83.79,83.79,0,0,0-22.59,20.31c-1.38,1.9-2.75,3.66-3.83,5.45-.56.89-1.14,1.71-1.62,2.55l-1.37,2.44c-.91,1.52-1.55,3-2.18,4.26-.3.64-.6,1.23-.85,1.78l-.62,1.53-.89,2.11a4.2,4.2,0,0,1-.34.73,4.43,4.43,0,0,1,.24-.76l.8-2.16c.18-.47.37-1,.59-1.55s.52-1.15.81-1.8c.6-1.28,1.22-2.77,2.12-4.32l1.34-2.46c.48-.85,1.05-1.69,1.6-2.58,1.08-1.81,2.44-3.6,3.82-5.51A81.69,81.69,0,0,1,287.7,384.9c2.05-1.18,4-2.34,5.87-3.23.95-.45,1.84-.94,2.73-1.33l2.59-1.08c1.62-.74,3.17-1.21,4.51-1.69.67-.22,1.29-.45,1.87-.63l1.6-.43,2.22-.59A5.69,5.69,0,0,1,309.87,375.75Z" style="fill:#263238"></path><path d="M312.49,363.34c-1.53-.28-3.39.43-4.52-.65s-.58-2.78-.77-4.25c-.37-2.92-3.8-4.65-6.7-4.17s-5.26,2.55-7.24,4.72c-6.19,6.77-10.78,17.21-9.44,26.25h0c9.91,1.06,21.29-4,28.4-10.95,1.61-1.59,3.12-3.46,3.46-5.7S314.72,363.74,312.49,363.34Z" style="fill:#f5f5f5"></path><path d="M319.7,403.65c-.4-1.51-1.83-2.89-1.34-4.37s2.28-1.7,3.53-2.5c2.47-1.58,2.59-5.42.91-7.84s-4.54-3.68-7.35-4.55c-8.75-2.71-20.16-2.42-27.77,2.63h0c3.26,9.42,12.65,17.58,22,21,2.12.78,4.46,1.36,6.63.7S320.29,405.84,319.7,403.65Z" style="fill:#f5f5f5"></path><path d="M301.53,364.8c1.11-2.54,1.78-6-.44-7.66-2-1.52-5.2-.32-7.36-1.67s-2.38-4.51-4.39-6c-1.75-1.31-4.36-.86-6.06.5s-2.84,4.86-3.4,7c-3.05,11.4-4.15,22.51,2.27,31.69C290.87,383.54,297.47,374,301.53,364.8Z" style="fill:#e0e0e0"></path><path d="M316.94,379.72c-1.3-.86-3.28-1-3.89-2.4s.59-2.78,1-4.2c.82-2.82-1.63-5.78-4.48-6.5s-5.84.24-8.52,1.43c-8.38,3.74-16.76,11.48-19.14,20.3h0c8.66,4.93,21.1,4.87,30.4,1.3,2.12-.81,4.25-1.92,5.45-3.84S318.82,381,316.94,379.72Z" style="fill:#e0e0e0"></path><path d="M281.91,388.35c2.08,7.69,14.36,17.4,22.37,23.52,2.23,1.71,5.32,3.38,7.65,1.82,1.62-1.08,2.05-3.36,1.53-5.23a14.07,14.07,0,0,0-3-4.93c2.48.22,5.44-3.09,6.25-5.45a4.31,4.31,0,0,0-1.81-4.6,12.59,12.59,0,0,0-4.91-1.84c-8.65-1.93-19.35-4.18-28.07-3.29" style="fill:#e0e0e0"></path><path d="M282.12,389.69c-3-2.89-3.24-5.24-3.65-7.82a7.09,7.09,0,0,1,3.57,4,8.13,8.13,0,0,1,3.43-4.69,12.75,12.75,0,0,1-.81,5.64,22.55,22.55,0,0,1,6.21-1,9.77,9.77,0,0,1-4.48,3.65,10.18,10.18,0,0,1,6.18,2.08,8,8,0,0,1-7.13-.47,6.21,6.21,0,0,1,2.09,5.5c-2-1.58-4.31-3-5.29-6.86" style="fill:#263238"></path><path d="M301.4,367.9c0,.1-1.46.53-3.64,1.7a26.34,26.34,0,0,0-3.65,2.34,32,32,0,0,0-3.91,3.59,34,34,0,0,0-3.22,4.22,32.34,32.34,0,0,0-2.06,3.82c-1,2.26-1.39,3.76-1.49,3.74a4.56,4.56,0,0,1,.21-1.07A10.24,10.24,0,0,1,284,385a15.32,15.32,0,0,1,.59-1.59,25.51,25.51,0,0,1,2-3.93,30.21,30.21,0,0,1,3.24-4.32,30.76,30.76,0,0,1,4-3.63,24.89,24.89,0,0,1,3.77-2.28,12.92,12.92,0,0,1,1.55-.68,8.53,8.53,0,0,1,1.2-.43A4.65,4.65,0,0,1,301.4,367.9Z" style="fill:#263238"></path><path d="M307.61,391a3.59,3.59,0,0,1-.94.32,20,20,0,0,1-2.64.51,33.75,33.75,0,0,1-8.87-.13,67.22,67.22,0,0,1-8.65-1.9c-1.09-.31-2-.58-2.56-.77a3.46,3.46,0,0,1-.92-.36,27.45,27.45,0,0,1,3.58.77c2.19.52,5.23,1.26,8.63,1.74a38.28,38.28,0,0,0,8.75.28C306.23,391.29,307.59,390.94,307.61,391Z" style="fill:#263238"></path><path d="M298.69,381.6c.05.14-3.17,1.23-7,3s-6.75,3.43-6.83,3.3a8.91,8.91,0,0,1,1.84-1.28,48,48,0,0,1,4.78-2.49,46.05,46.05,0,0,1,5-1.95A8.15,8.15,0,0,1,298.69,381.6Z" style="fill:#263238"></path><path d="M301.3,401.25a11.4,11.4,0,0,1-2.39-1.12c-1.44-.76-3.38-1.89-5.46-3.24s-3.9-2.69-5.18-3.69a11.61,11.61,0,0,1-2-1.74,14.3,14.3,0,0,1,2.2,1.44c1.33.93,3.17,2.2,5.24,3.55s4,2.52,5.36,3.36A15.07,15.07,0,0,1,301.3,401.25Z" style="fill:#263238"></path><path d="M304.75,402.29c-.07.13-.27.16-.46.06s-.3-.27-.24-.4.27-.16.46-.07S304.81,402.16,304.75,402.29Z" style="fill:#263238"></path><path d="M283.29,370.27a13,13,0,0,1-.22,2.48c-.18,1.53-.43,3.63-.64,6s-.35,4.45-.45,6a13.48,13.48,0,0,1-.23,2.48,10.49,10.49,0,0,1-.14-2.49c0-1.54.09-3.67.3-6s.52-4.45.8-6A10.89,10.89,0,0,1,283.29,370.27Z" style="fill:#263238"></path><path d="M269.1,424a15.14,15.14,0,0,1,2.71-3.35,2.48,2.48,0,0,1,3-.25,1.61,1.61,0,0,1,.19,2.09l8.09-4.82c.93-.56,2.11-1.11,3-.53,1.25.8.65,2.73-.08,4l8.4-3.81c1-.48,2.48-.87,3.19,0s0,2.13-.67,3a25.47,25.47,0,0,1-6.8,5.86c.92-.7,2.24.67,1.95,1.79s-1.44,1.76-2.48,2.26a58.92,58.92,0,0,1-8.1,3.13c.81-.33,1.75.52,1.71,1.4a2.25,2.25,0,0,1-1.63,1.85,13.88,13.88,0,0,1-2.59.14c-4.58.65-14.77,2.72-18.55.35C261.48,433.09,266.37,428.83,269.1,424Z" style="fill:#455a64"></path><g style="opacity:0.2"><path d="M269.1,424a15.14,15.14,0,0,1,2.71-3.35,2.48,2.48,0,0,1,3-.25,1.61,1.61,0,0,1,.19,2.09l8.09-4.82c.93-.56,2.11-1.11,3-.53,1.25.8.65,2.73-.08,4l8.4-3.81c1-.48,2.48-.87,3.19,0s0,2.13-.67,3a25.47,25.47,0,0,1-6.8,5.86c.92-.7,2.24.67,1.95,1.79s-1.44,1.76-2.48,2.26a58.92,58.92,0,0,1-8.1,3.13c.81-.33,1.75.52,1.71,1.4a2.25,2.25,0,0,1-1.63,1.85,13.88,13.88,0,0,1-2.59.14c-4.58.65-14.77,2.72-18.55.35C261.48,433.09,266.37,428.83,269.1,424Z"></path></g><path d="M255.2,440.94a6.54,6.54,0,0,1,1-.82c.68-.51,1.68-1.21,2.94-2.05a118.16,118.16,0,0,1,20.93-11c1.41-.56,2.56-1,3.36-1.26a6.47,6.47,0,0,1,1.26-.38,5.65,5.65,0,0,1-1.19.57l-3.29,1.41c-2.77,1.2-6.56,2.95-10.64,5.09s-7.66,4.27-10.23,5.87l-3,1.9A6.43,6.43,0,0,1,255.2,440.94Z" style="fill:#263238"></path></g></svg>
