<svg xmlns="http://www.w3.org/2000/svg" viewBox="0 0 500 500"><g id="freepik--flowers-1--inject-9"><path d="M143.42,293.41v0Z" style="fill:#37474f"></path><path d="M124.71,135.7c.93,5.92-3.2,35.31-7.5,37.6-3.37,1.8-19.09-11.9-28.09-24.25a0,0,0,0,0,0,0,42.37,42.37,0,0,1-5.51-9.56c-4.89-13.2-8.17-43.92,7.09-50.62,6.94-3,16.91,5.13,21.79,12.52,4.73,7.15,8.46,18.53,10.55,26.63C123.87,131.26,124.45,134,124.71,135.7Z" style="fill:#DB5E68"></path><path d="M124.71,135.7c.93,5.92-3.2,35.31-7.5,37.6-3.37,1.8-19.09-11.9-28.09-24.25a0,0,0,0,0,0,0,42.37,42.37,0,0,1-5.51-9.56c-4.89-13.2-8.17-43.92,7.09-50.62,6.94-3,16.91,5.13,21.79,12.52,4.73,7.15,8.46,18.53,10.55,26.63C123.87,131.26,124.45,134,124.71,135.7Z" style="opacity:0.1"></path><path d="M117.21,173.3c-7.06,2-24.27-23.75-24.79-27.05s12.26,13.36,13.13,13.41-9.1-20.31-8.31-21.27,7.49,12.46,8.16,12.39-2-10.52-1-11.21,4.85,14.3,6.07,14.11-1.41-20.48-.41-20.74,4.8,21.42,5.84,21.36.77-15.17,2-15.47S122.31,171.84,117.21,173.3Z" style="opacity:0.1"></path><path d="M148.08,106c-.74,3.93-1.9,9.37-3.39,15.17-.08.35-.16.68-.25,1a0,0,0,0,1,0,0c-3.62,14-9,29.72-14.66,31.44-3.47,1-8.15-26.28-8.61-31.88a57,57,0,0,1,.09-8.28c.44-5.78,1.6-12.28,3.74-15.21,2.87-3.93,7.91-14.21,11-17.39a3.11,3.11,0,0,1,1.33-.94C140.07,79.32,150.62,92.47,148.08,106Z" style="fill:#DB5E68"></path><path d="M146.5,96.52a53,53,0,0,1,.08,8.07,105.59,105.59,0,0,1-1.89,16.61c-.08.35-.16.68-.25,1a0,0,0,0,1,0,0c-1.81,6.52-2.73-11.13-8.24-10.61s-8.24,14.1-9.67,14.67,1.76-14.85-2.25-14.4a5.25,5.25,0,0,0-3,1.62c.16-2.1.42-4.3.78-6.39.64-3.65,1.6-7,3-8.82,2.87-3.93,7.91-14.21,11-17.39C138.24,80.11,145.93,92.87,146.5,96.52Z" style="opacity:0.1"></path><path d="M129.77,153.65c-3,.45-8.37-25.35-7.91-26.6s3.38,13.57,4,13.86-.74-12.35,0-12.56,1.41,8.32,2,8.23,1.9-13.05,2.65-13.17-.52,16.38.26,16.45,2.54-8.93,3.29-9-1.84,11.6-1.17,11.59,5.88-14,6.64-14S136.22,152.67,129.77,153.65Z" style="opacity:0.1"></path><path d="M106.94,169.25c-.29,1.22-7-2.38-12.43-5-.13-.05-.28-.13-.45-.21a42.58,42.58,0,0,0-4.51-1.92c-4.68-1.49-17-4.87-24.27-11.31S53,138.79,51.64,133.8,48.77,120.14,50,119.21s1.12,2.35,2.1,2.94c.74.45,16,6.79,27.16,12.85a67.59,67.59,0,0,1,9.15,5.7C99,149.19,107.38,167.38,106.94,169.25Z" style="fill:#DB5E68"></path><path d="M106.94,169.25c-.29,1.22-7-2.38-12.43-5-.13-.05-.28-.13-.45-.21a42.58,42.58,0,0,0-4.51-1.92c-4.68-1.49-17-4.87-24.27-11.31S53,138.79,51.64,133.8,48.77,120.14,50,119.21s1.12,2.35,2.1,2.94c.74.45,16,6.79,27.16,12.85a67.59,67.59,0,0,1,9.15,5.7C99,149.19,107.38,167.38,106.94,169.25Z" style="opacity:0.15"></path><path d="M94.06,164.07a42.58,42.58,0,0,0-4.51-1.92c-4.68-1.49-17-4.87-24.27-11.31S53,138.79,51.64,133.8,48.77,120.14,50,119.21s1.12,2.35,2.1,2.94c0,0,1.3,13.11,13.54,24.12,3.85,3.46,11.32,7.24,18.72,11A79,79,0,0,0,94.06,164.07Z" style="fill:#DB5E68"></path><path d="M106.94,169.25c.06.87-14-6.28-13.89-7s4.64,1.68,5.16,1.21-11.42-8-11.27-8.95,9.47,5.42,9.61,4.88-5.13-6.61-5-7.16,7.54,6.92,7.94,6.64-8.91-12.27-8.27-13S106.64,164.78,106.94,169.25Z" style="opacity:0.1"></path><path d="M141.4,130a60.56,60.56,0,0,1-4,15.77h0c-2.34,6-5,11.07-6,14a27.29,27.29,0,0,0-.93,3.94c-1.31,7.45-2.17,20.34-2.33,22.8-.09,1.35.39,5.65-.58,5.68-.42,0-.8-8.78-1-19.78,0-.11,0-.23,0-.34v0c-.09-4.34-.16-9-.19-13.61v0c0-2.92,0-5.81,0-8.57v-.06c0-7.58.14-14.17.41-17.66.93-11.94,5.52-25.43,6.22-28s1.77-7.32,2.37-7.19C142.61,98.64,142.58,117.46,141.4,130Z" style="fill:#DB5E68"></path><path d="M129.3,126.89c-1.24,4.83-2.91,21.62-3,22.92,0-7.58.14-14.17.41-17.66.93-11.94,5.52-25.43,6.22-28s1.77-7.32,2.37-7.19C137,102.33,130.59,121.86,129.3,126.89Z" style="fill:#fff;opacity:0.2"></path><path d="M133.93,149.53c.14,0-3.12,9.82-3.47,13.82l0,.38c-1.31,7.45-2.17,20.34-2.33,22.8-.09,1.35.39,5.65-.58,5.68-.42,0-.8-8.78-1-19.78,0-.11,0-.23,0-.34v0c0-4,.52-17.09,1.15-17.29s-.21,8.23.2,8.17,1.76-14.36,2-14.41-.76,12.05-.47,11.76S133.39,149.55,133.93,149.53Z" style="opacity:0.1"></path><path d="M126.06,205c-1.55-2.5-13.36-24.59-17.75-30.05a4.88,4.88,0,0,0-1.07-1c-2.5-1.52-12.36-6.16-20-11.05a37.67,37.67,0,0,1-8-6.35c-5.6-6.55-18.07-26.6-10.33-32.84,1.91-1.53,21.35,12.23,27.29,17.88,2.73,2.59,7,10.62,11,19,1.81,3.78,3.58,7.63,5.15,11.1v0c2.54,5.63,4.54,10.26,5.3,11.93C119.93,188.59,126.06,205,126.06,205Z" style="fill:#DB5E68"></path><path d="M126.06,205c-1.55-2.5-13.36-24.59-17.75-30.05-2.14-3.28-16.06-9.36-16.24-10.27s8.79,4.06,9.08,3.9-13.07-11.52-12.39-12.27,8.89,7.43,9.34,7.13-4.54-6.66-4.12-7.26,8.1,8.32,8.47,8-9.13-13.84-8.73-14.55,12.29,16,12.84,15.9-4.39-8-3.64-8.51,8,12.53,9.44,14.6v0c2.54,5.63,4.54,10.26,5.3,11.93C119.93,188.59,126.06,205,126.06,205Z" style="opacity:0.1"></path><path d="M138.06,132.46c.48,3.08-1.52,11.4-3.35,18.45-.92,3.56-1.81,6.8-2.31,8.87-4.53,18.58-2.63,45.62-1.3,58.7,0,.24.06.48.08.7.14,1.34.27,2.51.39,3.5l0,.27c.24,2,2.08,14,2.08,14l-2.46,1.42c-.79-4.37-4.6-24.55-6.82-33.18l0-.16c-2.05-8-4.17-15.24-5.39-17.33-2.35-4-9.66-11.24-11.34-16.45a7.12,7.12,0,0,1-.28-1.15c-.82-5.24-6.66-24.16-3.61-29.79s9.19-20.52,14.87-21.16S137.33,127.82,138.06,132.46Z" style="fill:#DB5E68"></path><path d="M138.06,132.46c.48,3.08-1.52,11.4-3.35,18.45-.92,3.56-1.81,6.8-2.31,8.87-4.53,18.58-2.63,45.62-1.3,58.7,0,.24.06.48.08.7.14,1.34.27,2.51.39,3.5l0,.27c.24,2,2.08,14,2.08,14l-2.46,1.42c-.79-4.37-4.6-24.55-6.82-33.18l0-.16c-2.05-8-4.17-15.24-5.39-17.33-2.35-4-9.66-11.24-11.34-16.45a7.12,7.12,0,0,1-.28-1.15c-.82-5.24-6.66-24.16-3.61-29.79s9.19-20.52,14.87-21.16S137.33,127.82,138.06,132.46Z" style="fill:#fff;opacity:0.2"></path><path d="M131.1,218.48c0,.24.06.48.08.7.2,1.75.33,3,.39,3.5l0,.27c.24,2,2.08,14,2.08,14l-2.46,1.42c-.79-4.37-4.6-24.55-6.82-33.18l0-.16c-.59-2.62-8.06-36.13-9.17-38.43s2.82,4.48,4.9,4.16,2.56-9.24,3.66-9.41C124.68,161.18,129.53,204.28,131.1,218.48Z" style="fill:#fff;opacity:0.2"></path><path d="M129.46,196.84s4.18,35.37,4.43,39.12c.72,11.06,0,39.28.25,50.35,1.38,61.53,4,184,4,184H132.8s-5.36-92.23-4.2-143.28c.56-24.64,2.15-85.72.17-99.15-.62-4.22-5.6-26.41-5.6-26.41C131.84,210.75,129.46,196.84,129.46,196.84Z" style="fill:#455a64"></path><path d="M165.32,186.81c-1.17,3.68-10.7,19.79-13.13,20.09-1.9.24-4.93-11.5-5.47-20.85h0a33.69,33.69,0,0,1,.2-6.89c1.43-8.86,8.17-27.52,16.4-27.76,3.75-.11,5.8,7,5.91,12.51.11,5.3-1.32,12.82-2.58,18C166.14,184,165.66,185.76,165.32,186.81Z" style="fill:#DB5E68"></path><path d="M165.32,186.81c-1.17,3.68-10.7,19.79-13.13,20.09-1.9.24-4.93-11.5-5.47-20.85h0a33.69,33.69,0,0,1,.2-6.89c1.43-8.86,8.17-27.52,16.4-27.76,3.75-.11,5.8,7,5.91,12.51.11,5.3-1.32,12.82-2.58,18C166.14,184,165.66,185.76,165.32,186.81Z" style="opacity:0.1"></path><path d="M152.19,206.9c-3.52-.52-4-19.64-3.33-21.68s1.65,10.71,2,10.95,1.52-14,2.11-14.37-.13,9,.17,9.16,1.94-6.6,2.56-6.75-1.73,9.48-1.16,9.66,4.82-12.25,5.31-12.16-3.63,13.61-3.18,13.83,4.34-8.65,4.93-8.53S154.74,207.27,152.19,206.9Z" style="opacity:0.1"></path><path d="M167.56,187.16a40.55,40.55,0,0,1-5.63,9.44h0c-2.67,3.47-5.24,6.3-6.55,7.92-2.66,3.25-3.88,1.15-3-1.83v0c.54-1.89,1.08-3.76,1.61-5.55,0,0,0,0,0,0,1.46-4.9,2.79-9.14,3.64-11.35,2.88-7.55,8.42-15.4,9.36-16.91s2.54-4.41,2.9-4.21C174.33,167.08,170.72,179.26,167.56,187.16Z" style="fill:#DB5E68"></path><path d="M160.33,182.83c-1.73,2.89-6,13.44-6.35,14.25,1.46-4.9,2.79-9.14,3.64-11.35,2.88-7.55,8.42-15.4,9.36-16.91s2.54-4.41,2.9-4.21C170,168.39,162.12,179.82,160.33,182.83Z" style="fill:#fff;opacity:0.2"></path><path d="M160.75,193.61c.09,0-3.89,5.77-4.88,8.28a1.86,1.86,0,0,1-.1.25c-.52,1.06-1.08,2.3-1.65,3.62-1.08.77-1.77.37-2-.64,1.1-3.44,3.16-9.3,3.53-9.31s-1.7,5.29-1.43,5.32,3.88-9,4.06-8.93-2.79,7.65-2.55,7.52S160.39,193.54,160.75,193.61Z" style="opacity:0.1"></path><path d="M149.51,203.05c-.61-2.22-3.7-10.08-5.44-17a30.76,30.76,0,0,1-1.18-8c.27-6.91,3.7-25.71,11.25-25.7,1.86,0,5.56,18.4,6,24.92.18,3-1.6,10.15-3.7,17.44-.94,3.27-1.95,6.56-2.87,9.52h0C152,209,149.58,203.32,149.51,203.05Z" style="fill:#DB5E68"></path><path d="M149.57,203.23c-.29-4-4.08-13-3.74-13.59s2.79,7,3,7-1.32-13.78-.55-13.92,1.1,9.13,1.51,9.18.92-6.45,1.46-6.61.21,9.27.56,9.28,2.08-13.24,2.66-13.48-1.43,16.18-1.07,16.4,1.69-7.2,2.38-7.15-2.06,11.83-2.3,13.87h0c0,.09,0,.18-.08.26C152.05,208.45,150,204.2,149.57,203.23Z" style="opacity:0.1"></path><path d="M156.22,203.51a14.39,14.39,0,0,0-3.35,6.63c-2,9.48-3.54,25.87-4,28.45-1.87,10.93-14.63,45.16-16.95,56l-.7-13.76s14.41-31.81,15.6-45.34c.24-2.76,2.58-18.74,3.31-26.26a12.29,12.29,0,0,0-.64-6.16C151.68,208.07,156.22,203.51,156.22,203.51Z" style="fill:#455a64"></path><path d="M135.36,421.25l1.8.61,3.8,1.29s-10.43-103.91-14.84-120.49h0c-.52-1.94-1-2.68-1.28-1.92C121.74,308,135.36,421.25,135.36,421.25Z" style="fill:#455a64"></path><path d="M126.12,302.66c.24,6,1.9,29.15,11,119.2l3.8,1.29S130.53,319.24,126.12,302.66Z" style="fill:#37474f"></path><path d="M124.84,300.73c5.61,33.89,10.43,68,12.25,102.32l.25,6.87-.37-6.86c-2.27-34.21-7.12-68.42-12.13-102.33Z" style="fill:#263238"></path><path d="M184.56,273.33c-11.73,23.57-39.41,95.19-39.41,95.19l-3.71-4.71-.85-1.08c1.53-21.2,58.31-133.3,60.63-133.3h0C203.29,230,196.31,249.78,184.56,273.33Z" style="fill:#455a64"></path><path d="M194.74,244c-14.13,28.5-44.55,95.72-53.3,119.81l-.85-1.08c1.53-21.2,58.31-133.3,60.63-133.3h0S201.43,230.5,194.74,244Z" style="fill:#37474f"></path><path d="M145.45,347.89C152.3,332,163.53,307,170.7,291c8.79-18.78,17-37.91,27-56.08l-1.87,3.41c-15.17,30.8-35.77,77.88-50.33,109.56Z" style="fill:#263238"></path><path d="M143.39,384.79l-2.54.46-5.39,1s35.33-137.66,44.66-159.06h0c1.09-2.5,1.83-3.41,2.11-2.33C184.91,235.22,143.39,384.79,143.39,384.79Z" style="fill:#455a64"></path><path d="M180.12,227.15c-1.56,8-8.53,38.82-39.27,158.1l-5.39,1S170.79,248.55,180.12,227.15Z" style="fill:#37474f"></path><path d="M178.67,230.82c-12.39,47.77-26.62,101.26-39.6,148.87,12.38-47.77,26.62-101.26,39.6-148.87Z" style="fill:#263238"></path><path d="M135.39,431.49l2,.38,4.25.79S114.57,323.59,107.32,306.6h0c-.84-2-1.42-2.71-1.65-1.85C103.48,313,135.39,431.49,135.39,431.49Z" style="fill:#455a64"></path><path d="M107.32,306.6c1.18,6.32,6.51,30.76,30.07,125.27l4.25.79S114.57,323.59,107.32,306.6Z" style="fill:#37474f"></path><path d="M105.67,304.75c9.1,28.41,17.21,57.8,23.66,86.92,1,4.18,1.94,8.37,3.11,12.49-4.77-16.49-8-33.37-12.68-49.89-3.78-14.45-9.84-35-14.09-49.52Z" style="fill:#263238"></path><path d="M151,337.06h0c-.43,4.19-.87,8.36-1.3,12.47h0c-3.77,35.41-7.6,66.28-7.6,66.28L139,390.64c-.34-17.09,5.16-62.19,10-97.2v0c3.64-26.11,6.92-46.59,7.18-45.63C158.45,256.25,155,297.54,151,337.06Z" style="fill:#455a64"></path><path d="M142.55,409.08s-1.34-37.05-14-43.68c-5.79-3,5.66,11.06,5.33,46.73-.16,16.22,0,58.17,0,58.17h8.52Z" style="fill:#455a64"></path><path d="M130.63,440.5l2.55-.26,5.39-.57S67,318.36,52.16,300.55h0c-1.73-2.08-2.68-2.74-2.65-1.63C49.82,309.56,130.63,440.5,130.63,440.5Z" style="fill:#455a64"></path><path d="M52.16,300.55c3.68,7.16,18.83,34.61,81,139.69l5.39-.57S67,318.36,52.16,300.55Z" style="fill:#37474f"></path><path d="M49.51,298.91c28.86,43.85,57.05,89,83.49,134.38C106.06,388.36,77.81,343,49.51,298.91Z" style="fill:#263238"></path><path d="M126.94,421.5l2.14-.08,4.52-.18S80.58,316,69.23,300.33h0c-1.33-1.84-2.09-2.44-2.12-1.51C66.77,307.72,126.94,421.5,126.94,421.5Z" style="fill:#455a64"></path><path d="M69.23,300.33c2.67,6.19,13.79,29.94,59.85,121.09l4.52-.18S80.58,316,69.23,300.33Z" style="fill:#37474f"></path><path d="M70.87,302.76c19.34,36.84,40.48,76,58,113.7-18-37.06-39.46-77-58-113.7Z" style="fill:#263238"></path><path d="M138.67,456.6l2.09-.47,4.43-1S74.06,361.2,60.07,347.82h0c-1.64-1.56-2.5-2-2.36-1.1C59,355.53,138.67,456.6,138.67,456.6Z" style="fill:#455a64"></path><path d="M60.07,347.82c3.74,5.6,19,26.95,80.69,108.31l4.43-1S74.06,361.2,60.07,347.82Z" style="fill:#37474f"></path><path d="M62.36,350.17c15.84,20.41,34.13,44.77,50.27,64.64,10,12.27,20.16,26.46,29.48,39.32-5.84-7.81-13.84-18.58-19.67-26.2-6.54-8.75-13.72-17-20.41-25.61-13-16.73-27-35.14-39.67-52.15Z" style="fill:#263238"></path><path d="M90.77,303c-.86.63-8.83-12.17-16.38-24.29h0C68.31,269,62.51,259.7,60.92,258.23c-3.57-3.32-4.86-11.5-5-15.4s2.73-13.47,5.49-14.39,11.69,5.14,19.84,14.11c2.1,2.31,4,7.25,5.62,13.37C91.51,273.54,93.67,300.88,90.77,303Z" style="fill:#DB5E68"></path><path d="M90.77,303c-.86.63-8.83-12.17-16.38-24.29h0C68.31,269,62.51,259.7,60.92,258.23c-3.57-3.32-4.86-11.5-5-15.4s2.73-13.47,5.49-14.39,11.69,5.14,19.84,14.11c2.1,2.31,4,7.25,5.62,13.37C91.51,273.54,93.67,300.88,90.77,303Z" style="opacity:0.15"></path><path d="M90.77,303C89,304,75.86,279.16,76.36,277.6s5.37,9.92,6,9.69-6.41-20.24-5.55-21.76,5.32,15.31,6,14.92-1.67-13.44-1-13.68,5,16.39,5.62,16.37-1.42-13.78-.48-14.35S93.82,301.36,90.77,303Z" style="opacity:0.1"></path><path d="M112.28,263.25c-6.23,21.87-12.86,13.6-15.45,25.45s-.52,16.2-3.84,17.39-10.37-15-13.25-32h0a79.67,79.67,0,0,1-1.19-17.71c1.31-21,12.15-31.45,19.76-31.08,6,.3,15.06,10.1,15.63,24.91A41.91,41.91,0,0,1,112.28,263.25Z" style="fill:#DB5E68"></path><path d="M112.28,263.25c-6.23,21.87-12.86,13.6-15.45,25.45s-.52,16.2-3.84,17.39-10.37-15-13.25-32h0a79.67,79.67,0,0,1-1.19-17.71c1.31-21,12.15-31.45,19.76-31.08,6,.3,15.06,10.1,15.63,24.91A41.91,41.91,0,0,1,112.28,263.25Z" style="fill:#DB5E68"></path><path d="M112.28,263.25c-6.23,21.87-12.86,13.6-15.45,25.45s-.52,16.2-3.84,17.39-10.37-15-13.25-32h0a79.67,79.67,0,0,1-1.19-17.71c1.31-21,12.15-31.45,19.76-31.08,6,.3,15.06,10.1,15.63,24.91A41.91,41.91,0,0,1,112.28,263.25Z" style="opacity:0.1"></path><path d="M112.66,241.94h0c-3.62-4.92-10.33-11.86-19.17-9.85-9.71,2.21-14.07,21-15,25.72,0-.49,0-1,.06-1.45,1.31-21,12.15-31.45,19.76-31.08C103.09,225.51,109.86,231.83,112.66,241.94Z" style="fill:#fff;opacity:0.2"></path><path d="M93,306.09c-5-.41-11.95-27.81-10.84-29.42.66-1,2.24,10.58,3.49,10.7s-1.1-22.77-.2-22.59,2,15.49,2.47,15.54.64-10.2,1.63-10.46S91.15,291,91.68,291s1.93-17,2.61-17-.41,10.33,0,10.37,3.66-15.79,4.58-15.82c.47,0-.69,8.58-2.64,19.69C94.64,297.59,95.33,306.27,93,306.09Z" style="opacity:0.1"></path><path d="M127.32,267.72c-4.75,4.54-10.46,6.93-15.58,9.49h0a33.49,33.49,0,0,0-8.26,5.36l-.06.05A9.12,9.12,0,0,0,102,284.5v0a15,15,0,0,0-.79,1.5,0,0,0,0,0,0,0c-4.29,9.14-5.63,28.75-6.75,28.83l-1.4-.13s1.5-13,3-24c0-.11,0-.22,0-.33s0-.39.08-.59c0,0,0-.08,0-.11.52-3.72,1-7.13,1.48-9.63a15.45,15.45,0,0,1,1-3.26h0c2.64-6.21,9.25-12.21,15.18-17.2,2.5-2.11,4.88-4,6.8-5.72,6.82-6,15.45-10.87,16.31-12.56h0a.49.49,0,0,0,.07-.27c-.14-1.37.57-7.54,2.69.25S134.94,260.4,127.32,267.72Z" style="fill:#DB5E68"></path><path d="M127.32,267.72c-4.75,4.54-10.46,6.93-15.58,9.49h0a33.49,33.49,0,0,0-8.26,5.36,46.13,46.13,0,0,1,9.4-10c6.55-4.8,11.25-11.93,15.48-16s8.83-12,8.58-15.23h0a.49.49,0,0,0,.07-.27c-.14-1.37.57-7.54,2.69.25S134.94,260.4,127.32,267.72Z" style="fill:#DB5E68"></path><path d="M127.32,267.72c-4.75,4.54-10.46,6.93-15.58,9.49h0a33.49,33.49,0,0,0-8.26,5.36,46.13,46.13,0,0,1,9.4-10c6.55-4.8,11.25-11.93,15.48-16s8.83-12,8.58-15.23h0a.49.49,0,0,0,.07-.27c-.14-1.37.57-7.54,2.69.25S134.94,260.4,127.32,267.72Z" style="opacity:0.1"></path><path d="M104.44,279c.33.4,4.56-4.4,4.86-4.31s-6.16,7.46-7.33,9.79v0a15,15,0,0,0-.79,1.5,0,0,0,0,0,0,0c-4.29,9.14-5.63,28.75-6.75,28.83l-1.4-.13s1.5-13,3-24c0-.11,0-.22,0-.33s0-.4.08-.59,0-.08,0-.11c.8-6,.66-9.54,2.48-12.89h0c1.91-3.53,4.34-6.5,4.76-6.46s-2,3-1.83,3.3,6.89-8.45,7.56-8.39-3.78,5.88-3.51,6.21,8.35-8.28,8.75-8.05-9,11.57-8.61,11.75,6.88-6.28,7.34-6.06S104.11,278.63,104.44,279Z" style="opacity:0.1"></path><path d="M97.22,255.41c-.26.69-2.31.24-2.53,1.2,0,.11-.07.56-.14,1.27-.55,5.74-2.41,28.71-4.33,28.53-3.44-.32-2.11-18.48-2.16-21,0-1.31.14-3.68.13-5.71a17.52,17.52,0,0,0-.12-2h0c-.12-.87-.33-1.49-.71-1.6-1.33-.42-3.9-2-3.53-2.86s1.64-.22,2-.25,1.1-2,1.5-2.09,1.25.64,1.79.56.76-1.23,1.54-1.16,1.44.72,1.83.76,1.8-.36,2.49,0a.51.51,0,0,1,.26.28c.31.6.1,1.83.57,2.09S97.48,254.71,97.22,255.41Z" style="fill:#DB5E68"></path><path d="M97.22,255.41c-.26.69-2.31.24-2.53,1.2,0,.11-.07.56-.14,1.27-.55,5.74-2.41,28.71-4.33,28.53-3.44-.32-2.11-18.48-2.16-21,0-1.31.14-3.68.13-5.71a17.52,17.52,0,0,0-.12-2h0c-.12-.87-.33-1.49-.71-1.6-1.33-.42-3.9-2-3.53-2.86s1.64-.22,2-.25,1.1-2,1.5-2.09,1.25.64,1.79.56.76-1.23,1.54-1.16,1.44.72,1.83.76,1.8-.36,2.49,0a.51.51,0,0,1,.26.28c.31.6.1,1.83.57,2.09S97.48,254.71,97.22,255.41Z" style="fill:#fff;opacity:0.30000000000000004"></path><path d="M97.22,255.41c-.26.69-2.31.24-2.53,1.2s-2.32,30-4.47,29.8c-3.44-.32-2.11-18.48-2.16-21,0-1.31.14-3.68.13-5.71.22,2.76.82,7.36,2.39,7.42,2.24.09.77-10.94,3.51-14.81a3.69,3.69,0,0,1,1.12-1c.31.6.1,1.83.57,2.09S97.48,254.71,97.22,255.41Z" style="fill:#fff;opacity:0.30000000000000004"></path><path d="M93.26,324.93c-1.42,0-8.47-25.78-11.46-32C76.9,282.69,60.94,274.17,56.55,267c-4-6.61-8.92-20.94-7.13-25.23a2.13,2.13,0,0,1,.61-.86,1.44,1.44,0,0,1,.89-.3c4.55-.05,17.86,14.81,22.27,20.31a62.82,62.82,0,0,1,4.75,7.42,188.62,188.62,0,0,1,10.62,21.77h0c2.67,6.63,4.65,13,4.85,17.51C94,320.48,94.68,324.94,93.26,324.93Z" style="fill:#DB5E68"></path><path d="M93.26,324.93c-1.42,0-8.47-25.78-11.46-32C76.9,282.69,60.94,274.17,56.55,267c-4-6.61-8.92-20.94-7.13-25.23,0,0,3.19,17,23.63,33.58,7.93,6.46,6.31-1.91,4.89-7,6.25,10.89,15,29.5,15.48,39.29C94,320.48,94.68,324.94,93.26,324.93Z" style="fill:#fff;opacity:0.2"></path><path d="M119.42,263.92a21.25,21.25,0,0,1-2.18,3.68h0c-4.27,6-11.81,11.86-15.42,17.06a13.78,13.78,0,0,0-1.55,3.53c-3.13,9.82-4.33,31.56-6.5,31.42-2.37-.15-2.88-13.9-3.11-27.79,0-1.88,0-3.7.1-5.47.12-2.38.35-4.65.64-6.81a79.34,79.34,0,0,1,4.89-18.73c2.38-5.87,13.51-19,20-18.4S122.59,256.74,119.42,263.92Z" style="fill:#DB5E68"></path><path d="M119.42,263.92a21.25,21.25,0,0,1-2.18,3.68h0c-4.27,6-11.81,11.86-15.42,17.06a13.78,13.78,0,0,0-1.55,3.53c-3.13,9.82-4.33,31.56-6.5,31.42-2.37-.15-2.88-13.9-3.11-27.79,0-1.88,0-3.7.1-5.47.12-2.38.35-4.65.64-6.81a79.34,79.34,0,0,1,4.89-18.73c2.38-5.87,13.51-19,20-18.4S122.59,256.74,119.42,263.92Z" style="fill:#fff;opacity:0.2"></path><path d="M100.27,288.19c-3.13,9.82-4.33,31.56-6.5,31.42-2.37-.15-2.88-13.9-3.11-27.79,0-1.88,0-3.7.1-5.47.44-3.32.73-5.7,1.06-6.06s-.7,10.58-.28,10.62,3.57-16.73,4.15-16.74-1.14,9.85-.5,9.91,4.33-14.14,5-14.08-3.89,17.2-3.4,17.24,3.42-9,3.92-8.95-3.67,14-3.39,14.09,2.89-8.76,3.25-8.73A35.66,35.66,0,0,1,100.27,288.19Z" style="fill:#fff;opacity:0.2"></path><path d="M90.91,318.1c-1.14,0-3.86-9.09-4.78-11.44-.33-.84-.7-1.73-1.11-2.64v0a86.79,86.79,0,0,0-7.74-13.74c-.5-.7-1-1.32-1.41-1.82a73.31,73.31,0,0,0-6.54-6.29C64.69,278,59.12,273.26,55.47,269c-5.77-6.78,2.91-14.43,6.71-15.12s14.24,7.58,18.74,10,9.89,18.78,10.28,23.89c.15,2,.23,6.81.19,12.09C91.34,308.4,91.84,318.1,90.91,318.1Z" style="fill:#DB5E68"></path><path d="M90.91,318.1c-1.14,0-3.86-9.09-4.78-11.44-.33-.84-.7-1.73-1.11-2.64v0a86.79,86.79,0,0,0-7.74-13.74c-.5-.7-1-1.32-1.41-1.82a73.31,73.31,0,0,0-6.54-6.29C64.69,278,59.12,273.26,55.47,269c-5.77-6.78,2.91-14.43,6.71-15.12s14.24,7.58,18.74,10,9.89,18.78,10.28,23.89c.15,2,.23,6.81.19,12.09C91.34,308.4,91.84,318.1,90.91,318.1Z" style="fill:#fff;opacity:0.2"></path><path d="M90.91,318.1c-1.17,0-3.86-9.09-4.78-11.44A12.93,12.93,0,0,0,85,304v0a86.79,86.79,0,0,0-7.74-13.74c.59-.63,5.36,7.45,5.83,7.46s-5-11.56-4.58-12.1,7.89,16.75,8.56,16.6-3.46-13.74-2.85-14,3.34,9.34,4,9.19-2.55-11.84-1.91-12.23,2.63,10.44,3,10.36-.46-8.1.39-7.88c.37.1,1.1,5.64,1.62,12.1C91.34,308.4,91.84,318.1,90.91,318.1Z" style="fill:#fff;opacity:0.2"></path><path d="M147,470.3h-5.12s-17.48-42.85-28.28-73.14a721.15,721.15,0,0,1-21.12-70.41c-1.85-7.51-3.79-12.65-4.15-13.77.46,1.19,7.34,3.85,7.57-.33.16,1.92-2,7.61-.85,12.26,5.75,23.51,20.57,67.47,21.49,69.82C133.88,439,147,470.3,147,470.3Z" style="fill:#455a64"></path><path d="M150.54,470.3h-8.66s-4.81-17.63-12-37.43a166.12,166.12,0,0,1-3.16-26.08c-.13-5.46.21-10.72,1.43-14.82,4.35-14.68,9-16.58,10.87-16.58s-6.62,10.87-6.17,20.66,6.22,38.41,9.87,49.41c.12.39.26.78.4,1.18C147.92,460.81,150.54,470.3,150.54,470.3Z" style="fill:#455a64"></path></g></svg>
