<svg xmlns="http://www.w3.org/2000/svg" viewBox="0 0 500 500"><g id="freepik--flower-4--inject-8"><path d="M207.93,460.08s0-.25,0-.74v-2.17c0-1.93,0-4.73,0-8.35,0-7.25.09-17.73.06-30.69s-.2-28.39-.81-45.51c-.16-4.28-.37-8.66-.58-13.14s-.49-9.05-.87-13.69c-.65-9.3-1.6-18.91-3-28.68a253.1,253.1,0,0,0-5.69-28.26c-2.33-9-5-17.61-7.91-25.67s-6.14-15.52-9.39-22.41c-.84-1.7-1.67-3.38-2.49-5s-1.71-3.21-2.53-4.78c-1.64-3.13-3.41-6-5-8.81a182.23,182.23,0,0,0-17.91-24.86c-2.28-2.81-4.27-4.81-5.54-6.23l-1.46-1.61c-.33-.36-.49-.56-.49-.56s.19.17.53.53l1.5,1.57c1.29,1.4,3.3,3.37,5.62,6.17A178.18,178.18,0,0,1,170,222c1.66,2.79,3.44,5.68,5.09,8.82.83,1.56,1.74,3.12,2.56,4.78l2.5,5c3.27,6.89,6.56,14.35,9.46,22.43s5.6,16.66,7.94,25.7A250,250,0,0,1,203.25,317c1.4,9.8,2.35,19.42,3,28.72.38,4.65.58,9.23.86,13.7s.41,8.87.56,13.15c.59,17.13.69,32.57.69,45.53s-.12,23.45-.22,30.69c0,3.62-.09,6.43-.12,8.35,0,.94,0,1.67,0,2.17S207.93,460.08,207.93,460.08Z" style="fill:#263238"></path><path d="M176,232.05c-11.92-10.17-25.28-9.57-38.27-7.42C148.8,231,161.51,236.74,176,232.05Z" style="fill:#263238"></path><path d="M207.93,407.5c-5.59-14.63-17.61-20.51-30-24.85C184.59,393.58,193,404.69,207.93,407.5Z" style="fill:#263238"></path><path d="M207.25,385c10.65-4.44,14.71-13.41,17.63-22.65C217,367.47,209,373.91,207.25,385Z" style="fill:#263238"></path><path d="M135.38,183.53l4.87-3.89a51.33,51.33,0,0,0,9.57,4.23,20.16,20.16,0,0,1,7.67,3.42c2.19,1.78,3.69,4.66,3.11,7.42-.47,2.19-2.11,3.92-3.76,5.44a65.32,65.32,0,0,1-15.41,10.5c-1.66.81-3.53,1.57-5.32,1.08a5.4,5.4,0,0,1-3.35-3.14,13.06,13.06,0,0,1-.89-4.64A47.25,47.25,0,0,1,135.38,183.53Z" style="fill:#D6AD40"></path><path d="M70.68,175.14A16,16,0,0,1,77,169.67c8.24-4.46,18.07-5.49,27.31-4s18,5.45,25.92,10.41l-1,9.47c-3.75,5-9.48,8.22-15.49,9.89s-12.32,1.9-18.56,1.77A47.21,47.21,0,0,1,82,195.5a19.44,19.44,0,0,1-10.67-7.65C68.89,184.08,68.38,179,70.68,175.14Z" style="fill:#D6AD40"></path><path d="M93.71,128c2.84-2,6.66-2.1,10.07-1.35,9.43,2.07,16.86,9.72,21.1,18.4s6.41,19.85,7.89,29.39l-11.72,5.88a116.17,116.17,0,0,1-19.09-17c-5.9-6.45-11.63-14.08-12.49-22.78C89,135.92,89.94,130.65,93.71,128Z" style="fill:#D6AD40"></path><g style="opacity:0.30000000000000004"><path d="M93.71,128c2.84-2,6.66-2.1,10.07-1.35,9.43,2.07,16.86,9.72,21.1,18.4s6.41,19.85,7.89,29.39l-5.39,4.79c-5.67-1.76-19.52-9.42-25.42-15.88s-11.63-14.08-12.49-22.78C89,135.92,89.94,130.65,93.71,128Z"></path></g><path d="M96.83,206.35a12.54,12.54,0,0,1,3.43-3.34c10.54-7.72,23-13.4,30.87-23.82l4.2,4.28a103.25,103.25,0,0,1-3.85,18.92c-1.17,3.82-2.65,7.73-5.6,10.42-3.26,3-7.91,4-12.31,3.79s-8.65-1.62-12.84-3c-1.63-.53-3.42-1.19-4.25-2.69A4.65,4.65,0,0,1,96.83,206.35Z" style="fill:#D6AD40"></path><g style="opacity:0.30000000000000004"><path d="M96.83,206.35a12.54,12.54,0,0,1,3.43-3.34c10.54-7.72,21.45-14,29.33-24.39l5.74,4.85a103.25,103.25,0,0,1-3.85,18.92c-1.17,3.82-2.65,7.73-5.6,10.42-3.26,3-7.91,4-12.31,3.79s-8.65-1.62-12.84-3c-1.63-.53-3.42-1.19-4.25-2.69A4.65,4.65,0,0,1,96.83,206.35Z"></path></g><path d="M139.25,180.28c8.88,5.08,21.05,3.4,29.29-2.66a27.23,27.23,0,0,0,10.23-27.15c-.47-2.13-1.39-4.42-3.37-5.34-2.77-1.29-5.89.76-8.11,2.87-9.66,9.21-18.06,20-29.27,27.23" style="fill:#D6AD40"></path><g style="opacity:0.30000000000000004"><path d="M139.25,180.28c8.88,5.08,21.05,3.4,29.29-2.66a27.23,27.23,0,0,0,10.23-27.15c-.47-2.13-1.39-4.42-3.37-5.34-2.77-1.29-5.89.76-8.11,2.87-9.66,9.21-18.06,20-29.27,27.23"></path></g><path d="M130.48,133.34c.29-4.16.88-8.42,3.09-12.08s6.37-6.61,11-6.54a14.51,14.51,0,0,1,8.92,3.73c6.47,5.45,8.94,14,7.88,22s-5.26,15.3-10.44,21.78a86.67,86.67,0,0,1-12.89,13l-5.67.25A191.84,191.84,0,0,1,130.48,133.34Z" style="fill:#D6AD40"></path><path d="M130.64,162a22.08,22.08,0,0,1,.59,10.34c-.16,0,0-2.33-.2-5.17S130.49,162.07,130.64,162Z" style="fill:#263238"></path><path d="M134.27,187.35a9.42,9.42,0,0,1,0,2.44,46.65,46.65,0,0,1-.72,5.83,48.31,48.31,0,0,1-1.41,5.7,10.34,10.34,0,0,1-.88,2.27,12.57,12.57,0,0,1,.52-2.37c.37-1.45.84-3.46,1.26-5.7s.69-4.28.87-5.77A14.83,14.83,0,0,1,134.27,187.35Z" style="fill:#263238"></path><path d="M107.34,198.27c0-.07,1.16-.76,3-2a73.73,73.73,0,0,0,7-5.13,72,72,0,0,0,6.37-5.93c1.55-1.61,2.46-2.65,2.52-2.6a3.55,3.55,0,0,1-.55.81c-.38.5-.95,1.2-1.69,2a56.27,56.27,0,0,1-13.48,11.12c-1,.57-1.77,1-2.33,1.28A3,3,0,0,1,107.34,198.27Z" style="fill:#263238"></path><path d="M140.66,180.82a16.46,16.46,0,0,1,5.06,1.15,16.27,16.27,0,0,1,4.68,2.24c-.07.14-2.17-.82-4.85-1.75S140.63,181,140.66,180.82Z" style="fill:#263238"></path><path d="M142.57,152.06a14.46,14.46,0,0,1-.19,3.08,47.6,47.6,0,0,1-4.16,14.27,14.11,14.11,0,0,1-1.5,2.71,25.46,25.46,0,0,1,1.16-2.86,66.12,66.12,0,0,0,2.48-7,68.09,68.09,0,0,0,1.65-7.2A26,26,0,0,1,142.57,152.06Z" style="fill:#263238"></path><path d="M114.16,154.13a3.89,3.89,0,0,1,.75.68c.47.46,1.11,1.14,1.89,2,1.56,1.73,3.62,4.21,5.72,7.08a88.82,88.82,0,0,1,5,7.62c.59,1,1,1.83,1.34,2.41a3.14,3.14,0,0,1,.41.93,37.6,37.6,0,0,1-2.06-3.15c-1.25-2-3-4.64-5.09-7.5s-4.1-5.37-5.58-7.15A34.41,34.41,0,0,1,114.16,154.13Z" style="fill:#263238"></path><path d="M102,180.23a3.93,3.93,0,0,1,1-.16c.62-.07,1.52-.15,2.63-.23,2.23-.15,5.31-.29,8.71-.3s6.48.12,8.71.27c1.11.07,2,.14,2.63.21a3.93,3.93,0,0,1,1,.16,25.64,25.64,0,0,1-3.61,0c-2.22,0-5.3-.11-8.69-.1s-6.47.08-8.69.14A26.87,26.87,0,0,1,102,180.23Z" style="fill:#263238"></path><path d="M119.8,203.22a31.79,31.79,0,0,1,1.66-2.73,57.77,57.77,0,0,0,6.27-14,29.31,29.31,0,0,1,.94-3,2.65,2.65,0,0,1-.09.86c-.08.55-.25,1.33-.49,2.29a45,45,0,0,1-6.32,14.08c-.56.82-1,1.47-1.38,1.9S119.83,203.24,119.8,203.22Z" style="fill:#263238"></path><path d="M146.78,198a23.6,23.6,0,0,1-1-2.53,42.07,42.07,0,0,0-6.52-11.26,22.45,22.45,0,0,1-1.69-2.13,10.26,10.26,0,0,1,2,1.89,33.17,33.17,0,0,1,3.87,5.36,32.64,32.64,0,0,1,2.72,6A10.73,10.73,0,0,1,146.78,198Z" style="fill:#263238"></path><path d="M156.62,167.17a14.29,14.29,0,0,1-2.19,2.15,44.63,44.63,0,0,1-6,4.37,45.55,45.55,0,0,1-6.62,3.34,13.88,13.88,0,0,1-2.92,1,22.41,22.41,0,0,1,2.77-1.3,67,67,0,0,0,6.5-3.45,64.35,64.35,0,0,0,6-4.21A24.82,24.82,0,0,1,156.62,167.17Z" style="fill:#263238"></path><circle cx="133.25" cy="179.43" r="7.93" style="fill:#fff"></circle><path d="M103.35,164.42a35.24,35.24,0,0,1,3.15,2.23c1.92,1.4,4.6,3.29,7.64,5.26s5.88,3.61,8,4.77a34.88,34.88,0,0,1,3.33,1.94,4,4,0,0,1-1-.37c-.61-.28-1.48-.7-2.54-1.24-2.12-1.09-5-2.7-8.06-4.67s-5.72-3.92-7.59-5.4c-.93-.74-1.67-1.35-2.17-1.79A4.14,4.14,0,0,1,103.35,164.42Z" style="fill:#263238"></path><path d="M201.6,306.5c11.57-7.77,14.27-19.36,15.55-31C209,283.48,201.05,293,201.6,306.5Z" style="fill:#263238"></path><path d="M167.4,218.85c10.48-9.19,11.67-21,11.45-32.73C171.8,195.07,165.13,205.53,167.4,218.85Z" style="fill:#263238"></path><path d="M136.15,254.93c-3.59-8.58-18.76-12.17-26-11.45-1.67.17-3.91,1.65-5.37,2.48a6.37,6.37,0,0,0-3.07,3.8c-.53,2.1.34,4.31,1.51,6.13,3.67,5.67,14.25,12.76,36.24,9.07Z" style="fill:#D6AD40"></path><path d="M131.82,229.33a16.71,16.71,0,0,0-9.11-3.82c-3.34-.17-6.89,1.29-8.59,4.18a9.43,9.43,0,0,0,.15,9c1.45,2.77,14.89,20.66,17.55,22.29l13.46-13.59C141.62,240.75,137.8,233.94,131.82,229.33Z" style="fill:#D6AD40"></path><path d="M130.46,237.58c-3-.73-6.58-.93-8.73,1.27a8.09,8.09,0,0,0-1.89,5.24,12.9,12.9,0,0,0,1.65,7.64c1.63,2.62,4.4,4.29,7.2,5.59A49,49,0,0,0,152,261.86l4.28-2.47A38.41,38.41,0,0,0,130.46,237.58Z" style="fill:#D6AD40"></path><path d="M147.94,256.13c-5.14.27-14.22-.32-19.31.45-4.19.64-9.48,2.8-14.73,6-1.28.79-3.21,3.17-4.28,4.22a5.85,5.85,0,0,0-1.25,4.63c.33,2.3,2.67,3.75,4.9,4.43,6.71,2,14-.07,20.25-3.29s11.87-7.53,18.29-10.36Z" style="fill:#D6AD40"></path><path d="M148,239.53a7.36,7.36,0,0,0-3.74-3.36c-2.45-.74-5.16,1.05-6.08,3.44a9.86,9.86,0,0,0,.63,7.46,21.62,21.62,0,0,0,9.3,9.76c4,2.25,7.91,3,12.43,3.65C153.91,255.07,152.78,247.08,148,239.53Z" style="fill:#263238"></path><path d="M148.1,256.88a20.48,20.48,0,0,0-11.25.08c-6.36,2.09-10.65,8.08-13.25,14.24a9.28,9.28,0,0,0-.9,3.39,3.53,3.53,0,0,0,1.47,3.05c1.51.93,3.47.14,5-.76,5-3,9.38-6.21,14.29-9.4s11.14-6.44,17-7C157,258.9,151.79,257.79,148.1,256.88Z" style="fill:#263238"></path><path d="M139.48,256.58c0,.05-.77,0-2.16,0a44.28,44.28,0,0,0-5.86.3,45.87,45.87,0,0,0-8.5,1.79,32.07,32.07,0,0,0-9.47,4.67,16.39,16.39,0,0,0-3.8,3.87,5.62,5.62,0,0,0-.81,4.72,6.86,6.86,0,0,0,2.76,3.47,8.74,8.74,0,0,0,3.69,1.39,20,20,0,0,0,5.82-.21l1.58-.25a3.93,3.93,0,0,1,.56-.06,1.83,1.83,0,0,1-.54.17c-.35.08-.88.21-1.56.34a18.55,18.55,0,0,1-5.91.37,9,9,0,0,1-3.88-1.39,7.21,7.21,0,0,1-3-3.69,5.45,5.45,0,0,1-.18-2.61,7,7,0,0,1,1-2.52,16.93,16.93,0,0,1,3.91-4,32.23,32.23,0,0,1,9.65-4.71,43.88,43.88,0,0,1,8.6-1.7,37.41,37.41,0,0,1,5.91-.13c.7,0,1.23.11,1.6.15A2.08,2.08,0,0,1,139.48,256.58Z" style="fill:#263238"></path><path d="M138.32,240.22a11.39,11.39,0,0,1-1.4-.6,41,41,0,0,0-3.86-1.51,22.24,22.24,0,0,0-6-1.26,6.85,6.85,0,0,0-3.4.74,7.26,7.26,0,0,0-2.73,2.56,9,9,0,0,0-.93,7.09,13.71,13.71,0,0,0,2.83,5.32,23.4,23.4,0,0,0,2.94,2.9,12.51,12.51,0,0,1,1.16,1,6.47,6.47,0,0,1-1.29-.84,20.21,20.21,0,0,1-3.09-2.82,13.66,13.66,0,0,1-3-5.44,9.31,9.31,0,0,1,1-7.49,7.66,7.66,0,0,1,2.93-2.73,7.17,7.17,0,0,1,3.65-.77,14.51,14.51,0,0,1,3.3.53c1,.27,1.93.57,2.77.86a32.78,32.78,0,0,1,3.83,1.67A6.58,6.58,0,0,1,138.32,240.22Z" style="fill:#263238"></path><path d="M119.8,245.46c0,.09-1.06-.51-2.86-1a15,15,0,0,0-13.72,2.74,8.91,8.91,0,0,0-1.89,2.33,1.87,1.87,0,0,1,.26-.8,6.26,6.26,0,0,1,1.38-1.81,14.3,14.3,0,0,1,14.08-2.81,11.93,11.93,0,0,1,2.07.91C119.58,245.26,119.82,245.43,119.8,245.46Z" style="fill:#263238"></path><path d="M198,290.87a2.43,2.43,0,0,1-.31-.52c-.21-.39-.47-.9-.79-1.52-.18-.34-.36-.71-.57-1.11s-.48-.81-.75-1.27c-.55-.9-1.12-2-1.91-3l-1.2-1.72c-.41-.59-.91-1.16-1.39-1.78-.94-1.25-2.11-2.46-3.29-3.76a61.69,61.69,0,0,0-8.73-7.38,60.45,60.45,0,0,0-10-5.44c-1.64-.63-3.18-1.28-4.7-1.7-.74-.22-1.46-.48-2.16-.65l-2-.48c-1.29-.35-2.48-.49-3.53-.68-.52-.09-1-.18-1.45-.24l-1.24-.12-1.71-.19a2.57,2.57,0,0,1-.59-.1,2.26,2.26,0,0,1,.6,0l1.72.09,1.24.07c.46.05,1,.13,1.48.2a34.61,34.61,0,0,1,3.56.61l2.06.45c.71.17,1.43.41,2.19.63,1.53.41,3.09,1,4.76,1.66a60.37,60.37,0,0,1,10.16,5.46,59.71,59.71,0,0,1,8.78,7.48c1.18,1.32,2.34,2.55,3.28,3.82.47.63,1,1.21,1.38,1.82s.8,1.19,1.17,1.75a34.24,34.24,0,0,1,1.86,3.1c.26.46.52.89.72,1.3l.53,1.13c.29.64.52,1.16.71,1.57A2.75,2.75,0,0,1,198,290.87Z" style="fill:#263238"></path><path d="M218.49,437.77c2.88-7.52,3.84-16.08.94-23.59a67,67,0,0,0-11.71,44.91A97.45,97.45,0,0,0,218.49,437.77Z" style="fill:#455a64"></path></g></svg>
