<svg xmlns="http://www.w3.org/2000/svg" viewBox="0 0 500 500"><g id="freepik--Leaves--inject-3"><path d="M377.29,317.08c15.38-8.13,33.58-11.7,50.91-11.32a84.33,84.33,0,0,1,14,1.42c.94.18,1.35-1.27.4-1.45-17.37-3.32-36.11-1.21-52.78,4.41a89.88,89.88,0,0,0-13.29,5.65c-.85.45-.1,1.75.76,1.29Z" style="fill:#263238"></path><path d="M403.51,307.54c6.62-3.73,13.56-6.92,20.89-8.35s15.09-1,21.89,2.33c1.81.88,3.79,2.38,3.74,4.55a4,4,0,0,1-2.74,3.53,9.76,9.76,0,0,1-4.47.18c-12.2-1.51-24.42-4.88-36.6-3.17" style="fill:#263238"></path><path d="M382.41,297a85.73,85.73,0,0,1,20.8-19.41,108.48,108.48,0,0,1,26.2-13.14A81.4,81.4,0,0,1,444,260.89c1-.14.54-1.58-.4-1.45a92.09,92.09,0,0,0-26.95,8.63,107.25,107.25,0,0,0-24.75,16.41,78.24,78.24,0,0,0-10.82,11.75c-.57.78.73,1.52,1.3.76Z" style="fill:#263238"></path><path d="M404.69,278.09a62.74,62.74,0,0,1,21.81-31,18.46,18.46,0,0,1,3.73-2.24c2.8-1.18,5.6,1.7,4.61,4.79a10.42,10.42,0,0,1-2.23,3.83c-2.15,2.37-5,3.74-7.74,5.29a62.08,62.08,0,0,0-20,18.46" style="fill:#263238"></path><path d="M403,278.53l34.88,11.55a9.12,9.12,0,0,0,4.28.7,3.54,3.54,0,0,0,3-2.94c.16-1.71-1.13-3.15-2.44-4.1a26.25,26.25,0,0,0-9.5-3.93,81.91,81.91,0,0,0-29.63-1.69" style="fill:#263238"></path><path d="M462.63,256.62a4.67,4.67,0,0,0-2.76-3.29,10.17,10.17,0,0,0-4.2-.64c-14.36.12-27.82,7.5-39.82,16.11L412.74,272c13.69-7.31,30.43-3.14,44.74-8.88a10.21,10.21,0,0,0,3.72-2.26A5,5,0,0,0,462.63,256.62Z" style="fill:#263238"></path><path d="M385.75,284.48A119.25,119.25,0,0,0,377,258.72a147.39,147.39,0,0,0-13.74-23.88,94.17,94.17,0,0,0-8.3-10.17c-.67-.7-1.73.36-1.06,1.06a107.62,107.62,0,0,1,14.48,19.77,147.58,147.58,0,0,1,11.92,25.19,104.32,104.32,0,0,1,4,14.19c.19.95,1.64.55,1.45-.4Z" style="fill:#263238"></path><path d="M339.18,438.68c2.26-5.61,4.28-11.32,6.25-17,2.64-7.7,5.16-15.44,7.62-23.2q4.38-13.85,8.54-27.76,4.61-15.36,9-30.77,4.61-16.07,9-32.19t8.56-32q3.93-15.13,7.65-30.32c2.18-9,4.3-18,6.28-27,1.61-7.35,3.14-14.72,4.45-22.13.92-5.23,1.79-10.49,2.19-15.78.07-.9.12-1.81.14-2.71a.75.75,0,0,0-1.5,0,102.85,102.85,0,0,1-1.56,13.89c-1.13,6.94-2.5,13.83-3.95,20.7-1.85,8.7-3.84,17.37-5.9,26q-3.56,14.88-7.37,29.69-4.06,15.84-8.35,31.62-4.37,16.17-8.94,32.3-4.43,15.65-9.05,31.24-4.23,14.28-8.65,28.49c-2.55,8.18-5.16,16.33-7.89,24.45-2.09,6.23-4.24,12.45-6.59,18.6-.45,1.18-.91,2.37-1.38,3.54-.36.9,1.09,1.29,1.44.4Z" style="fill:#263238"></path><path d="M393.83,253.09A177,177,0,0,0,437,222.68a142.57,142.57,0,0,0,10.24-10.76c.63-.73-.43-1.79-1.06-1.06a171.16,171.16,0,0,1-40.58,34q-6.1,3.74-12.51,6.93c-.87.43-.11,1.72.76,1.29Z" style="fill:#263238"></path><path d="M482.13,235.77a5,5,0,0,0-2.82-4.46,12.37,12.37,0,0,0-5.15-1l-46.06-2.08,1.09.25a77.78,77.78,0,0,0,45.72,12.08,11.16,11.16,0,0,0,4.53-1A4.85,4.85,0,0,0,482.13,235.77Z" style="fill:#263238"></path><path d="M434.68,225.38c12.26-8.95,24.62-20,32.78-37.7,1.05-2.28,1.52-5.61,0-7.5a3.5,3.5,0,0,0-4.39-.48,10.86,10.86,0,0,0-3.33,3.62C450.6,197,441.54,210,434.45,225" style="fill:#263238"></path><path d="M431,208.74a14,14,0,0,0,1-5.43c-.13-1.86-1.15-3.77-2.79-4.29a4,4,0,0,0-3.89,1.2,11.2,11.2,0,0,0-2.29,3.83c-4.38,10.66-4.13,22.9-7.32,34.06l-1.29,3.08A123.66,123.66,0,0,0,431,208.74Z" style="fill:#263238"></path><path d="M368.11,344.48a165.69,165.69,0,0,1-31-39.17q-3.6-6.29-6.66-12.84c-.41-.87-1.7-.11-1.29.76A170.75,170.75,0,0,0,357,335.36q4.8,5.31,10.06,10.18c.7.66,1.77-.4,1.06-1.06Z" style="fill:#263238"></path><path d="M289.62,305.09a4.68,4.68,0,0,1,3.83-3.44,12.36,12.36,0,0,1,5.2.6l44.81,11.85-1.11-.1a76.56,76.56,0,0,1-47-2.12,11.62,11.62,0,0,1-4.12-2.29A5.1,5.1,0,0,1,289.62,305.09Z" style="fill:#263238"></path><path d="M337.79,309.9c-9.54-12.28-18.63-26.65-22-46.09-.44-2.51,0-5.85,1.94-7.19,1.34-.91,3.19-.34,4.34.85a11.68,11.68,0,0,1,2.28,4.48c5.31,15.86,10.73,31.15,13.76,47.7" style="fill:#263238"></path><path d="M345.56,295a14.25,14.25,0,0,1,.4-5.53c.6-1.74,2.05-3.27,3.76-3.28a4.21,4.21,0,0,1,3.44,2.32,11.78,11.78,0,0,1,1.24,4.37c1.52,11.57-1.8,23.26-1.55,34.94l.47,3.35A129.58,129.58,0,0,1,345.56,295Z" style="fill:#263238"></path><path d="M430.83,177.8c.22-1.53.05-3.32-1.07-4.26-1.82-1.53-4.38.29-6,2.08A101.07,101.07,0,0,0,404,209.11l-.17,2.21a111.37,111.37,0,0,0,22.83-24.38C428.51,184.19,430.35,181.21,430.83,177.8Z" style="fill:#263238"></path><path d="M409.08,185.58c2.19-11.74,3.18-23.93,1.06-35.68a19.17,19.17,0,0,0-2-6.23,6.89,6.89,0,0,0-4.83-3.64c-2.92-.36-5.66,2.12-6.74,5.1s-.85,6.33-.35,9.49c1.88,12,7.21,23.08,12.58,33.8" style="fill:#263238"></path><path d="M399.26,222.36a123.25,123.25,0,0,0-16.72-25.93,10.27,10.27,0,0,0-2.72-2.51,3.38,3.38,0,0,0-3.43-.11,4.21,4.21,0,0,0-1.45,4.21,11.24,11.24,0,0,0,2,4.23,80.3,80.3,0,0,0,23,22.49" style="fill:#263238"></path><path d="M374.14,251.41a85.37,85.37,0,0,0,3.13-33.07,9.24,9.24,0,0,0-1-4,2.82,2.82,0,0,0-3.25-1.47c-1.43.58-1.87,2.52-2.05,4.18a79.84,79.84,0,0,0,3.34,32.78" style="fill:#263238"></path><path d="M362.44,232.29c-7.21-14.95-22.8-24.57-38.25-23.62-2.17.13-4.8.87-5.36,3.17s1.46,4.41,3.36,5.63c11.68,7.42,27.43,6,37.51,15.79" style="fill:#263238"></path><path d="M372.59,250.68a35.79,35.79,0,0,0-40.93,4.51c-1.93,1.71-3.87,4.43-2.79,6.88a4.07,4.07,0,0,0,3.5,2.26,11.45,11.45,0,0,0,4.18-.8l37.38-12.25" style="fill:#263238"></path><path d="M354.63,393.14a110,110,0,0,1,18.68-17.66,123.54,123.54,0,0,1,21.56-13.2,75.16,75.16,0,0,1,11.62-4.43.75.75,0,0,0-.4-1.45A90.33,90.33,0,0,0,384.82,366,129.51,129.51,0,0,0,363.6,381.6a100.29,100.29,0,0,0-10,10.48c-.61.74.45,1.81,1.06,1.06Z" style="fill:#263238"></path><path d="M378,370.69a82.53,82.53,0,0,1,12.1-30.51,8.38,8.38,0,0,1,2.65-2.91,2.74,2.74,0,0,1,3.49.46c1,1.27.5,3.2-.08,4.74-3.91,10.24-10.53,20.9-18.16,28.22" style="fill:#263238"></path><path d="M438.58,359.92c-13.05-9.1-31.84-8.2-44.83,1l2,1c13.19-3.17,27.15,7,40.66,6.73,2.2,0,4.89-.77,5.45-3.1S440.41,361.2,438.58,359.92Z" style="fill:#263238"></path><path d="M379,369.61c14.5.51,28.3,11.09,33.66,25.82.92,2.52,1.39,5.93-.65,7.49a3.81,3.81,0,0,1-4.07.1,12.64,12.64,0,0,1-3.28-2.93c-9-10.23-17.63-19.18-26.67-29.4" style="fill:#263238"></path><path d="M397,310.49a122.32,122.32,0,0,1,30.45,21.89c1.08,1.06,2.28,2.2,3.73,2.22,2.08,0,3.61-2.47,3.47-4.74A10.22,10.22,0,0,0,431.8,324a37.51,37.51,0,0,0-16.49-10.51c-6.14-2.09-12.55-3-18.93-4" style="fill:#263238"></path></g></svg>
