<svg xmlns="http://www.w3.org/2000/svg" viewBox="0 0 500 500"><g id="freepik--flower-1--inject-19"><path d="M305.56,310.06c3.84-1.43,5.25-6.06,8.05-9.06s7.38-4.4,11.65-4.34,8.42,1.28,12.51,2.5c-4.87,4.2-10.13,8.58-16.5,9.45-2.83.38-5.71,0-8.56.13s-5.86.68-8,2.61" style="fill:#455a64"></path><path d="M329.63,300.55a14.8,14.8,0,0,1-1.56.24,33.2,33.2,0,0,0-4.19.87,67.91,67.91,0,0,0-13,5.44,28.08,28.08,0,0,0-6.39,4.34c-1.75,1.61-3.17,3.25-4.45,4.54a29.49,29.49,0,0,1-3.2,2.91c-.4.3-.73.53-1,.67s-.35.21-.36.19a13.91,13.91,0,0,1,1.2-1,38.6,38.6,0,0,0,3.05-3c1.24-1.32,2.63-3,4.39-4.65a27.71,27.71,0,0,1,6.48-4.44,60.61,60.61,0,0,1,13.17-5.33,26.58,26.58,0,0,1,4.26-.72c.51,0,.9-.06,1.17-.06S329.63,300.53,329.63,300.55Z" style="fill:#263238"></path><path d="M355.34,236.91c-2,.61-3.41,2.24-4.74,3.81-16.81,19.68-33.69,39.46-47.16,61.56S278.56,357.19,276.76,383l12.48,32.93c-2.82-28.94-7.18-55.51,2.5-82.92,5.48-15.49,14.67-29.36,24.27-42.69,13.18-18.32,27.39-36,44.24-51C359.89,237.25,357.3,236.3,355.34,236.91Z" style="fill:#263238"></path><path d="M399.21,266.72c1.89-4.05-.23-8.78-2.58-12.59A95.21,95.21,0,0,0,366.91,224l-.52-4.77c-2.67-5.13-19.92-11.24-25-8.45s-7.76,8.81-7.76,14.6,2.33,11.33,5.3,16.29c2.71,4.51,6.09,8.77,10.58,11.54s10.21,3.86,15.11,1.93a26.1,26.1,0,0,0,23.45,16.91C392.43,272.14,397.36,270.66,399.21,266.72Z" style="fill:#8FADEC"></path><path d="M399.21,266.72s-.11.25-.35.72a8.25,8.25,0,0,1-1.47,1.8,13.08,13.08,0,0,1-8.23,2.92,24.84,24.84,0,0,1-13.24-3.46,26.77,26.77,0,0,1-6.62-5.37,25.61,25.61,0,0,1-4.87-8.12l.28.13a16.67,16.67,0,0,1-12.32-.42,25.91,25.91,0,0,1-10.5-8.47A49.72,49.72,0,0,1,338,240.5a42.13,42.13,0,0,1-3.07-6.67,26.89,26.89,0,0,1-1.49-7.38,19.64,19.64,0,0,1,1.12-7.61,15.38,15.38,0,0,1,6.19-8,5.8,5.8,0,0,1,2.39-.93,13.24,13.24,0,0,1,2.51-.12,26.76,26.76,0,0,1,4.84.69,43.74,43.74,0,0,1,8.94,3.12,29.51,29.51,0,0,1,4,2.27,10.18,10.18,0,0,1,3.2,3.2l0,0v0c.18,1.62.35,3.21.53,4.77l-.11-.17a95.41,95.41,0,0,1,17.58,14.51,94,94,0,0,1,11,13.92A37.43,37.43,0,0,1,398.8,258a14.75,14.75,0,0,1,1.2,4.75,8,8,0,0,1-.39,3,5.75,5.75,0,0,1-.4,1s.13-.34.33-1a8.28,8.28,0,0,0,.31-3,14.53,14.53,0,0,0-1.25-4.66,37.93,37.93,0,0,0-3.25-5.7,96,96,0,0,0-28.56-28.19l-.1-.06V224c-.17-1.56-.35-3.15-.53-4.76l0,.08a9.64,9.64,0,0,0-3.05-3,27.91,27.91,0,0,0-3.93-2.23,43.55,43.55,0,0,0-8.84-3.07,26,26,0,0,0-4.75-.68,7.37,7.37,0,0,0-4.6,1,14.88,14.88,0,0,0-6,7.69,19,19,0,0,0-1.09,7.4,26.32,26.32,0,0,0,1.46,7.24,40.61,40.61,0,0,0,3,6.59,50.43,50.43,0,0,0,3.87,5.9,25.67,25.67,0,0,0,10.28,8.34,16.27,16.27,0,0,0,12,.45l.21-.08.08.21a25.27,25.27,0,0,0,4.75,8,26.76,26.76,0,0,0,6.5,5.33,24.77,24.77,0,0,0,13.06,3.52,13.09,13.09,0,0,0,8.15-2.78A8.93,8.93,0,0,0,399.21,266.72Z" style="fill:#263238"></path><path d="M366.66,245c-.08,0,.24-.93.53-2.42a20.23,20.23,0,0,0,.23-5.9,19.66,19.66,0,0,0-1.56-5.69c-.61-1.39-1.13-2.19-1.05-2.24a7.56,7.56,0,0,1,1.39,2.08,17,17,0,0,1,1.73,5.8,16.77,16.77,0,0,1-.39,6A7.18,7.18,0,0,1,366.66,245Z" style="fill:#263238"></path><path d="M384.51,205.41c.93-8.75,1.72-17.66,0-26.28s-6.34-17.07-14-21.46c-3.34-1.92-7.5-3-11-1.43-3.17,1.39-5.19,4.66-6,8s-.47,6.88-.17,10.33c-6.57-5.07-17.15-2.81-21.91,4s-3.77,16.71,1.43,23.18,32.87,21.71,41.16,21.19Z" style="fill:#8FADEC"></path><path d="M384.51,205.41a1.2,1.2,0,0,1-.15.31l-.51.89c-.47.8-1.14,1.95-2,3.44l-7.65,13,0,.07h-.08a13.15,13.15,0,0,1-3.55-.39,36,36,0,0,1-3.65-1,76.7,76.7,0,0,1-7.69-3.09,141.28,141.28,0,0,1-16.79-9.1,59.6,59.6,0,0,1-8.56-6.36,20.33,20.33,0,0,1-5.22-9.95,19.61,19.61,0,0,1,1-11.69,15.57,15.57,0,0,1,3.41-5.07,16.54,16.54,0,0,1,5.16-3.44,17.21,17.21,0,0,1,8-1.34,14.12,14.12,0,0,1,7.37,2.76l-.41.22a38.78,38.78,0,0,1-.09-8.94,13.6,13.6,0,0,1,3.64-7.8,9.05,9.05,0,0,1,3.64-2.2,10,10,0,0,1,4.13-.35,16.9,16.9,0,0,1,7.37,2.88,28.32,28.32,0,0,1,9.42,10.91A39.33,39.33,0,0,1,385,181a61.37,61.37,0,0,1,.64,10.24c0,3-.24,5.58-.42,7.67s-.37,3.71-.5,4.8c-.06.54-.11.95-.15,1.25s-.07.41-.07.41,0-.14,0-.42.06-.72.11-1.25c.09-1.11.23-2.73.4-4.8s.32-4.67.34-7.67a62.08,62.08,0,0,0-.7-10.17,39.41,39.41,0,0,0-3.78-11.8,28,28,0,0,0-9.32-10.71,16.44,16.44,0,0,0-7.17-2.79,9.74,9.74,0,0,0-3.94.34,8.6,8.6,0,0,0-3.43,2.09,13.07,13.07,0,0,0-3.49,7.52,38.44,38.44,0,0,0,.1,8.83l.05.57-.46-.35a13.63,13.63,0,0,0-7.1-2.64,16.54,16.54,0,0,0-7.76,1.3,16.07,16.07,0,0,0-5,3.33,15.26,15.26,0,0,0-3.29,4.9,19.07,19.07,0,0,0-1,11.39,19.74,19.74,0,0,0,5.06,9.7,59.53,59.53,0,0,0,8.47,6.32,143.9,143.9,0,0,0,16.7,9.13,80.89,80.89,0,0,0,7.64,3.11,33.9,33.9,0,0,0,3.62,1,12.6,12.6,0,0,0,3.45.41l-.13.08L381.69,210l2.08-3.41.54-.87Z" style="fill:#263238"></path><path d="M442.83,249.85c.76-4.66-3.33-8.7-7.49-10.93-9.82-5.25-44.45-8-54.34-2.87l.08.24c5.15,12.62,22.64,28,34.57,27.74a13.63,13.63,0,0,0,7.5-1.95c2.16-1.48,3.58-4.29,2.76-6.78,3.19,1.18,6.67,1.92,10,1.18S442.28,253.2,442.83,249.85Z" style="fill:#8FADEC"></path><g style="opacity:0.1"><path d="M442.83,249.85c.76-4.66-3.33-8.7-7.49-10.93-9.82-5.25-44.45-8-54.34-2.87l.08.24c5.15,12.62,22.64,28,34.57,27.74a13.63,13.63,0,0,0,7.5-1.95c2.16-1.48,3.58-4.29,2.76-6.78,3.19,1.18,6.67,1.92,10,1.18S442.28,253.2,442.83,249.85Z" style="fill:#fff"></path></g><path d="M442.83,249.85a5.27,5.27,0,0,1-.33,1.36,7.83,7.83,0,0,1-2.34,3.25,10.26,10.26,0,0,1-5.89,2.4,19.5,19.5,0,0,1-8.42-1.4l.23-.22a6,6,0,0,1-1.06,5.29,8.81,8.81,0,0,1-5,3.18,19.27,19.27,0,0,1-6.47.43,24.74,24.74,0,0,1-6.65-1.91,47.8,47.8,0,0,1-12.46-8.15,61.78,61.78,0,0,1-5.64-5.58c-.85-1-1.78-2-2.58-3.15l-1.23-1.65L383.8,242c-.65-.92-1.13-1.94-1.69-2.89s-.95-2-1.36-3l-.08-.21.21-.1a24.16,24.16,0,0,1,7-2,67.21,67.21,0,0,1,7-.66,121,121,0,0,1,13.13.16,111.57,111.57,0,0,1,21.81,3.32,23.64,23.64,0,0,1,7.7,3.4,14.6,14.6,0,0,1,4.36,4.58,7.79,7.79,0,0,1,1.12,3.81,5.59,5.59,0,0,1-.06,1,1.68,1.68,0,0,1-.06.35,1.39,1.39,0,0,1,0-.36,5.45,5.45,0,0,0,0-1,8,8,0,0,0-1.18-3.73,14.78,14.78,0,0,0-4.36-4.44,23.34,23.34,0,0,0-7.64-3.29,112.78,112.78,0,0,0-21.73-3.2,126,126,0,0,0-13.09-.12,69,69,0,0,0-6.91.67,23.69,23.69,0,0,0-6.82,1.92l.12-.32c.39.94.84,1.91,1.33,2.88s1,1.94,1.67,2.85l1.13,1.71c.4.55.81,1.09,1.22,1.63.78,1.11,1.71,2.09,2.55,3.13a63.35,63.35,0,0,0,5.58,5.54A47.84,47.84,0,0,0,407,261.8a24.33,24.33,0,0,0,6.51,1.89,18.92,18.92,0,0,0,6.32-.39,8.36,8.36,0,0,0,4.84-3,5.61,5.61,0,0,0,1-4.94l-.12-.35.35.13a19.41,19.41,0,0,0,8.26,1.46,10.24,10.24,0,0,0,5.8-2.27,8.06,8.06,0,0,0,2.37-3.15C442.74,250.32,442.79,249.84,442.83,249.85Z" style="fill:#263238"></path><path d="M442.92,217.9c.6-4.59-3.3-8.42-6.85-11.4,6.61-3,9.08-11.95,6.45-18.73s-9.21-11.42-16.16-13.57c-1.11-5.19-4.9-9.54-9.47-12.23-6.46-3.81-15.05-4.44-21.37-.41s-9.3,13.12-5.53,19.6l-7.21,54.6c31.39,4.79,45.49-4.64,53.59-9.79C439.39,224.05,442.45,221.45,442.92,217.9Z" style="fill:#8FADEC"></path><path d="M442.92,217.9s0,.11,0,.32a5.92,5.92,0,0,1-.2.9,8.7,8.7,0,0,1-1.75,3.15A18.84,18.84,0,0,1,436.5,226c-1.92,1.24-4.12,2.66-6.7,4.06a58.66,58.66,0,0,1-8.88,3.88,60.17,60.17,0,0,1-11.09,2.58c-8.05,1.2-17.27.88-27.08-.54l-.23,0,0-.23C384.62,220,387,202,389.49,183q.12-.93.24-1.83l0,.17a14,14,0,0,1-1.46-4,15.76,15.76,0,0,1-.14-4.17,17.78,17.78,0,0,1,1-4,17.06,17.06,0,0,1,1.93-3.6,15.3,15.3,0,0,1,6.09-5.15,18.8,18.8,0,0,1,7.57-1.8,23.18,23.18,0,0,1,14.06,4.35,19.22,19.22,0,0,1,7.78,11.23l-.15-.17a28.87,28.87,0,0,1,11.44,6.59,18.55,18.55,0,0,1,5.64,10.24,16.47,16.47,0,0,1-1.52,10,14.45,14.45,0,0,1-2.6,3.59,13.24,13.24,0,0,1-3.27,2.24l0-.2a32.83,32.83,0,0,1,4.27,4.2,12.7,12.7,0,0,1,2.17,3.77A8,8,0,0,1,443,217c0,.6-.09.89-.09.89a8.31,8.31,0,0,0-.45-3.47,12.18,12.18,0,0,0-2.2-3.7,31.62,31.62,0,0,0-4.28-4.14l-.14-.12.17-.08a12.55,12.55,0,0,0,3.18-2.22,13.46,13.46,0,0,0,2.52-3.53,16.11,16.11,0,0,0,1.44-9.77,18.16,18.16,0,0,0-5.57-10,28.5,28.5,0,0,0-11.3-6.45l-.12,0,0-.13a18.74,18.74,0,0,0-7.62-10.93,22.7,22.7,0,0,0-13.76-4.24,18.29,18.29,0,0,0-7.37,1.76,14.76,14.76,0,0,0-5.89,5,17.28,17.28,0,0,0-1.87,3.5,17.62,17.62,0,0,0-1,3.88,15.56,15.56,0,0,0,.14,4,13.49,13.49,0,0,0,1.4,3.8l.05.08v.08L390,183c-2.53,19.06-4.91,37.07-7,52.78l-.2-.26c9.77,1.43,18.95,1.78,27,.62a58.06,58.06,0,0,0,19.89-6.33c2.58-1.37,4.79-2.77,6.71-4a19,19,0,0,0,4.44-3.65,9.08,9.08,0,0,0,1.79-3.08C442.86,218.33,442.89,217.9,442.92,217.9Z" style="fill:#263238"></path><g style="opacity:0.30000000000000004"><path d="M401.5,161.61a28.08,28.08,0,0,1,11.33,14.33c1.07-.81,2.59-.4,3.83.1,3.93,1.58,7.74,3.81,10.29,7.18s3.64,8.08,1.94,12a73.18,73.18,0,0,1-13.38-1.57,24.31,24.31,0,0,1-11.74-6.27c-3.75-3.88-5.59-9.25-6.4-14.58"></path></g><path d="M411,210.84c17.33-6.07,14.91-17.17,15-20.42a11.14,11.14,0,0,0-3.9-8.6c-3.08-2.61-7.34-3.32-11.37-3.38a45.27,45.27,0,0,0-21.61,5.17l-7.76,26.19,16.42,6.46Z" style="fill:#8FADEC"></path><path d="M411,210.84l-.22.11-.67.3-2.58,1.1-9.7,4.06-.06,0-.07,0L381.21,210l-.19-.08.05-.19c2.27-7.69,4.91-16.63,7.73-26.2l0-.11.1-.05a46.65,46.65,0,0,1,5.9-2.58,45.61,45.61,0,0,1,13-2.56c4.26-.18,8.57.07,12.16,1.94a11.31,11.31,0,0,1,4.3,3.89,11.45,11.45,0,0,1,1.79,5.17c.07.9,0,1.74.08,2.58s0,1.68,0,2.5a15.71,15.71,0,0,1-.87,4.62,15.32,15.32,0,0,1-4.53,6.61,24.11,24.11,0,0,1-5.07,3.33c-.75.36-1.4.71-2,1l-1.51.57-.94.34-.32.1a1.26,1.26,0,0,1,.3-.15l.92-.39,1.49-.62c.59-.24,1.23-.61,2-1a25.09,25.09,0,0,0,5-3.37,15.15,15.15,0,0,0,5.18-11c0-.8,0-1.62,0-2.46s0-1.73-.09-2.57a10.9,10.9,0,0,0-5.88-8.66c-3.46-1.8-7.7-2.05-11.92-1.87A45.18,45.18,0,0,0,395,181.3a44.3,44.3,0,0,0-5.84,2.54l.13-.15-7.8,26.17-.13-.27,16.4,6.52h-.12l9.77-3.92,2.61-1,.68-.25A.9.9,0,0,1,411,210.84Z" style="fill:#263238"></path><g style="opacity:0.30000000000000004"><path d="M374.91,234.67c-1.79-1.17-2.87-3.15-3.87-5a96.64,96.64,0,0,1-7-15.35,32.64,32.64,0,0,1-1.4-16.66l9.68-17.33c-3.48,1.57-5.75,4.92-7.84,8.12q-1.72-4.25-3.47-8.47c1.1,4.35.17,9-1.22,13.23s-3.23,8.41-4,12.83a28.69,28.69,0,0,0,4.94,22.44,19.66,19.66,0,0,0,8.15,6.67c4.44,1.62,9.29,2.39,13.55.9C379.8,236.08,377.06,236.08,374.91,234.67Z"></path></g><path d="M383.36,205.58l-8.71-26.26c-7.11,6.42-13.3,14.32-15.62,23.62s-.53,20.47,6.78,26.65Z" style="fill:#8FADEC"></path><path d="M380.31,236c6.72-.78,9.62-.48,18.22-3.15,5.38-1.66,9.14-2.75,14.13-5.37s17.58-13.34,15.78-18.68c-.37-1.12-40.26-7.11-40.26-7.11L365,228.91S372.06,237,380.31,236Z" style="fill:#8FADEC"></path><path d="M419.78,206.22l0,0a.07.07,0,0,1,.07,0s0,.07,0,.1a3.07,3.07,0,0,1-.22.5c-.22.42-.57,1-1,1.8-.94,1.6-2.26,3.82-3.88,6.54l-2.63,4.54a46,46,0,0,1-3.27,5.09,32.36,32.36,0,0,1-4.5,5,16.22,16.22,0,0,1-6.25,3.58,61.63,61.63,0,0,1-7,1.75,65.13,65.13,0,0,1-6.63.82l-3.08.29a21.11,21.11,0,0,1-2.95.17,14.33,14.33,0,0,1-5.15-1.21,23.42,23.42,0,0,1-6.39-4.16,20.18,20.18,0,0,1-1.47-1.46,3.41,3.41,0,0,1-.46-.56s.19.17.53.49.85.8,1.54,1.38a24.58,24.58,0,0,0,6.39,4,14.28,14.28,0,0,0,5,1.12,22.48,22.48,0,0,0,2.89-.19l3.09-.32c2.11-.19,4.32-.41,6.58-.84a64,64,0,0,0,6.9-1.75,15.72,15.72,0,0,0,6.06-3.46,32.13,32.13,0,0,0,4.46-4.87,44.09,44.09,0,0,0,3.27-5l2.69-4.51c1.67-2.75,3.07-4.94,4-6.46l1.11-1.74c.12-.2.21-.36.26-.46s0-.06,0,0Z" style="fill:#263238"></path><path d="M415.07,190.12a2.53,2.53,0,0,1-.59-.19,5.37,5.37,0,0,1-1.53-.86,2.66,2.66,0,0,1-.77-1,2,2,0,0,1,0-1.56,1.89,1.89,0,0,1,1.47-1,3.37,3.37,0,0,1,2,.37,13.81,13.81,0,0,1,3.64,2.59,9.45,9.45,0,0,1,2.75,4.36,3.47,3.47,0,0,1-.54,2.81,4.28,4.28,0,0,1-2.55,1.55,6.75,6.75,0,0,1-3.06-.19,15.49,15.49,0,0,1-2.88-1.16,17.47,17.47,0,0,1-4.85-3.68,10.05,10.05,0,0,1-2.73-5,5,5,0,0,1,1.71-4.77,7.2,7.2,0,0,1,4.16-1.68,9.77,9.77,0,0,1,3.65.51,16.11,16.11,0,0,1,2.54,1.12c.67.36,1.17.67,1.51.89a2.36,2.36,0,0,1,.49.36,3.45,3.45,0,0,1-.54-.27c-.36-.19-.87-.47-1.55-.8a16.93,16.93,0,0,0-2.53-1,9.45,9.45,0,0,0-3.54-.42,6.84,6.84,0,0,0-3.9,1.63,4.65,4.65,0,0,0-1.52,4.38,9.63,9.63,0,0,0,2.62,4.71,17.35,17.35,0,0,0,4.72,3.56c1.8.89,3.76,1.66,5.6,1.31a3.73,3.73,0,0,0,2.25-1.35,3,3,0,0,0,.47-2.42,9.13,9.13,0,0,0-2.58-4.14,13.77,13.77,0,0,0-3.5-2.57,3.09,3.09,0,0,0-1.76-.37,1.63,1.63,0,0,0-1.26.83,1.71,1.71,0,0,0,0,1.35,2.36,2.36,0,0,0,.66,1,5.93,5.93,0,0,0,1.45.92A3.45,3.45,0,0,1,415.07,190.12Z" style="fill:#263238"></path><path d="M361.26,180.29a24.25,24.25,0,0,1,2.82,11c-.15,0-.48-2.5-1.27-5.52S361.12,180.35,361.26,180.29Z" style="fill:#263238"></path><g style="opacity:0.30000000000000004"><path d="M384.48,207c3.89-1.49,8.29-1.05,12.27.2s7.68,3.25,11.51,4.88,7.95,2.93,12.11,2.64,8.39-2.43,10.23-6.18c-4.69,1.2-9.58,2.4-14.31,1.4-4-.86-7.55-3.24-11.12-5.32s-7.52-4-11.64-3.66a11.86,11.86,0,0,0-9.56,6.51"></path></g><path d="M435.08,202.67c0-5-4.05-9-8.93-10.09.3,7.23-4.42,10.62-10.07,10.25-3.72-.25-7.39-2.11-11-3.87s-7.38-3.45-11-3.16a9.19,9.19,0,0,0-8.34,8.41l1.23-.35c4.56-.87,9.28.32,13.56,2.08s8.33,4.12,12.69,5.73,9.19,2.44,13.62,1.06S435.1,207.31,435.08,202.67Z" style="fill:#8FADEC"></path><g style="opacity:0.1"><path d="M435.08,202.67c0-5-4.05-9-8.93-10.09.25,7.29-4.42,10.62-10.07,10.25-3.72-.25-7.39-2.11-11-3.87s-7.38-3.45-11-3.16a9.19,9.19,0,0,0-8.34,8.41l1.23-.35c4.56-.87,9.28.32,13.56,2.08s8.33,4.12,12.69,5.73,9.19,2.44,13.62,1.06S435.1,207.31,435.08,202.67Z" style="fill:#fff"></path></g><path d="M365.81,229.59a2.27,2.27,0,0,1-.46-.35,14.91,14.91,0,0,1-1.24-1.15,19.94,19.94,0,0,1-3.55-5.08,26.48,26.48,0,0,1-2.53-8.83,32.67,32.67,0,0,1,.73-11.22,38.14,38.14,0,0,1,4.37-10.37,50.17,50.17,0,0,1,5.46-7.38,58.17,58.17,0,0,1,4.34-4.42c.53-.5,1-.86,1.26-1.11s.45-.38.46-.36a2.61,2.61,0,0,1-.39.43l-1.19,1.18c-1,1-2.51,2.54-4.2,4.52a52,52,0,0,0-5.33,7.39,38.78,38.78,0,0,0-4.28,10.24,33,33,0,0,0-.75,11,26.83,26.83,0,0,0,2.38,8.72,21.05,21.05,0,0,0,3.37,5.1C365.24,229,365.85,229.55,365.81,229.59Z" style="fill:#263238"></path><g style="opacity:0.30000000000000004"><path d="M375.47,224a30.39,30.39,0,0,0,4.93-10.57,78.68,78.68,0,0,0,2.84-28.35l-12.86-1.57a12.31,12.31,0,0,0,2.16,14.93c-.54,5-1.42,9.28-1.06,14.27.32,4.36,2.72,8.47,2.59,9.32-.48,3.11-5.45,6.79-8.51,7.54C369.47,229.41,373.05,227.07,375.47,224Z"></path></g><path d="M378,219c-5.43,5.48-5.16-15.24-.73-21.56a11.79,11.79,0,0,1,2.53-22.34c-3.87-4.89-2.16-12.88,3-16.41s12.57-2.68,17.37,1.3,7.91,12,7.45,18.25c0,0-11.83.81-15.16,5.82C387.56,191.43,385.89,211,378,219Z" style="fill:#8FADEC"></path><path d="M378.49,218.25s0,.26-.14.69a11.8,11.8,0,0,1-.71,1.8,16.85,16.85,0,0,1-9.23,8.36,11.14,11.14,0,0,1-1.85.52,2.17,2.17,0,0,1-.7.08c0-.09.95-.32,2.42-.95a18.75,18.75,0,0,0,5.2-3.33,19.18,19.18,0,0,0,3.83-4.85C378.08,219.17,378.41,218.22,378.49,218.25Z" style="fill:#263238"></path><g style="opacity:0.1"><path d="M378,219c-5.43,5.48-5.16-15.24-.73-21.56a11.79,11.79,0,0,1,2.53-22.34c-3.87-4.89-2.16-12.88,3-16.41s12.57-2.68,17.37,1.3,7.91,12,7.45,18.25c0,0-11.83.81-15.16,5.82C387.56,191.43,385.89,211,378,219Z" style="fill:#fff"></path></g><path d="M430.1,217.11a6.12,6.12,0,0,1-.89,1c-.6.63-1.51,1.5-2.69,2.51A50.53,50.53,0,0,1,405,231.48a34.66,34.66,0,0,1-3.61.67,5.67,5.67,0,0,1-1.35.12,8.36,8.36,0,0,1,1.31-.32c.85-.16,2.07-.44,3.56-.83a56.54,56.54,0,0,0,11.25-4.24,57.42,57.42,0,0,0,10.09-6.53c1.19-1,2.14-1.79,2.78-2.38A7.32,7.32,0,0,1,430.1,217.11Z" style="fill:#263238"></path><g style="opacity:0.30000000000000004"><path d="M400.94,231.69c2.75-.48,5.57-1.2,7.7-3a13.88,13.88,0,0,0,3.79-6.11c.79-2.29,1.28-4.67,2.09-7a77.84,77.84,0,0,1-12.73,16"></path></g><g style="opacity:0.30000000000000004"><path d="M383.74,235.94a62.51,62.51,0,0,0,16.76,5.38c5.86.91,12.27,0,16.84-3.77,1.13-.93,2.2-2.2,2.12-3.66-9.62,3.09-26.66,3.83-35.72,2.05"></path></g><path d="M435.08,202.67a6.2,6.2,0,0,1,0,1.11,8.61,8.61,0,0,1-.9,3.06,11.81,11.81,0,0,1-3.22,3.9,13.15,13.15,0,0,1-6.19,2.65,20.47,20.47,0,0,1-8.19-.48,47,47,0,0,1-8.86-3.39,92,92,0,0,0-9.59-4.24A21.93,21.93,0,0,0,387,204.12h0l-1.24.35-.37.11,0-.38a9.87,9.87,0,0,1,1.88-4.9,9.2,9.2,0,0,1,6.09-3.67,14.36,14.36,0,0,1,6.85,1c4.26,1.55,7.9,3.94,11.72,5.17a14.72,14.72,0,0,0,5.69.84,8.91,8.91,0,0,0,4.94-1.74,8,8,0,0,0,2.73-3.93,13,13,0,0,0,.59-4.33v-.22l.21,0a12.73,12.73,0,0,1,5.46,2.81,10.7,10.7,0,0,1,2.71,3.69,9.8,9.8,0,0,1,.71,2.77c0,.32,0,.57,0,.73a.93.93,0,0,1,0,.25,10.73,10.73,0,0,0-.89-3.68,10.53,10.53,0,0,0-2.71-3.56,12.58,12.58,0,0,0-5.37-2.69l.21-.16a13.3,13.3,0,0,1-.56,4.46,8.44,8.44,0,0,1-2.84,4.14,9.39,9.39,0,0,1-5.16,1.86,15.47,15.47,0,0,1-5.86-.84c-3.91-1.25-7.57-3.63-11.75-5.14a13.87,13.87,0,0,0-6.6-.93,8.68,8.68,0,0,0-5.75,3.47,9.35,9.35,0,0,0-1.78,4.64l-.33-.28,1.23-.34h0a22.37,22.37,0,0,1,11.31,1.2,91.4,91.4,0,0,1,9.63,4.29,46.44,46.44,0,0,0,8.76,3.41,20.57,20.57,0,0,0,8,.54,13,13,0,0,0,6.07-2.52,11.8,11.8,0,0,0,3.22-3.78,9.12,9.12,0,0,0,1-3C435.05,203.05,435.05,202.67,435.08,202.67Z" style="fill:#263238"></path><path d="M378,219s.05-.08.16-.22l.49-.59c.21-.27.5-.58.8-1l1-1.45a46,46,0,0,0,4.49-10.33c.76-2.29,1.48-4.86,2.28-7.65s1.61-5.8,2.76-8.92c.3-.78.58-1.58,1-2.35.19-.39.35-.79.56-1.18l.66-1.15a9.56,9.56,0,0,1,4.21-3.44,26.19,26.19,0,0,1,5.4-1.82,44.06,44.06,0,0,1,5.85-.93l-.23.23a21.13,21.13,0,0,0-.72-6.75,26,26,0,0,0-2.72-6.54,17.65,17.65,0,0,0-4.83-5.43,15.57,15.57,0,0,0-6.94-2.65,14,14,0,0,0-7.12.91,12.49,12.49,0,0,0-3,1.85,12.28,12.28,0,0,0-2.25,2.68,12.69,12.69,0,0,0-1.82,6.52,11.19,11.19,0,0,0,.53,3.27A10.13,10.13,0,0,0,380,175l.23.31-.38.08a11.64,11.64,0,0,0-2.49,21.93l.2.09-.13.19a17,17,0,0,0-2.14,5.17,36,36,0,0,0-.92,5,34.56,34.56,0,0,0-.11,8.08,10.42,10.42,0,0,0,.71,2.84,3,3,0,0,0,.65.95,1.21,1.21,0,0,0,.87.28,2.4,2.4,0,0,0,1.16-.56A2.32,2.32,0,0,1,378,219l-.32.32a2.26,2.26,0,0,1-1.19.62,1.25,1.25,0,0,1-1-.28,2.92,2.92,0,0,1-.71-1,10.05,10.05,0,0,1-.77-2.88,33.91,33.91,0,0,1,0-8.14,38.29,38.29,0,0,1,.89-5,17.44,17.44,0,0,1,2.16-5.31l.08.28a12,12,0,0,1-5-4.3,11.91,11.91,0,0,1,7.57-18.45l-.15.39a11,11,0,0,1-1.61-3,12,12,0,0,1-.55-3.43,13.11,13.11,0,0,1,1.89-6.79,12.76,12.76,0,0,1,2.34-2.8,13,13,0,0,1,3.15-1.94,14.36,14.36,0,0,1,7.38-.94,16,16,0,0,1,7.18,2.74,18.35,18.35,0,0,1,5,5.58,26.43,26.43,0,0,1,2.76,6.68,21.78,21.78,0,0,1,.73,6.91v.21l-.22,0a34.17,34.17,0,0,0-11.08,2.67,9.05,9.05,0,0,0-4,3.27c-.22.37-.44.74-.65,1.11s-.37.77-.55,1.15c-.38.76-.66,1.55-1,2.32-1.15,3.1-2,6.11-2.8,8.88s-1.55,5.35-2.34,7.65a44.73,44.73,0,0,1-4.63,10.32c-.38.53-.71,1-1,1.43s-.62.7-.84,1l-.52.57Z" style="fill:#263238"></path><path d="M355.26,166.11a1.59,1.59,0,0,1-.15-.66,6.83,6.83,0,0,1,.08-1.85,7.78,7.78,0,0,1,9.05-6.41,6.52,6.52,0,0,1,1.77.55c.39.19.59.33.57.36a20.44,20.44,0,0,0-2.39-.54,7.77,7.77,0,0,0-8.64,6.12A24,24,0,0,0,355.26,166.11Z" style="fill:#fff"></path><path d="M346.41,209.44a8.69,8.69,0,0,1-1.35-.74c-.85-.51-2.05-1.29-3.47-2.35a33.15,33.15,0,0,1-4.6-4.19,24.22,24.22,0,0,1-4.2-6.37,18.4,18.4,0,0,1-1.65-7.46,15.67,15.67,0,0,1,1.24-6.11,13,13,0,0,1,2.26-3.55,7.85,7.85,0,0,1,.82-.79c.2-.17.31-.26.32-.24a15,15,0,0,0-4.16,10.69,18.33,18.33,0,0,0,1.65,7.25,28.66,28.66,0,0,0,8.55,10.48c1.37,1.09,2.54,1.91,3.35,2.47A8.51,8.51,0,0,1,346.41,209.44Z" style="fill:#fff"></path><path d="M350.74,212.15c-.06.13-.52,0-1-.21s-.85-.56-.79-.69.52,0,1,.22S350.81,212,350.74,212.15Z" style="fill:#fff"></path><path d="M352.11,249s-.14,0-.38-.16a10.92,10.92,0,0,1-1-.56,26,26,0,0,1-3.49-2.51,28.11,28.11,0,0,1-9.7-25.54,25.13,25.13,0,0,1,.95-4.2c.14-.48.3-.85.39-1.1a1.18,1.18,0,0,1,.18-.37,11.36,11.36,0,0,1-.37,1.53,29.83,29.83,0,0,0-.78,4.19,28.87,28.87,0,0,0,9.57,25.21,30.13,30.13,0,0,0,3.36,2.62A13.14,13.14,0,0,1,352.11,249Z" style="fill:#fff"></path><path d="M379.11,267.57a7.53,7.53,0,0,1-2.19-1,23.09,23.09,0,0,1-4.6-3.63,22.84,22.84,0,0,1-3.52-4.67,8.09,8.09,0,0,1-1-2.21,31,31,0,0,0,11.31,11.54Z" style="fill:#fff"></path><path d="M361.24,214.5a2.67,2.67,0,0,1-.24-.83,18.81,18.81,0,0,1-.35-2.33,27.34,27.34,0,0,1,2.92-15.07,16.75,16.75,0,0,1,1.2-2c.31-.46.5-.7.53-.68s-.57,1.09-1.4,2.86A31.33,31.33,0,0,0,361,211.31C361.12,213.27,361.33,214.48,361.24,214.5Z" style="fill:#fff"></path><path d="M373.85,187a4,4,0,0,1-.4-2,8.27,8.27,0,0,1,4.94-7.84,4.19,4.19,0,0,1,1.94-.49c0,.09-.72.26-1.78.82a8.74,8.74,0,0,0-4.73,7.51C373.77,186.28,373.93,187,373.85,187Z" style="fill:#fff"></path><path d="M380.9,172.17a2.24,2.24,0,0,1-.27-.82,9.59,9.59,0,0,1-.2-2.34,10.57,10.57,0,0,1,9.93-10.25,8.88,8.88,0,0,1,2.34.12,2.53,2.53,0,0,1,.83.23,27.8,27.8,0,0,0-3.14,0A10.68,10.68,0,0,0,380.8,169,23.47,23.47,0,0,0,380.9,172.17Z" style="fill:#fff"></path><path d="M418.68,168.28c-.08.05-.58-.74-1.6-1.82a16,16,0,0,0-10.17-5c-1.47-.14-2.4-.05-2.41-.14a6.24,6.24,0,0,1,2.44-.23,14.53,14.53,0,0,1,10.42,5.09A6.88,6.88,0,0,1,418.68,168.28Z" style="fill:#fff"></path><path d="M431.5,178.76a5.51,5.51,0,0,1-2.22-.8c-1.17-.57-2.06-1.14-2-1.27a5.58,5.58,0,0,1,2.23.8C430.67,178.06,431.57,178.63,431.5,178.76Z" style="fill:#fff"></path><path d="M394.11,186.24a7.8,7.8,0,0,1,1.8-1.89,19.09,19.09,0,0,1,5.43-3.21,19.39,19.39,0,0,1,6.19-1.26,8.33,8.33,0,0,1,2.6.2c0,.19-4.05-.24-8.6,1.55A27.16,27.16,0,0,0,394.11,186.24Z" style="fill:#fff"></path><path d="M408,203.4a25.73,25.73,0,0,1-2.72-1.73,25,25,0,0,0-6.86-3.38,11.59,11.59,0,0,0-7.46.35,13,13,0,0,0-2.67,1.69,2.49,2.49,0,0,1,.55-.67,7.33,7.33,0,0,1,2-1.36,11.32,11.32,0,0,1,7.75-.51,22.31,22.31,0,0,1,6.94,3.58A15.74,15.74,0,0,1,408,203.4Z" style="fill:#fff"></path><path d="M413.88,205.16c-.06.13-.76-.06-1.56-.43s-1.39-.77-1.33-.9.75.06,1.55.43S413.94,205,413.88,205.16Z" style="fill:#fff"></path><path d="M438.89,250.4a7.6,7.6,0,0,0-.5-3.65,9.16,9.16,0,0,0-2.32-3.25,15.6,15.6,0,0,0-4.23-2.55c-1.63-.69-3.25-1.21-4.71-1.74l-3.88-1.4c-1.1-.4-2-.74-2.6-1a3.91,3.91,0,0,1-.93-.43,4,4,0,0,1,1,.24c.63.18,1.53.46,2.65.83l3.91,1.29c1.47.5,3.1,1,4.76,1.72a14.8,14.8,0,0,1,4.35,2.67,8.89,8.89,0,0,1,2.34,3.46,6.47,6.47,0,0,1,.41,2.79A2.35,2.35,0,0,1,438.89,250.4Z" style="fill:#fff"></path><path d="M360.52,177.84c-.11.09-.49-.19-.84-.63s-.55-.87-.43-1,.48.2.84.63S360.63,177.75,360.52,177.84Z" style="fill:#263238"></path><path d="M365.15,248.92c-.14,0-.27-.67,0-1.44s.77-1.23.88-1.14-.16.62-.39,1.3S365.3,248.91,365.15,248.92Z" style="fill:#263238"></path><path d="M301.8,172.79a33.12,33.12,0,0,0-6.71-17.06,26.63,26.63,0,0,0-21.81-9.63l1.44,21.72c.64,3,3.16,5.26,5.87,6.68s5.72,2.21,8.48,3.54A23.8,23.8,0,0,1,301,191.28,67.51,67.51,0,0,0,301.8,172.79Z" style="fill:#455a64"></path><path d="M240.24,174a68.66,68.66,0,0,0-4.8,23.86,2.37,2.37,0,0,0,.58,2c.71.57,1.76.17,2.56-.27a60.77,60.77,0,0,0,26.48-29.11Z" style="fill:#455a64"></path><path d="M261.11,346.59s20.3,56,21.61,61.56,2.62,66.76,2.62,66.76h7.86s-4.91-33.36-3.6-46.46,1.63-26.85,1.63-26.85c-6.34-3.69-19.75-26-23.9-61.89-.08-.67,2.29-31.76,1.64-52.06s-2.82-112.42-2.82-112.42l-3.93-2.62s3.8,110.78,2.49,128.46-3.6,36.35-3.6,36.35l-15.18-12.36-17.72-15.39c3.84,3.91,25.39,25.87,30,30.68Z" style="fill:#263238"></path><path d="M169.86,247.63a5.77,5.77,0,0,0,.47.68l1.42,1.92,5.3,7.07L195,281l0,0,4,3.23L213,295.7l3.2,2.61c1,.9,1.93,1.78,2.84,2.64l5,4.77,7.24,7,1.95,1.91.5.51c.11.12.16.18.15.19l-.19-.15-.53-.47-2-1.85L223.85,306l-5.08-4.73c-.91-.84-1.86-1.72-2.85-2.6l-3.16-2.57-14.2-11.49-4-3.24,0,0,0,0c-7.08-9.39-13.33-17.76-17.77-23.81-2.21-3-4-5.47-5.18-7.17A14.21,14.21,0,0,1,169.86,247.63Z" style="fill:#263238"></path><path d="M183.65,267.26c-6.26-.17-12.58-.35-18.66-1.86s-12-4.47-15.93-9.33a7.57,7.57,0,0,1,5.1,0,46.57,46.57,0,0,1-8.51-12,5.74,5.74,0,0,1,4.12.18,20.18,20.18,0,0,1-1.7-8.8l3.55,1.2a37.17,37.17,0,0,1-.94-15.49c4,2.54,8.78,3.37,13.36,4.52s9.33,2.84,12.29,6.53c0-.75.11-1.49.17-2.24,4.23,3.08,8.28,6.76,10.26,11.61a23.26,23.26,0,0,1,1.13,12,69.28,69.28,0,0,1-3.14,11.79" style="fill:#455a64"></path><path d="M155.17,227.72a2.19,2.19,0,0,1,.35.35l.95,1.08,3.39,4c2.85,3.41,6.76,8.15,11.06,13.4a108.11,108.11,0,0,1,10.19,14.09,49.51,49.51,0,0,1,2.4,4.7c.25.57.42,1,.54,1.33a1.46,1.46,0,0,1,.15.47,14.63,14.63,0,0,1-.88-1.72c-.55-1.11-1.38-2.7-2.53-4.59a121.87,121.87,0,0,0-10.28-14c-4.29-5.25-8.15-10-10.93-13.5l-3.27-4.13-.87-1.14C155.25,227.88,155.15,227.73,155.17,227.72Z" style="fill:#263238"></path><path d="M180.77,242.6a5.11,5.11,0,0,1,.32,1.23,26.25,26.25,0,0,1,.42,3.45,29.33,29.33,0,0,1-1.62,11.38l-.07.2-.21,0-.54-.07c-4.59-.63-8.74-1.23-11.74-1.69l-3.55-.57a5.78,5.78,0,0,1-1.29-.28,7.61,7.61,0,0,1,1.32.08l3.57.41c3,.36,7.17.9,11.76,1.53l.54.08-.28.17a31.26,31.26,0,0,0,1.75-11.2C181.07,244.38,180.67,242.61,180.77,242.6Z" style="fill:#263238"></path><path d="M169.39,232.8a5.79,5.79,0,0,1,.31,1.15c.16.75.36,1.84.58,3.21.45,2.71.85,6.51,1.63,10.68l.07.35-.36-.05-.77-.1c-4.39-.64-8.33-1.39-11.18-1.89l-3.38-.61a6.08,6.08,0,0,1-1.24-.28,6.93,6.93,0,0,1,1.26.08c.81.09,2,.23,3.42.44,2.87.41,6.82,1.11,11.2,1.74l.76.11-.29.31c-.79-4.2-1.12-8-1.48-10.74-.17-1.28-.31-2.35-.42-3.22A5.21,5.21,0,0,1,169.39,232.8Z" style="fill:#263238"></path><path d="M194,282c-6.66-8.3-19.26-11.55-29.26-9.21l3.78,1.18a24.62,24.62,0,0,0-7.1,1.63,9,9,0,0,0-5,5.29l2.92.6c-2.78.43-5,2.66-6.67,5.09s-2.88,5.17-4.74,7.42a22.88,22.88,0,0,0,10.37,4.25l-2.05,1.17a15.82,15.82,0,0,0,8,3.28,4.42,4.42,0,0,0-1.95,1.45,22.41,22.41,0,0,0,14.16,1.75,23.42,23.42,0,0,0,12.53-7.26c-.36.33.11,1,.58,1s.79-.52,1.05-.94a32.22,32.22,0,0,0,4-7.91A11.39,11.39,0,0,0,194,282" style="fill:#455a64"></path><path d="M196.82,282.88a11.08,11.08,0,0,1-1.7.37l-4.66.89c-3.94.76-9.36,1.89-15.32,3.25s-11.34,2.67-15.23,3.63l-4.61,1.13a12.81,12.81,0,0,1-1.71.36,10.69,10.69,0,0,1,1.66-.56c1.07-.32,2.63-.76,4.57-1.29,3.87-1.05,9.24-2.42,15.21-3.78s11.4-2.43,15.36-3.1c2-.34,3.58-.58,4.7-.73A11,11,0,0,1,196.82,282.88Z" style="fill:#263238"></path><path d="M182.09,296.78a26.11,26.11,0,0,1,1.12-3.41c.76-2.08,1.83-4.94,3-8.09l.18-.46.09.3a59.24,59.24,0,0,0-6.9-4.58c-1.83-1.05-3-1.62-3-1.69a2.91,2.91,0,0,1,.87.3c.55.23,1.33.58,2.27,1.07a46.66,46.66,0,0,1,7,4.48l.16.12-.07.18-.18.47c-1.22,3.15-2.35,6-3.19,8A24.59,24.59,0,0,1,182.09,296.78Z" style="fill:#263238"></path><path d="M171.71,300.09a4.59,4.59,0,0,1,.3-1c.22-.63.55-1.54,1-2.66.85-2.24,2.05-5.31,3.41-8.7.1-.26.21-.53.31-.77l.13.33c-3.16-1.4-6-2.67-8-3.62-1-.47-1.82-.85-2.37-1.13a3.39,3.39,0,0,1-.84-.48,4,4,0,0,1,.92.3c.57.22,1.41.56,2.44,1,2.06.85,4.9,2.08,8.06,3.47l.23.1-.09.23-.31.78c-1.36,3.38-2.61,6.44-3.55,8.64-.46,1.1-.85,2-1.13,2.6A3.61,3.61,0,0,1,171.71,300.09Z" style="fill:#263238"></path><path d="M160.37,298.46a17.35,17.35,0,0,1,1.44-2.58l3.69-6c.06-.2-.07-.37-.34-.53a9,9,0,0,0-.88-.38l-1.74-.74L159.6,287a16.17,16.17,0,0,1-2.65-1.29,17.09,17.09,0,0,1,2.79,1l3,1.16,1.75.7c.31.13.61.23.95.41a1.48,1.48,0,0,1,.47.41.85.85,0,0,1,.11.71,5,5,0,0,1-.54,1l-.54.83-1,1.58-1.77,2.66A15.86,15.86,0,0,1,160.37,298.46Z" style="fill:#263238"></path><path d="M190.81,272.82c-3.69-10,0-22.46,7.15-29.84l-.93,3.85a24.62,24.62,0,0,1,5-5.25A9,9,0,0,1,209.2,240c-.32.94-.65,1.88-1,2.81,1.8-2.16,4.86-2.94,7.79-3.11s5.92.19,8.81-.24a23,23,0,0,1-1.69,11.07c.69-.38,1.37-.77,2.05-1.16a15.78,15.78,0,0,1-1.29,8.55,4.39,4.39,0,0,1,2.24-.93A22.41,22.41,0,0,1,220.36,270a23.43,23.43,0,0,1-12.67,7c.46-.14.81.61.51,1a1.71,1.71,0,0,1-1.35.42,32.09,32.09,0,0,1-8.85-.62,11.38,11.38,0,0,1-7.19-5" style="fill:#455a64"></path><path d="M190.42,275.43a12.06,12.06,0,0,1,1-1.38c.69-.88,1.71-2.12,3-3.63,2.59-3,6.27-7.1,10.46-11.48s8.11-8.25,11-11c1.44-1.38,2.61-2.48,3.43-3.23a10.39,10.39,0,0,1,1.31-1.12,11.29,11.29,0,0,1-1.17,1.27l-3.31,3.34c-2.8,2.82-6.66,6.72-10.85,11.1s-7.91,8.41-10.56,11.37l-3.13,3.51A9.69,9.69,0,0,1,190.42,275.43Z" style="fill:#263238"></path><path d="M209.65,270.23a23.77,23.77,0,0,1-3.56-.42c-2.19-.33-5.21-.83-8.54-1.4l-.49-.08-.19,0,0-.19a47.09,47.09,0,0,1-.23-8.34c.07-1.06.16-1.92.25-2.5a2.57,2.57,0,0,1,.19-.9c.08,0,0,1.3-.08,3.41a59.85,59.85,0,0,0,.38,8.27l-.21-.23.49.09c3.33.57,6.34,1.12,8.51,1.54A26.27,26.27,0,0,1,209.65,270.23Z" style="fill:#263238"></path><path d="M217.82,263a3.9,3.9,0,0,1-1-.06c-.66-.08-1.62-.2-2.81-.37-2.36-.33-5.63-.82-9.23-1.4l-.82-.13-.25,0,0-.25c.43-3.43.85-6.5,1.17-8.7.16-1.11.3-2,.41-2.61a3.72,3.72,0,0,1,.21-.94,3.17,3.17,0,0,1,0,1c-.05.62-.13,1.51-.25,2.62-.23,2.22-.58,5.29-1,8.73l-.21-.29.82.13c3.6.57,6.86,1.12,9.21,1.55,1.18.21,2.13.39,2.78.53A4,4,0,0,1,217.82,263Z" style="fill:#263238"></path><path d="M222.26,252.47a16.79,16.79,0,0,1-2.94.27l-3.19.15-1.89.07-1,0a5.21,5.21,0,0,1-1.1,0,.82.82,0,0,1-.55-.46,1.43,1.43,0,0,1-.11-.62c0-.38.09-.69.13-1q.16-1,.3-1.86c.2-1.14.38-2.2.54-3.15a17,17,0,0,1,.62-2.88,16.32,16.32,0,0,1-.26,2.94c-.13,1-.27,2-.42,3.16-.09.6-.18,1.23-.27,1.87,0,.32-.11.67-.12,1s.07.51.28.56l7-.1A16.27,16.27,0,0,1,222.26,252.47Z" style="fill:#263238"></path><path d="M243,269.76a59.36,59.36,0,0,0,.07-11.62l-12.5,9.75.25-1.88a23,23,0,0,0-11.46,12.64l-.3-2a18.58,18.58,0,0,0-2.44,13.12c.86,4.47,3.38,10,7,12.69a22.59,22.59,0,0,0,22.79-22.14l-3,1.11a34.13,34.13,0,0,0,2.19-13.71Z" style="fill:#455a64"></path><path d="M239,266a12,12,0,0,1-1.1,1.25,32.81,32.81,0,0,0-2.72,3.61,39.47,39.47,0,0,0-3.12,5.94,79,79,0,0,0-2.8,7.74c-1.67,5.57-3.19,10.61-4.32,14.36-.55,1.77-1,3.24-1.36,4.35a11.22,11.22,0,0,1-.56,1.57,9.65,9.65,0,0,1,.37-1.63c.31-1.12.71-2.6,1.2-4.39,1.05-3.7,2.46-8.8,4.17-14.42a74.12,74.12,0,0,1,2.86-7.78,37,37,0,0,1,3.25-5.94,26.87,26.87,0,0,1,2.88-3.54A8.33,8.33,0,0,1,239,266Z" style="fill:#263238"></path><path d="M241.93,273.68a4.83,4.83,0,0,1-.81.79l-2.34,2c-2,1.67-4.75,3.94-7.82,6.43l-1.79,1.44-.31.25-.1-.38a51.07,51.07,0,0,1-1.48-8.48c-.09-1.08-.13-1.94-.14-2.54a3.29,3.29,0,0,1,0-.92c.08,0,.16,1.29.44,3.42a61.87,61.87,0,0,0,1.63,8.39l-.41-.13,1.78-1.45c3.08-2.49,5.88-4.73,7.93-6.32l2.44-1.87A4.7,4.7,0,0,1,241.93,273.68Z" style="fill:#263238"></path><path d="M239.52,289.23a6,6,0,0,1-1.06.73c-.71.44-1.75,1.05-3,1.78-2.58,1.47-6.21,3.38-10.12,5.64l0,0-.24.14-.12-.26a44.87,44.87,0,0,1-3.37-11.11c-.24-1.47-.37-2.66-.44-3.49a5.75,5.75,0,0,1,0-1.29,6.5,6.5,0,0,1,.24,1.26c.13.82.32,2,.61,3.45a49.35,49.35,0,0,0,3.47,11L225,297l0,0c3.93-2.27,7.58-4.12,10.21-5.51l3.11-1.64A6.81,6.81,0,0,1,239.52,289.23Z" style="fill:#263238"></path><path d="M224,310.81a26,26,0,0,0-25.15-6.47l2.37,1.09a12.24,12.24,0,0,0-9.6,5.39,21.6,21.6,0,0,0-3.53,10.75l2.32-1.14c-2.16,4.31-3.33,6.68-3.27,10.64.79.76,7.54-.87,12.9.47-.29.1-.27.56,0,.75a1.26,1.26,0,0,0,.88.16c5-.29,10.1-.64,14.43-3.07C221.55,325.88,225.15,317.88,224,310.81Z" style="fill:#455a64"></path><path d="M194.22,323.61a1.28,1.28,0,0,1,.21-.32c.15-.2.37-.5.68-.86a22.2,22.2,0,0,1,2.91-2.81,35,35,0,0,1,11.82-6.05c5-1.49,9.59-2.42,12.93-3.07,1.67-.31,3-.54,4-.68a6.65,6.65,0,0,1,1.47-.15,10.39,10.39,0,0,1-1.44.35l-3.93.84c-3.31.74-7.9,1.73-12.85,3.21a36.93,36.93,0,0,0-11.74,5.84A45,45,0,0,0,194.22,323.61Z" style="fill:#263238"></path><path d="M201.56,324.65a2.41,2.41,0,0,1,.23-.86c.19-.54.49-1.31.92-2.24a30,30,0,0,1,4.37-6.67l.47-.54.2.43c-2.94,0-5.57,0-7.47,0a18,18,0,0,1-3.06-.14,17.62,17.62,0,0,1,3.06-.21c1.89-.07,4.52-.13,7.46-.17h.59l-.39.44-.47.53a35,35,0,0,0-4.43,6.5C202.1,323.51,201.63,324.68,201.56,324.65Z" style="fill:#263238"></path><path d="M212,322.75a21.89,21.89,0,0,1,1.23-3.22c.82-2,2-4.66,3.31-7.62l.15.35-.07,0c-3.06-1.12-5.82-2.17-7.82-3a22.55,22.55,0,0,1-3.19-1.37,23.38,23.38,0,0,1,3.31,1c2,.69,4.81,1.69,7.88,2.81l.07,0,.26.09-.12.26c-1.32,3-2.54,5.64-3.44,7.56A21.59,21.59,0,0,1,212,322.75Z" style="fill:#263238"></path><path d="M185.69,101.93a17,17,0,0,0,4.42,32.89c-2.12,1.41-2.73,4.42-1.91,6.82a11.51,11.51,0,0,0,4.91,5.64,22.52,22.52,0,0,0,19.81,2.14s2.48-.25,10.84-7.41a147.34,147.34,0,0,0,15.81-16.27S221.33,90.43,185.69,101.93Z" style="fill:#8FADEC"></path><path d="M185.69,101.93a1.21,1.21,0,0,1,.29-.11l.88-.27a34.86,34.86,0,0,1,3.44-.93,41.37,41.37,0,0,1,13.28-.94,39.51,39.51,0,0,1,9.18,2,43.65,43.65,0,0,1,9.77,5,57.34,57.34,0,0,1,17.26,19l.08.14-.1.13a134.6,134.6,0,0,1-19,18.9c-1.21,1-2.45,1.88-3.72,2.74-.64.43-1.29.84-2,1.21a8.8,8.8,0,0,1-2.16.93l.07,0a22.82,22.82,0,0,1-18.45-1.25,18.62,18.62,0,0,1-3.7-2.53,10.43,10.43,0,0,1-2.64-3.52,6.91,6.91,0,0,1-.47-4.24,5.42,5.42,0,0,1,2.23-3.48l.1.41a17.25,17.25,0,0,1-9.15-3.7A19.84,19.84,0,0,1,177.7,128a18.1,18.1,0,0,1-2.18-3.79,17.17,17.17,0,0,1-1.1-4,16.24,16.24,0,0,1,0-3.81,17.15,17.15,0,0,1,2-6.38,17.45,17.45,0,0,1,6.34-6.79,12.25,12.25,0,0,1,2.21-1.1l.59-.23c.13,0,.2-.07.2-.06l-.19.1-.58.25a15.29,15.29,0,0,0-2.16,1.16,17.57,17.57,0,0,0-6.18,6.79,16.76,16.76,0,0,0-1.88,6.29,15.6,15.6,0,0,0,.07,3.73,16.45,16.45,0,0,0,1.09,3.86A18.46,18.46,0,0,0,178,127.8,19.41,19.41,0,0,0,181.2,131a16.81,16.81,0,0,0,8.93,3.58l.64.05-.53.36c-2.15,1.44-2.72,4.69-1.57,7.16s3.54,4.43,6.14,5.8a22.33,22.33,0,0,0,18,1.21h0l.07,0a8.31,8.31,0,0,0,2-.86c.65-.37,1.29-.77,1.92-1.19q1.88-1.28,3.69-2.72a134.57,134.57,0,0,0,18.91-18.81l0,.28A57.31,57.31,0,0,0,222.29,107a43.82,43.82,0,0,0-9.66-5,39.76,39.76,0,0,0-9.08-2.08,42.4,42.4,0,0,0-13.21.79c-1.53.27-2.67.66-3.45.85l-.89.23Z" style="fill:#263238"></path><path d="M243.51,126.85c-24.63-6.22-36.07,11.19-36.48,17.7a16.28,16.28,0,0,0,9.68,15.59,5.55,5.55,0,0,0-1.18,5,10.87,10.87,0,0,0,2.62,4.64,21.65,21.65,0,0,0,26.13,4.35,30.92,30.92,0,0,0,16,3c5.46-.55,11.66-2.45,14.32-7.25,10.91-19.67-1.89-34.8-3.63-40" style="fill:#8FADEC"></path><path d="M270.94,129.94s.06.11.16.34.23.58.46,1c.44.87,1.14,2.13,2,3.77a44.44,44.44,0,0,1,5.27,15,30.9,30.9,0,0,1-.62,11.08c-.11.49-.23,1-.35,1.48s-.33,1-.5,1.47-.35,1-.53,1.49a9.42,9.42,0,0,1-.61,1.48L274.81,170a11.57,11.57,0,0,1-2.09,2.7,16.38,16.38,0,0,1-6.13,3.47,30.73,30.73,0,0,1-7.24,1.38,31.63,31.63,0,0,1-15.18-3.12h.24A21.91,21.91,0,0,1,218.92,171a12.81,12.81,0,0,1-3.48-5.16,5.92,5.92,0,0,1,1.09-5.84l.08.4a16.53,16.53,0,0,1-9-9.91,14.68,14.68,0,0,1-.74-6.37,7.28,7.28,0,0,1,.33-1.54,9.91,9.91,0,0,1,.5-1.45c.21-.47.39-.95.62-1.39l.73-1.31a26.31,26.31,0,0,1,7.61-8c.73-.45,1.42-1,2.15-1.35l2.18-1.1c.73-.32,1.48-.56,2.18-.83.36-.13.71-.28,1.06-.39l1.07-.26a34.86,34.86,0,0,1,13.45-.61c1.55.26,2.73.56,3.54.72l.91.2.3.09-.31,0-.92-.16c-.81-.13-2-.4-3.55-.64a35.61,35.61,0,0,0-13.33.75l-1.06.27c-.35.12-.69.26-1,.39-.7.27-1.44.52-2.15.84l-2.15,1.1c-.72.38-1.39.89-2.12,1.34a26.09,26.09,0,0,0-7.45,7.93,15.39,15.39,0,0,0-2.11,5.53,14.39,14.39,0,0,0,.74,6.16,16.12,16.12,0,0,0,8.74,9.6l.34.14-.25.26a5.45,5.45,0,0,0-1,5.35,12.29,12.29,0,0,0,3.35,5,21.06,21.06,0,0,0,11.14,5.56,20.79,20.79,0,0,0,13.73-2.23l.12-.07.12.06A31.17,31.17,0,0,0,259.32,177a30.29,30.29,0,0,0,7.13-1.34,15.92,15.92,0,0,0,5.95-3.35,10.66,10.66,0,0,0,2-2.58l1.43-2.91a9.79,9.79,0,0,0,.61-1.46c.18-.49.35-1,.53-1.46s.38-1,.5-1.45l.35-1.46a30.66,30.66,0,0,0,.67-10.94,45.18,45.18,0,0,0-5.09-14.92c-.85-1.66-1.53-2.93-1.94-3.82A11.94,11.94,0,0,1,270.94,129.94Z" style="fill:#263238"></path><g style="opacity:0.1"><path d="M243.51,126.85c-24.63-6.22-36.07,11.19-36.48,17.7a16.28,16.28,0,0,0,9.68,15.59,5.55,5.55,0,0,0-1.18,5,10.87,10.87,0,0,0,2.62,4.64,21.65,21.65,0,0,0,26.13,4.35,30.92,30.92,0,0,0,16,3c5.46-.55,11.66-2.45,14.32-7.25,10.91-19.67-1.89-34.8-3.63-40" style="fill:#fff"></path></g><path d="M267,130.7a31,31,0,0,0,47.14,22.87,12.34,12.34,0,0,0,4.23-3.92,5.58,5.58,0,0,0,.29-5.54c5.85-1,11.61-3.63,15.41-8.19a16.93,16.93,0,0,0,3.93-9c.63-6.26-2.93-12.47-8.08-16.09S318.29,105.88,312,106s-12.47,1.61-18.59,3.07" style="fill:#8FADEC"></path><path d="M293.41,109.09a2.21,2.21,0,0,1,.39-.12l1.17-.31c1-.25,2.53-.63,4.49-1.07s4.36-.93,7.19-1.3a45.67,45.67,0,0,1,9.68-.31,29.49,29.49,0,0,1,11.29,3.14,20.44,20.44,0,0,1,9.23,9.65,19,19,0,0,1,1.14,3.46,15.53,15.53,0,0,1-1.78,11,20,20,0,0,1-5.22,5.95A25.81,25.81,0,0,1,323.8,143a32.27,32.27,0,0,1-5.08,1.32l.17-.38a5.27,5.27,0,0,1,.47,3.92,7.51,7.51,0,0,1-1.9,3.39,21.43,21.43,0,0,1-6.22,4.13,32.14,32.14,0,0,1-13.62,3,31.42,31.42,0,0,1-12.31-2.57,30.64,30.64,0,0,1-9.05-6.13,32.23,32.23,0,0,1-8.15-13.35,31.26,31.26,0,0,1-.94-4.17c-.05-.46-.1-.82-.13-1.1a1.71,1.71,0,0,1,0-.37,2.61,2.61,0,0,1,.08.37l.18,1.09a36.17,36.17,0,0,0,1,4.12,32.62,32.62,0,0,0,8.22,13.15,30.22,30.22,0,0,0,9,6,31.07,31.07,0,0,0,12.15,2.49A31.78,31.78,0,0,0,311,155a20.75,20.75,0,0,0,6.05-4,7,7,0,0,0,1.78-3.16,4.83,4.83,0,0,0-.41-3.54l-.19-.32.37-.07a32.66,32.66,0,0,0,5-1.3,25.59,25.59,0,0,0,7.05-3.73,19.32,19.32,0,0,0,5.08-5.79,15.6,15.6,0,0,0,2.06-7.11,15.94,15.94,0,0,0-.31-3.59,18.45,18.45,0,0,0-1.1-3.37,20,20,0,0,0-9-9.45,29,29,0,0,0-11.12-3.16,44.77,44.77,0,0,0-9.61.23c-2.82.34-5.23.81-7.19,1.21l-4.51,1-1.17.25Z" style="fill:#263238"></path><g style="opacity:0.2"><path d="M275,146.84a59.94,59.94,0,0,1-5-7.83,20.24,20.24,0,0,1-2.37-8.91l-1.55,1.22c-1.53,3.63-.35,7.8,1.21,11.41a22.61,22.61,0,0,0,4.55,7.22,10.37,10.37,0,0,0,7.68,3.24Z"></path></g><g style="opacity:0.2"><path d="M272.58,129.26a27.63,27.63,0,0,0,21.2,9.43,23.64,23.64,0,0,0,19.67-11.77,33.3,33.3,0,0,1,2.92-5.18,19.56,19.56,0,0,1,5.47-4.17,17.41,17.41,0,0,0,5.37-4.28c1.37-1.85,1.94-4.48.8-6.48,0,0-26.59,1.86-27.41,2.2s-27.68,16.81-27.68,16.81Z"></path></g><path d="M330.7,74.46c2.44-4.72,1.65-10.72-1.35-15.1A21.4,21.4,0,0,0,316.24,51a37.6,37.6,0,0,0-15.8.33l-27.52,78.14A26.76,26.76,0,0,0,313.61,121a13.41,13.41,0,0,1,2.27-3.65c1.32-1.26,3.17-1.75,4.83-2.5,4.8-2.17,8.11-6.63,10.93-11.07,3-4.69,5.71-9.77,6.13-15.31S335.74,76.8,330.7,74.46Z" style="fill:#8FADEC"></path><path d="M330.7,74.46l.5.23a10,10,0,0,1,1.34.81,12.62,12.62,0,0,1,3.83,4.71,16.74,16.74,0,0,1,1.39,9.51,32.19,32.19,0,0,1-4.66,12A69.81,69.81,0,0,1,329,108a24.62,24.62,0,0,1-5.86,5.74,19.05,19.05,0,0,1-3.88,2,8.46,8.46,0,0,0-3.63,2.3,31.08,31.08,0,0,0-2.25,4,25.58,25.58,0,0,1-2.69,3.93,27,27,0,0,1-37.89,3.84l-.15-.12.07-.17c1.27-3.63,2.63-7.48,4-11.38,8.88-25.13,17.06-48.32,23.57-66.74l0-.11.11,0a43.13,43.13,0,0,1,10.37-1A27.49,27.49,0,0,1,319.93,52a21.76,21.76,0,0,1,6.94,4.31,17.21,17.21,0,0,1,4,5.6,15.31,15.31,0,0,1,1,9.44,12,12,0,0,1-.79,2.38c-.24.5-.39.77-.39.77a15.55,15.55,0,0,0,1.06-3.18,15.29,15.29,0,0,0-1.1-9.31,17.07,17.07,0,0,0-4-5.49,21.63,21.63,0,0,0-6.86-4.21,27.12,27.12,0,0,0-9.05-1.74,42.44,42.44,0,0,0-10.27,1l.15-.14C294.16,69.84,286,93,277.18,118.18l-4,11.38-.08-.28A27.08,27.08,0,0,0,293.26,135a26.79,26.79,0,0,0,17-9.46,25.92,25.92,0,0,0,2.66-3.85,29.05,29.05,0,0,1,2.3-4,8.83,8.83,0,0,1,3.81-2.42,18.91,18.91,0,0,0,3.82-1.9,24.3,24.3,0,0,0,5.77-5.62,68,68,0,0,0,4.15-6.23,32,32,0,0,0,4.69-11.83,16.6,16.6,0,0,0-1.29-9.39,12.79,12.79,0,0,0-3.71-4.71A20.55,20.55,0,0,0,330.7,74.46Z" style="fill:#263238"></path><g style="opacity:0.2"><path d="M300.38,88.87a54.54,54.54,0,0,0,8.54-7.2,18.31,18.31,0,0,0,4.88-9.87,14,14,0,0,0-8.87-14.38,7.18,7.18,0,0,0,.21-6.67l-7.09,1L294,67l7.28,7.72Z"></path></g><g style="opacity:0.2"><path d="M186.15,101.53c-.33,5.89,3.51,11.44,8.54,14.53s11.05,4.1,16.94,4.42c-.11,5.31,3,10.35,7.24,13.51s9.57,4.63,14.85,5.17a36.13,36.13,0,0,0,15.77-1.6,23.68,23.68,0,0,0,12.34-9.65Z"></path></g><path d="M224.26,53.88a19.55,19.55,0,0,0-31,21.85,21.2,21.2,0,0,0-8.63,19.21,24.67,24.67,0,0,0,11.42,18,29.57,29.57,0,0,0,21.23,3.74c-2.45,5.18.06,11.78,4.7,15.16s10.8,4,16.47,3.13a35.65,35.65,0,0,0,14.76-5.89Z" style="fill:#8FADEC"></path><path d="M224.26,53.88l.15.35c.1.25.25.6.43,1.06l1.62,4.11c1.42,3.62,3.47,8.88,6,15.51L253.45,129l.07.18-.16.11a36,36,0,0,1-9.31,4.61,32.77,32.77,0,0,1-10.68,1.68,20.57,20.57,0,0,1-10.74-3,14.33,14.33,0,0,1-6.35-9.4,12,12,0,0,1-.13-3.39,11.26,11.26,0,0,1,.91-3.23l.28.37A30.65,30.65,0,0,1,199.4,115a25.86,25.86,0,0,1-12.46-11.65,23.13,23.13,0,0,1-2.46-7.86,20,20,0,0,1-.11-4,21.8,21.8,0,0,1,.62-3.88,20.82,20.82,0,0,1,8.16-12.06l-.08.25a19.93,19.93,0,0,1-.73-11.15,20.76,20.76,0,0,1,4.47-9A17.78,17.78,0,0,1,204,50.57a19.81,19.81,0,0,1,7.32-1.37,21.52,21.52,0,0,1,5.93.83,20.39,20.39,0,0,1,4.06,1.73,15.5,15.5,0,0,1,2.26,1.53c.47.38.71.59.71.59s-.27-.18-.76-.55a17.58,17.58,0,0,0-2.27-1.46,20.8,20.8,0,0,0-4-1.66,21.39,21.39,0,0,0-5.88-.77,19.71,19.71,0,0,0-7.21,1.4,18.49,18.49,0,0,0-3.7,2,19,19,0,0,0-3.33,3.05,20.42,20.42,0,0,0-4.34,8.86,19.57,19.57,0,0,0,.75,10.92l.06.15-.14.1a20.37,20.37,0,0,0-7.95,11.82,20.07,20.07,0,0,0-.6,3.8,19.16,19.16,0,0,0,.11,3.93,22.69,22.69,0,0,0,2.43,7.69,25.33,25.33,0,0,0,12.23,11.41,30.12,30.12,0,0,0,17.64,1.89l.49-.1-.21.46a10.47,10.47,0,0,0-.86,3.07,11.37,11.37,0,0,0,.12,3.24,13.82,13.82,0,0,0,6.12,9,20,20,0,0,0,10.47,2.91,32.22,32.22,0,0,0,10.52-1.65,35.55,35.55,0,0,0,9.18-4.53l-.09.29c-8.43-22-15.63-40.81-20.74-54.13-2.53-6.65-4.53-11.93-5.92-15.57-.67-1.8-1.2-3.2-1.56-4.16l-.39-1.07A3.77,3.77,0,0,1,224.26,53.88Z" style="fill:#263238"></path><path d="M231.41,116.45c6.59,7.27,16.44,13.74,26.21,14.72a34.73,34.73,0,0,0,27.09-9c7.1-6.77,10.58-19.34,8.85-29" style="fill:#8FADEC"></path><path d="M293.56,93.18a.67.67,0,0,1,.06.23c0,.18.08.41.13.68a24.68,24.68,0,0,1,.31,2.66,34.94,34.94,0,0,1-.84,9.78,34.13,34.13,0,0,1-6,13.22,31.56,31.56,0,0,1-14.65,10,35,35,0,0,1-17.7,1.27,39.52,39.52,0,0,1-13.36-5.72,51.64,51.64,0,0,1-7.65-6.16c-.82-.83-1.45-1.47-1.84-1.94l-.46-.52c-.1-.12-.15-.18-.14-.19a1.74,1.74,0,0,1,.18.15l.49.49c.42.44,1.07,1.06,1.91,1.86a54.43,54.43,0,0,0,7.7,6A39.66,39.66,0,0,0,255,130.51a34.78,34.78,0,0,0,17.44-1.29,31.34,31.34,0,0,0,14.43-9.77,34.16,34.16,0,0,0,6-13,36.67,36.67,0,0,0,1-9.68c-.06-1.16-.12-2.05-.22-2.65l-.07-.69C293.56,93.26,293.56,93.18,293.56,93.18Z" style="fill:#263238"></path><g style="opacity:0.2"><path d="M231.41,116.45c6.59,7.27,16.44,13.74,26.21,14.72a34.73,34.73,0,0,0,27.09-9c7.1-6.77,10.58-19.34,8.85-29"></path></g><path d="M254.32,141.48a3,3,0,0,1-.37-1.43,9.39,9.39,0,0,1,.35-3.56,9.25,9.25,0,0,1,1.64-3.17c.59-.72,1.05-1,1.09-1a18.1,18.1,0,0,0-2.23,4.33A17.79,17.79,0,0,0,254.32,141.48Z" style="fill:#263238"></path><path d="M240.84,152a3.21,3.21,0,0,1-.21-1,12.33,12.33,0,0,1,0-2.77,19,19,0,0,1,3.22-8.48,37.87,37.87,0,0,1,6.06-6.78c.86-.78,1.58-1.39,2.08-1.8a4.23,4.23,0,0,1,.81-.61,30.73,30.73,0,0,1-2.63,2.68,43.9,43.9,0,0,0-5.88,6.8,20,20,0,0,0-3.29,8.24A29.32,29.32,0,0,0,240.84,152Z" style="fill:#263238"></path><path d="M309.76,69.16c-.37-5.08-3.85-10.15-8.86-11.1a25.35,25.35,0,0,0-4.6-24.78,14.63,14.63,0,0,0-7.81-5.05,13.84,13.84,0,0,0-9.81,2.13,41.14,41.14,0,0,0-7.74,6.71l8.14,63.13A41.74,41.74,0,0,0,305,83.37C308,79.19,310.13,74.24,309.76,69.16Z" style="fill:#8FADEC"></path><path d="M309.76,69.16s0,.07,0,.22,0,.37,0,.64a14.43,14.43,0,0,1-.12,2.53,23,23,0,0,1-3.3,8.93,40.68,40.68,0,0,1-9.9,11,41.71,41.71,0,0,1-17.39,7.93l-.23,0,0-.24c-1.66-12.81-3.6-27.81-5.68-43.78-.85-6.66-1.69-13.15-2.49-19.34V37l.08-.08a49.67,49.67,0,0,1,6.43-5.84,16.81,16.81,0,0,1,7.68-3.19,11.17,11.17,0,0,1,4,.21,12.18,12.18,0,0,1,3.61,1.57,19.74,19.74,0,0,1,5.31,5.23,25.52,25.52,0,0,1,4.56,12.41A24.73,24.73,0,0,1,301,58.11l-.11-.2a10.34,10.34,0,0,1,5.53,3.25,13.45,13.45,0,0,1,2.48,4.09,13.82,13.82,0,0,1,.74,2.89c.07.67.08,1,.08,1s0-.09-.05-.26l-.1-.75a15.09,15.09,0,0,0-.81-2.84,13.48,13.48,0,0,0-2.51-4,10,10,0,0,0-5.41-3.11l-.17,0,.06-.16A24.65,24.65,0,0,0,302,47.33a25.22,25.22,0,0,0-4.55-12.2,19.25,19.25,0,0,0-5.2-5.09,10.87,10.87,0,0,0-7.36-1.7,16.31,16.31,0,0,0-7.44,3.12,49.09,49.09,0,0,0-6.35,5.79l.07-.21c.8,6.2,1.64,12.68,2.5,19.34,2.05,16,4,31,5.61,43.79L279,100a42.25,42.25,0,0,0,9.51-3.1,43.47,43.47,0,0,0,7.74-4.69,40.93,40.93,0,0,0,9.89-10.85,23.42,23.42,0,0,0,3.39-8.81,17.14,17.14,0,0,0,.19-2.51v-.64A1.76,1.76,0,0,1,309.76,69.16Z" style="fill:#263238"></path><g style="opacity:0.2"><path d="M284.55,95.32,222.9,116.5a17.19,17.19,0,0,0,16.56-.54A18.85,18.85,0,0,0,270,113.13a13.08,13.08,0,0,0,14.56-17.81Z"></path></g><path d="M282.14,82.44,229.78,67.36a26,26,0,0,0-25.81,11c-2.08,3.15-3.47,7-2.84,10.69a14.42,14.42,0,0,0,5.38,8.42,42.44,42.44,0,0,0,8.81,5.11c-2.15,1.15-2.83,4.1-2,6.39a10.41,10.41,0,0,0,4.93,5.17A21.35,21.35,0,0,0,242,111.75a14.44,14.44,0,0,0,26.49-2.36,16.07,16.07,0,0,0,13.62-26.95Z" style="fill:#8FADEC"></path><path d="M282.14,82.44s.16.16.47.5a14.5,14.5,0,0,1,1.25,1.62,16.49,16.49,0,0,1,2.57,7.33,16.28,16.28,0,0,1-.37,5.64,15,15,0,0,1-3,6,17,17,0,0,1-6.1,4.67,16.4,16.4,0,0,1-8.49,1.38l.21-.13a14.66,14.66,0,0,1-26.89,2.42l.38.07a21.65,21.65,0,0,1-18.3,4.52,20.41,20.41,0,0,1-4.82-1.67,14.2,14.2,0,0,1-4.24-3,7.18,7.18,0,0,1-2.11-4.83,5.19,5.19,0,0,1,2.47-4.67v.47l-1.38-.67a38.69,38.69,0,0,1-7.09-4.17,16.37,16.37,0,0,1-5.07-6.28,11.83,11.83,0,0,1-.49-7.84,19.57,19.57,0,0,1,3.48-6.87,26.3,26.3,0,0,1,25.17-9.8h0l38,11,10.59,3.12,2.78.83c.63.19.94.31.94.31l-1-.25-2.81-.78-10.64-3-38-10.84h0A25.92,25.92,0,0,0,205,77.24a19.39,19.39,0,0,0-3.38,6.69,11.32,11.32,0,0,0,.48,7.52,15.76,15.76,0,0,0,4.91,6.07,38,38,0,0,0,7,4.11l1.38.67.46.22-.45.24a4.68,4.68,0,0,0-2.2,4.21,6.67,6.67,0,0,0,2,4.47,13.76,13.76,0,0,0,4.09,2.89A19.53,19.53,0,0,0,224,116a21.15,21.15,0,0,0,17.88-4.38l.23-.2.14.27a14.09,14.09,0,0,0,22,3.86,14.29,14.29,0,0,0,4.11-6.17l.05-.15.16,0a16.11,16.11,0,0,0,8.29-1.32,16.59,16.59,0,0,0,6-4.55,14.78,14.78,0,0,0,3-5.87,16.24,16.24,0,0,0,.4-5.54,16.55,16.55,0,0,0-2.45-7.3A14,14,0,0,0,282.57,83C282.28,82.63,282.14,82.44,282.14,82.44Z" style="fill:#263238"></path><g style="opacity:0.1"><path d="M282.14,82.44,229.78,67.36a26,26,0,0,0-25.81,11c-2.08,3.15-3.47,7-2.84,10.69a14.42,14.42,0,0,0,5.38,8.42,42.44,42.44,0,0,0,8.81,5.11c-2.15,1.15-2.83,4.1-2,6.39a10.41,10.41,0,0,0,4.93,5.17A21.35,21.35,0,0,0,242,111.75a14.44,14.44,0,0,0,26.49-2.36,16.07,16.07,0,0,0,13.62-26.95Z" style="fill:#fff"></path></g><g style="opacity:0.2"><path d="M293.47,58.44A20.65,20.65,0,0,0,279.59,43.7a12,12,0,0,0-6.47-9.11l-1.78,54.59a29.11,29.11,0,0,0,17.77-10.69A24.14,24.14,0,0,0,293.47,58.44Z"></path></g><path d="M266.38,91a65.51,65.51,0,0,0,14.43-8.1,29.16,29.16,0,0,0,9.83-13.09c1.79-5.24,1.51-11.31-1.45-16s-8.77-7.6-14.19-6.47A22.89,22.89,0,0,0,232.86,33C224.2,35.43,217.29,43.59,217,52.57s6.48,17.84,15.34,19.32Z" style="fill:#8FADEC"></path><path d="M266.38,91l-.61-.31-1.78-1L257.16,86,232.22,72.06l.06,0a18.23,18.23,0,0,1-10.23-5.73,20.08,20.08,0,0,1-5.25-11.78c-.83-9.19,6-19,16-21.78l-.15.12A23.62,23.62,0,0,1,246.51,23a25.31,25.31,0,0,1,5.78-.8,23.79,23.79,0,0,1,5.72.65A22.6,22.6,0,0,1,263.28,25a24.93,24.93,0,0,1,4.47,3.32,23.94,23.94,0,0,1,7.49,19.11l-.28-.26a13.13,13.13,0,0,1,7.18.67,15.1,15.1,0,0,1,5.7,3.93A17,17,0,0,1,292,63.67a22.22,22.22,0,0,1-3.28,10.79,31,31,0,0,1-6.29,7.35,51.67,51.67,0,0,1-11.54,7.26c-1.43.68-2.54,1.17-3.3,1.49l-.87.36a1.43,1.43,0,0,1-.29.11,1.71,1.71,0,0,1,.29-.15l.84-.39c.74-.35,1.85-.86,3.27-1.56a52.94,52.94,0,0,0,11.41-7.34,30.79,30.79,0,0,0,6.18-7.31,21.87,21.87,0,0,0,3.18-10.62,16.6,16.6,0,0,0-4-11.63A14.69,14.69,0,0,0,282,48.24a12.6,12.6,0,0,0-6.92-.63l-.31.07,0-.33a23.48,23.48,0,0,0-7.37-18.69A23.88,23.88,0,0,0,263,25.42a22,22,0,0,0-5.13-2.05,22.73,22.73,0,0,0-5.59-.64,25.29,25.29,0,0,0-5.65.78,23.24,23.24,0,0,0-13.58,9.67l0,.08-.1,0a22.21,22.21,0,0,0-11.77,8.29,18.87,18.87,0,0,0,1.22,24.47,17.92,17.92,0,0,0,10,5.64h.06l24.79,14,6.8,3.88,1.77,1C266.18,90.89,266.38,91,266.38,91Z" style="fill:#263238"></path><g style="opacity:0.2"><path d="M267,63.66a16.89,16.89,0,0,0-30.39,5,10.35,10.35,0,0,0-6.91,7.13L267.27,82A17.31,17.31,0,0,0,267,63.66Z"></path></g><path d="M214.89,94.08a7,7,0,0,1,2-.92,21,21,0,0,1,10.46-.81,6.69,6.69,0,0,1,2.1.6,42.66,42.66,0,0,0-7.34-.35A42.34,42.34,0,0,0,214.89,94.08Z" style="fill:#263238"></path><path d="M249.9,51.77a16.74,16.74,0,0,1,2.18,3.48A15.74,15.74,0,0,1,253.81,59a16.74,16.74,0,0,1-2.18-3.48A15.74,15.74,0,0,1,249.9,51.77Z" style="fill:#263238"></path><path d="M260.54,41.83a80.07,80.07,0,0,1-1.67,8.9,79.21,79.21,0,0,1-2.19,8.78,78.5,78.5,0,0,1,1.68-8.89A77.84,77.84,0,0,1,260.54,41.83Z" style="fill:#263238"></path><path d="M304,132.7a18.8,18.8,0,0,1,8.07,3.74" style="fill:#8FADEC"></path><path d="M312,136.44c-.09.12-1.69-1.1-3.92-2.12s-4.18-1.46-4.15-1.62a9.87,9.87,0,0,1,4.37,1.15A9.55,9.55,0,0,1,312,136.44Z" style="fill:#263238"></path><path d="M293.56,102.7A70.17,70.17,0,0,1,319.6,89" style="fill:#8FADEC"></path><path d="M319.6,89a4.55,4.55,0,0,1-1.09.43c-.71.23-1.74.59-3,1a76.84,76.84,0,0,0-18.43,9.7c-1.09.78-2,1.42-2.56,1.87a5.28,5.28,0,0,1-1,.66,5.19,5.19,0,0,1,.84-.82c.56-.5,1.41-1.19,2.47-2a65.63,65.63,0,0,1,8.86-5.64,63.84,63.84,0,0,1,9.67-4.11c1.27-.42,2.32-.72,3.05-.9A5.49,5.49,0,0,1,319.6,89Z" style="fill:#263238"></path><path d="M196.44,127.92s.21-.26.64-.64,1.09-.92,1.92-1.54a46.17,46.17,0,0,1,6.92-4.24,45.34,45.34,0,0,1,7.55-3c1-.29,1.81-.5,2.38-.61a2.75,2.75,0,0,1,.9-.13c0,.08-1.21.42-3.17,1.09A57.85,57.85,0,0,0,199.22,126C197.51,127.2,196.49,128,196.44,127.92Z" style="fill:#263238"></path><path d="M195.6,119.67a29.83,29.83,0,0,1,11.55-2.17c0,.15-2.61.42-5.79,1S195.64,119.81,195.6,119.67Z" style="fill:#263238"></path><path d="M257.36,59.53a16.59,16.59,0,0,0-19.45,9.41c-2.77,1.12-6.17,3.93-7.23,6l2.45,20.86,30.18-2.66,5.15-15.11A16.58,16.58,0,0,0,257.36,59.53Z" style="fill:#8FADEC"></path><path d="M257.36,59.53l.41.11c.26.1.67.2,1.17.41a15.58,15.58,0,0,1,4,2.5,17,17,0,0,1,4.46,5.94,16,16,0,0,1,1.23,9.62h0c-1.53,4.55-3.25,9.64-5.11,15.13l-.05.15h-.16l-22.36,2-7.82.69-.25,0,0-.25c-.87-7.48-1.68-14.52-2.42-20.86v-.07l0-.06a12.92,12.92,0,0,1,3.38-3.72,16.66,16.66,0,0,1,4-2.41l-.11.12a15.88,15.88,0,0,1,6.34-7.38A17,17,0,0,1,251,59a15.62,15.62,0,0,1,4.72.13c.53.1.93.23,1.2.3l.4.13a16.68,16.68,0,0,0-13.13,2.23A15.7,15.7,0,0,0,238.1,69l0,.08-.08,0a16.59,16.59,0,0,0-3.87,2.37,12.51,12.51,0,0,0-3.23,3.59l0-.13c.75,6.33,1.59,13.38,2.48,20.85l-.28-.22,7.81-.7,22.37-2-.21.16c1.88-5.48,3.63-10.56,5.19-15.1v0a15.72,15.72,0,0,0-1.13-9.41,16.7,16.7,0,0,0-9.77-9.09Z" style="fill:#263238"></path><g style="opacity:0.1"><path d="M257.36,59.53a16.59,16.59,0,0,0-19.45,9.41c-2.77,1.12-6.17,3.93-7.23,6l2.45,20.86,30.18-2.66,5.15-15.11A16.58,16.58,0,0,0,257.36,59.53Z" style="fill:#fff"></path></g><g style="opacity:0.2"><path d="M237.15,96.05,226.4,86.11c.74,3,1.49,6,2.23,9.07a7.27,7.27,0,0,0-6.41,5.13l8.58-2c4.93,3,10.15,5.72,15.79,7s11.8.9,16.87-1.87,8.83-8.23,8.69-14A74.77,74.77,0,0,1,237.15,96.05Z"></path></g><path d="M232.33,96.68c0,.15-1.69.25-3.65.9s-3.39,1.54-3.48,1.41a7.16,7.16,0,0,1,3.32-1.91A7,7,0,0,1,232.33,96.68Z" style="fill:#263238"></path><path d="M272.41,79.38c-1.92-1.79-5.46-1.75-6.87.45a8.29,8.29,0,0,0-8.74-3.42,11.24,11.24,0,0,0-7.4,6.25c-1.44,3-.39,11.46,0,14.77l4.61,6.75c6.53-.37,11.93-5.63,16.08-10.78A18.9,18.9,0,0,0,274,86.67C274.72,84.14,274.32,81.17,272.41,79.38Z" style="fill:#8FADEC"></path><path d="M272.41,79.38a3.54,3.54,0,0,1,.51.48,6.1,6.1,0,0,1,1,1.74,7.88,7.88,0,0,1,.5,3.2A10.41,10.41,0,0,1,273.33,89a24.62,24.62,0,0,1-2.91,4.38,53.86,53.86,0,0,1-4,4.56,28.49,28.49,0,0,1-5.32,4.24,18.46,18.46,0,0,1-3.3,1.55,15.43,15.43,0,0,1-3.73.75h-.14l-.08-.12-4.29-6.28-.33-.47,0,0v-.07A71.63,71.63,0,0,1,248.43,87a18.73,18.73,0,0,1,.21-2.5,7,7,0,0,1,.77-2.37,12.39,12.39,0,0,1,2.92-3.66,10.56,10.56,0,0,1,3.82-2.09,8.93,8.93,0,0,1,4-.21,8,8,0,0,1,5.53,3.6h-.26a4,4,0,0,1,2.82-1.7,5.31,5.31,0,0,1,2.45.24A5,5,0,0,1,272,79a3,3,0,0,1,.38.37,6.63,6.63,0,0,0-1.78-.94,5.22,5.22,0,0,0-2.36-.16,3.77,3.77,0,0,0-2.61,1.63l-.12.2-.13-.2a7.68,7.68,0,0,0-5.33-3.37,8.42,8.42,0,0,0-3.81.23,10.27,10.27,0,0,0-3.65,2,12.4,12.4,0,0,0-2.79,3.54,6.36,6.36,0,0,0-.7,2.21,17.72,17.72,0,0,0-.2,2.44,72.58,72.58,0,0,0,.75,10.41l-.05-.12.33.48,4.28,6.28-.22-.11a14.77,14.77,0,0,0,3.58-.72,17.51,17.51,0,0,0,3.22-1.49,28.14,28.14,0,0,0,5.25-4.14,51.9,51.9,0,0,0,4-4.49A24.4,24.4,0,0,0,273,88.81a10.25,10.25,0,0,0,1.17-4,7.8,7.8,0,0,0-.41-3.11A7.17,7.17,0,0,0,272.41,79.38Z" style="fill:#263238"></path><g style="opacity:0.30000000000000004"><path d="M230.36,75c2-2.23,3.33,5.18,6.14,6.29,3.21,1.26,7,1,9.87,2.93,2.29,1.56,3.49,4.29,4.18,7,2.73.12,5.59,1.4,6.77,3.87a8.15,8.15,0,0,1,.6,4,6,6,0,0,1-1.13,3.48,5.11,5.11,0,0,1-4.45,1.56,15,15,0,0,1-4.66-1.5s-11.1-4-14.69-9.68S228.55,77,230.36,75Z"></path></g><path d="M254.32,96.58a6.16,6.16,0,0,0-6.17-2.47c1-1.83.17-4.19-1.33-5.62a12.34,12.34,0,0,0-5.53-2.62,22.16,22.16,0,0,1-5.84-2A9.45,9.45,0,0,1,231,74.68c-4,3.73-5.12,10-3.33,15.19s6.09,9.25,11.07,11.54a35.65,35.65,0,0,0,16.07,2.76l.2-.08C256.26,102.11,255.65,98.5,254.32,96.58Z" style="fill:#8FADEC"></path><path d="M254.32,96.58a5.71,5.71,0,0,1,1,1.83,9.75,9.75,0,0,1,.5,2.45,5.74,5.74,0,0,1-.66,3.31l0,0-.05,0-.2.09h-.05a44.56,44.56,0,0,1-7.36-.28,30.38,30.38,0,0,1-8.85-2.44,22.5,22.5,0,0,1-8.37-6.53A18.42,18.42,0,0,1,227.44,90a15.89,15.89,0,0,1-.83-6,15.24,15.24,0,0,1,1.21-5.28,13.17,13.17,0,0,1,3-4.28l.52-.49-.09.71a9.25,9.25,0,0,0,2.88,7.88c2,1.93,4.8,2.42,7.18,3.07s4.7,1.51,6.09,3.19a4.92,4.92,0,0,1,.87,5.32l-.14-.19a6.19,6.19,0,0,1,5,1.23,4.54,4.54,0,0,1,1.22,1.37,9.22,9.22,0,0,0-1.3-1.25,6.19,6.19,0,0,0-4.84-1.09l-.28.06.13-.25a4.65,4.65,0,0,0-.9-5c-1.32-1.56-3.54-2.43-5.93-3-1.2-.31-2.47-.59-3.75-1a10.14,10.14,0,0,1-3.64-2.09,9.79,9.79,0,0,1-3.07-8.3l.43.22A12.71,12.71,0,0,0,228.3,79a14.61,14.61,0,0,0-1.17,5.1,15.44,15.44,0,0,0,.8,5.76,17.53,17.53,0,0,0,2.7,4.92,22.16,22.16,0,0,0,8.16,6.42,30.44,30.44,0,0,0,8.71,2.47,44.67,44.67,0,0,0,7.3.37h-.05l.2-.08-.07.06a5.51,5.51,0,0,0,.69-3.14,9.76,9.76,0,0,0-.43-2.41A10.69,10.69,0,0,0,254.32,96.58Z" style="fill:#263238"></path><path d="M194.05,106.79a4.18,4.18,0,0,1-.89-.78,17.58,17.58,0,0,1-2.06-2.54,19.61,19.61,0,0,1-.89-20.53,17.59,17.59,0,0,1,1.82-2.7,5,5,0,0,1,.83-.87c.08.07-1.08,1.32-2.33,3.74a20.18,20.18,0,0,0,.88,20.16C192.86,105.57,194.13,106.72,194.05,106.79Z" style="fill:#fff"></path><path d="M203.08,56.63c0,.08-1.08.49-2.61,1.57a13.88,13.88,0,0,0-5.87,12.61c.15,1.87.55,3,.46,3a2.26,2.26,0,0,1-.33-.76,10.66,10.66,0,0,1-.5-2.21,13.36,13.36,0,0,1,6-12.95,11.16,11.16,0,0,1,2-1A2.31,2.31,0,0,1,203.08,56.63Z" style="fill:#fff"></path><path d="M234.15,36.66a22.75,22.75,0,0,0-5.23,2.1,17.72,17.72,0,0,0-4.65,3.9,17.25,17.25,0,0,0-3.46,6.52,17,17,0,0,0-.22,7.39,17.79,17.79,0,0,0,2.1,5.69,22.55,22.55,0,0,0,3.5,4.41s-.13-.06-.33-.22a10.65,10.65,0,0,1-.87-.74,16.17,16.17,0,0,1-2.62-3.26,17.72,17.72,0,0,1-2.26-5.79,16.45,16.45,0,0,1,3.8-14.31,17.52,17.52,0,0,1,4.83-3.91,15.74,15.74,0,0,1,3.89-1.54c.48-.13.87-.16,1.12-.21S234.15,36.64,234.15,36.66Z" style="fill:#fff"></path><path d="M254,26.68c0,.09-1,.06-2.7.21A26.08,26.08,0,0,0,245,28.28a26.62,26.62,0,0,0-5.77,3c-1.37.94-2.16,1.63-2.21,1.57a9,9,0,0,1,2-1.87,22.21,22.21,0,0,1,5.81-3.15,21.91,21.91,0,0,1,6.48-1.27A9.36,9.36,0,0,1,254,26.68Z" style="fill:#fff"></path><path d="M259,61.63a33.82,33.82,0,0,0-3.5-.82,14.53,14.53,0,0,0-14.63,7,32.34,32.34,0,0,0-1.55,3.24,3.06,3.06,0,0,1,.19-1,12.27,12.27,0,0,1,1.05-2.46,14.15,14.15,0,0,1,15-7.19,12.57,12.57,0,0,1,2.57.73A2.94,2.94,0,0,1,259,61.63Z" style="fill:#fff"></path><path d="M210.85,95.92a2.36,2.36,0,0,1-.69-.3,11,11,0,0,1-1.7-1.15,13.94,13.94,0,0,1-4-5.44,11.15,11.15,0,0,1-.75-6.7,4,4,0,0,1,1-1.8c.37-.34.64-.43.65-.41a4.38,4.38,0,0,0-1.32,2.3,11.71,11.71,0,0,0,.88,6.42,15,15,0,0,0,3.75,5.35C210,95.33,210.9,95.84,210.85,95.92Z" style="fill:#fff"></path><path d="M233,91.35s-.56-.31-1.23-1.08a10,10,0,0,1-2.29-7.41,3.53,3.53,0,0,1,.41-1.58,16.7,16.7,0,0,0,.49,5.36A16.77,16.77,0,0,0,233,91.35Z" style="fill:#fff"></path><path d="M257.27,79.76c0,.08-.57.1-1.43.37A6.39,6.39,0,0,0,253,82a6.23,6.23,0,0,0-1.39,3.13c-.13.89-.06,1.46-.14,1.47a2.54,2.54,0,0,1-.23-1.51,5.89,5.89,0,0,1,1.36-3.43,5.77,5.77,0,0,1,3.17-1.89A2.52,2.52,0,0,1,257.27,79.76Z" style="fill:#fff"></path><path d="M284.48,53c-.06.06-.61-.48-1.65-1.14a11.85,11.85,0,0,0-4.43-1.7,12.12,12.12,0,0,0-4.73.19c-1.19.3-1.89.64-1.93.56a4.73,4.73,0,0,1,1.83-.92,10.72,10.72,0,0,1,4.92-.34,10.56,10.56,0,0,1,4.55,1.9A4.79,4.79,0,0,1,284.48,53Z" style="fill:#fff"></path><path d="M289.35,32.57a20.26,20.26,0,0,0-11.45,2.1,13,13,0,0,1,11.45-2.1Z" style="fill:#fff"></path><path d="M325.05,69.2a23.26,23.26,0,0,0,0-3.8,12.73,12.73,0,0,0-12.3-11.34,23.32,23.32,0,0,0-3.8.3,3.29,3.29,0,0,1,1-.34,11.47,11.47,0,0,1,2.83-.32A12.62,12.62,0,0,1,325.4,65.36a11.18,11.18,0,0,1-.09,2.84A3.36,3.36,0,0,1,325.05,69.2Z" style="fill:#fff"></path><path d="M308.06,97.41a65.76,65.76,0,0,0-6.81,3.39,62.64,62.64,0,0,0-6.07,4.59,7.16,7.16,0,0,1,1.48-1.7,26.07,26.07,0,0,1,4.31-3.33,25.71,25.71,0,0,1,4.9-2.37A7.56,7.56,0,0,1,308.06,97.41Z" style="fill:#fff"></path><path d="M219,157.28a2.15,2.15,0,0,1-.76-.17,11.23,11.23,0,0,1-1.93-.84,13.11,13.11,0,0,1-6.8-11.48,11.53,11.53,0,0,1,.18-2.09,2,2,0,0,1,.22-.74c.09,0-.12,1.09,0,2.82A13.79,13.79,0,0,0,216.49,156C218,156.86,219,157.19,219,157.28Z" style="fill:#fff"></path><path d="M228,173.35a25.81,25.81,0,0,1-2.38-1.22,20.88,20.88,0,0,1-5.42-3.59,7.55,7.55,0,0,1-1.89-3.11,5.68,5.68,0,0,1,0-3,3.25,3.25,0,0,1,1.55-2.2,5.16,5.16,0,0,0-1.07,5,7.49,7.49,0,0,0,1.8,2.89,25,25,0,0,0,5.23,3.63A9.7,9.7,0,0,1,228,173.35Z" style="fill:#fff"></path><path d="M184,129.91a3.18,3.18,0,0,1-1-.4,11.29,11.29,0,0,1-2.36-1.67,12.66,12.66,0,0,1-1.47-17.35,11.36,11.36,0,0,1,2-2,3,3,0,0,1,.89-.56,21,21,0,0,0-2.63,2.82,12.7,12.7,0,0,0,1.43,16.86A21.39,21.39,0,0,0,184,129.91Z" style="fill:#fff"></path><path d="M195.32,144.55c0,.06-.51,0-1.19-.43a5.5,5.5,0,0,1-2.43-5.38c.13-.78.4-1.2.46-1.18s-.06.48-.1,1.22a6.37,6.37,0,0,0,.55,2.79,6,6,0,0,0,1.73,2.24C194.92,144.28,195.35,144.47,195.32,144.55Z" style="fill:#fff"></path><path d="M235.89,95c-.06.13-.63,0-1.17-.46s-.79-1-.67-1.07.51.27,1,.67S236,94.85,235.89,95Z" style="fill:#fff"></path><path d="M287.12,58.34c-.14,0-.56-.73-.94-1.75s-.59-1.87-.46-1.93.56.73.94,1.75S287.25,58.29,287.12,58.34Z" style="fill:#fff"></path><path d="M311.47,151.71s-.11.09-.34.21-.57.31-1,.5a26,26,0,0,1-4,1.41,29.5,29.5,0,0,1-26.29-5.51,26.92,26.92,0,0,1-3.07-2.88c-.34-.37-.57-.67-.74-.88s-.24-.31-.22-.33a11.47,11.47,0,0,1,1.11,1.07,33.18,33.18,0,0,0,3.15,2.73,30.43,30.43,0,0,0,26,5.44,32,32,0,0,0,4-1.24A10.38,10.38,0,0,1,311.47,151.71Z" style="fill:#fff"></path><path d="M328,136.67a12.31,12.31,0,0,1-4.46,3.22,12.55,12.55,0,0,1-5.31,1.47c0-.16,2.38-.63,5.08-1.94S327.88,136.54,328,136.67Z" style="fill:#fff"></path><path d="M242.52,158.51c0,.14-1.17-.33-1.75-1.63a2.43,2.43,0,0,1-.08-2.38,15.69,15.69,0,0,0,.55,2.17C241.73,157.79,242.6,158.38,242.52,158.51Z" style="fill:#263238"></path><path d="M325.59,87.33a5.48,5.48,0,0,1-2.28.61A5.54,5.54,0,0,1,321,88a5.31,5.31,0,0,1,2.28-.61A5.55,5.55,0,0,1,325.59,87.33Z" style="fill:#263238"></path><path d="M246.88,47.05c.14,0,.35.29.48.74s.12.84,0,.88-.35-.29-.48-.74S246.74,47.09,246.88,47.05Z" style="fill:#263238"></path><path d="M227.89,86.87a37.9,37.9,0,0,1-4.17-1.38,35.92,35.92,0,0,1-4.16-1.4,18.9,18.9,0,0,1,8.33,2.78Z" style="fill:#263238"></path><path d="M192.7,120.63c0,.14-.49.31-1.13.37s-1.17,0-1.18-.15.49-.31,1.13-.37S192.69,120.48,192.7,120.63Z" style="fill:#263238"></path><path d="M347.7,314.29a2.76,2.76,0,0,0,.05-2.79,22.9,22.9,0,0,0-9.37,10.61,2.76,2.76,0,0,0-1.3-2.14,16.18,16.18,0,0,0-2.24,12.4c-.3-1-2-.95-2.57-.06a3.84,3.84,0,0,0-.1,3.12,22.22,22.22,0,0,0,6.72,10.62l.66.46c4.9-13.71,13.8-25.58,22.56-37.21A26,26,0,0,0,347.7,314.29Z" style="fill:#455a64"></path><path d="M349,398.5a71.77,71.77,0,0,0,13.72,3.28q-4.05-8.73-8.09-17.46l2.15.82a28,28,0,0,0-11.8-17l2.42.19a22.54,22.54,0,0,0-14.84-6.49c-5.52-.22-12.71,1.25-16.93,4.82a27.41,27.41,0,0,0,19.91,33c-.17-1.27-.33-2.55-.49-3.83a41.06,41.06,0,0,0,15.6,6.36Z" style="fill:#455a64"></path><path d="M354.6,394.75s-.13-.13-.33-.41-.49-.74-.83-1.23a39.74,39.74,0,0,0-3.47-4.19,49.36,49.36,0,0,0-6.08-5.29,94.16,94.16,0,0,0-8.3-5.4l-15.65-9-4.73-2.76-1.27-.77a2.25,2.25,0,0,1-.42-.3,1.84,1.84,0,0,1,.47.21l1.32.68,4.81,2.62c4,2.24,9.63,5.29,15.74,8.83a88.27,88.27,0,0,1,8.32,5.47,46.86,46.86,0,0,1,6.06,5.42,33.78,33.78,0,0,1,3.37,4.33c.34.55.59,1,.75,1.29A2.31,2.31,0,0,1,354.6,394.75Z" style="fill:#263238"></path><path d="M344.67,396.16A6.8,6.8,0,0,1,344,395l-1.7-3.32c-1.42-2.81-3.34-6.71-5.44-11-.42-.85-.82-1.7-1.21-2.5l-.18-.36h.4a62.69,62.69,0,0,1,10.42.56c1.3.18,2.33.37,3,.52a4.91,4.91,0,0,1,1.08.28,5.7,5.7,0,0,1-1.11-.1c-.72-.09-1.75-.23-3-.37a76.23,76.23,0,0,0-10.37-.38l.22-.37c.4.8.81,1.64,1.22,2.5,2.1,4.32,4,8.25,5.31,11.1.62,1.36,1.15,2.5,1.55,3.39A7.12,7.12,0,0,1,344.67,396.16Z" style="fill:#263238"></path><path d="M327,389.05a9.24,9.24,0,0,1-.55-1.47c-.31-1-.74-2.35-1.25-4.08-1-3.46-2.27-8.28-3.87-13.53v0l-.09-.27.29-.06a54.87,54.87,0,0,1,14-.94c1.8.12,3.25.28,4.25.42a8.46,8.46,0,0,1,1.54.29,12.09,12.09,0,0,1-1.57-.09c-1-.08-2.45-.18-4.24-.25a60.39,60.39,0,0,0-13.92,1.08l.2-.33v0c1.61,5.27,2.8,10.1,3.73,13.58.45,1.67.82,3.06,1.1,4.12A8.28,8.28,0,0,1,327,389.05Z" style="fill:#263238"></path><path d="M421.27,333.39a63.1,63.1,0,0,0,11-5.28l-14.94-7.3,1.89-.63a24.18,24.18,0,0,0-17.19-5l1.72-1.19a19.49,19.49,0,0,0-13.49,3.74c-3.83,2.86-7.85,7.77-8.73,12.46a23.67,23.67,0,0,0,31.35,11.3l-2.41-2.3A35.61,35.61,0,0,0,424.39,335Z" style="fill:#455a64"></path><path d="M423,327.82a10.52,10.52,0,0,1-1.63-.44,34.67,34.67,0,0,0-4.51-.9,42.43,42.43,0,0,0-6.81-.26,80.18,80.18,0,0,0-8.33.84l-15.06,2.45-4.57.7a10,10,0,0,1-1.69.18A11,11,0,0,1,382,330l4.55-.86c3.84-.69,9.14-1.69,15-2.6a71.15,71.15,0,0,1,8.39-.81,38.94,38.94,0,0,1,6.88.38,27.77,27.77,0,0,1,4.52,1.06A10.12,10.12,0,0,1,423,327.82Z" style="fill:#263238"></path><path d="M417.09,334.18a4.86,4.86,0,0,1-1.12-.41l-3-1.28c-2.48-1.11-5.9-2.67-9.66-4.43l-2.18-1-.36-.17.3-.25a53.19,53.19,0,0,1,7.31-5.3c1-.58,1.77-1,2.33-1.3a3.63,3.63,0,0,1,.89-.39c0,.06-1.15.74-3,2a65.31,65.31,0,0,0-7.15,5.39l-.07-.42,2.19,1c3.76,1.75,7.16,3.37,9.6,4.56l2.89,1.44A6.06,6.06,0,0,1,417.09,334.18Z" style="fill:#263238"></path><path d="M401.32,339.07a6.47,6.47,0,0,1-1.18-.68c-.73-.46-1.78-1.16-3.07-2-2.57-1.76-6-4.31-10-7h0l-.23-.16L387,329a47.05,47.05,0,0,1,8.92-8.29c1.27-.9,2.34-1.58,3.09-2a5.77,5.77,0,0,1,1.19-.64,7.55,7.55,0,0,1-1.08.81c-.72.49-1.75,1.21-3,2.15a52.16,52.16,0,0,0-8.74,8.32l-.06-.38h0c3.95,2.66,7.38,5.26,9.9,7.09l3,2.17A7,7,0,0,1,401.32,339.07Z" style="fill:#263238"></path><path d="M380.9,330.26a1.4,1.4,0,0,1-.32.12l-1,.31-3.7,1.16c-3.21,1-7.84,2.52-13.47,4.62a182.31,182.31,0,0,0-19.32,8.5,134,134,0,0,0-21.74,13.89,103.14,103.14,0,0,0-18,18.44,93.69,93.69,0,0,0-6.21,9.39c-.85,1.55-1.68,3-2.4,4.51s-1.43,2.88-2,4.29A74.34,74.34,0,0,0,288.5,409c-.21.82-.34,1.55-.45,2.19s-.2,1.17-.28,1.61l-.19,1a2.22,2.22,0,0,1-.08.34,1.45,1.45,0,0,1,0-.34c0-.25.08-.58.13-1s.15-1,.24-1.63.21-1.38.4-2.2a71,71,0,0,1,4.19-13.63c.52-1.41,1.26-2.81,1.94-4.32s1.53-3,2.38-4.54A94.28,94.28,0,0,1,303,377a102.41,102.41,0,0,1,18.06-18.55,131.83,131.83,0,0,1,21.84-13.92,174.87,174.87,0,0,1,19.41-8.41c5.66-2.07,10.31-3.53,13.54-4.48,1.61-.49,2.88-.82,3.73-1.06l1-.26Z" style="fill:#263238"></path><path d="M285.71,405.06c0-.78,10.91-20,18-28.29,0,0-15,27.86-16.11,38.5Z" style="fill:#263238"></path><path d="M350.85,344.23A27.37,27.37,0,0,1,378,341.32l-2.63.78c4,.58,7.34,3.51,9.17,7.08a22.8,22.8,0,0,1,2,11.72l-2.24-1.53c1.59,4.81,2.44,7.46,1.77,11.57-.94.67-7.72-2.06-13.5-1.48.29.15.2.63-.09.79a1.32,1.32,0,0,1-.94,0c-5.11-1.06-10.42-2.2-14.55-5.39C351.08,360.28,348.56,351.41,350.85,344.23Z" style="fill:#455a64"></path><path d="M379.88,362.09a46.91,46.91,0,0,0-3.56-4.41,38.41,38.41,0,0,0-11.13-7.8c-4.86-2.24-9.47-3.82-12.77-5l-3.92-1.4a9.58,9.58,0,0,1-1.42-.57,7.63,7.63,0,0,1,1.48.38c.95.27,2.31.69,4,1.24a120.49,120.49,0,0,1,12.87,4.9,36.27,36.27,0,0,1,11.17,8,23.63,23.63,0,0,1,2.56,3.32c.27.41.45.75.58,1A1.36,1.36,0,0,1,379.88,362.09Z" style="fill:#263238"></path><path d="M372.08,362.05c-.08,0-.38-1.27-1.09-3.28a37.1,37.1,0,0,0-3.62-7.45l-.4-.62-.32-.49.58.09c3,.49,5.78.95,7.75,1.31a21.56,21.56,0,0,1,3.15.67,20.53,20.53,0,0,1-3.21-.32c-2-.27-4.72-.67-7.77-1.14l.25-.4.41.62a31.17,31.17,0,0,1,3.53,7.62c.32,1,.51,1.88.63,2.46A2.85,2.85,0,0,1,372.08,362.05Z" style="fill:#263238"></path><path d="M361.54,358.49a3.71,3.71,0,0,1-.36-.91c-.2-.59-.47-1.45-.79-2.52-.65-2.15-1.51-5.11-2.43-8.41l-.08-.26.27-.06.08,0c3.36-.7,6.42-1.31,8.63-1.73l2.62-.46a3.28,3.28,0,0,1,1-.1,4.11,4.11,0,0,1-.94.3c-.61.16-1.5.37-2.6.63-2.19.5-5.23,1.17-8.59,1.87l-.07,0,.2-.33c.92,3.3,1.73,6.28,2.28,8.45.28,1.08.5,2,.64,2.57A3.11,3.11,0,0,1,361.54,358.49Z" style="fill:#263238"></path><path d="M317.43,358a24.12,24.12,0,0,0,7.86-22.81c-.39.71-.79,1.41-1.19,2.12a11.32,11.32,0,0,0-4.28-9.3,20,20,0,0,0-9.68-4.06c.29.74.58,1.48.88,2.23-3.83-2.32-5.94-3.58-9.61-3.82-.76.68.25,7.05-1.4,11.91-.07-.27-.5-.29-.69-.08a1.21,1.21,0,0,0-.21.81c-.1,4.61-.16,9.4,1.77,13.59C303.66,354.63,310.8,358.56,317.43,358Z" style="fill:#455a64"></path><path d="M307.79,329.49a5.66,5.66,0,0,1,1,.89,20.11,20.11,0,0,1,2.35,2.83,32.18,32.18,0,0,1,4.71,11.11,110.22,110.22,0,0,1,1.9,11.94c.16,1.53.27,2.78.32,3.64a7.59,7.59,0,0,1,0,1.34,5.71,5.71,0,0,1-.23-1.32c-.13-1-.29-2.17-.49-3.62-.43-3.05-1-7.28-2-11.86a34.1,34.1,0,0,0-4.51-11A46.35,46.35,0,0,0,307.79,329.49Z" style="fill:#263238"></path><path d="M306.28,336.21a2.35,2.35,0,0,1,.78.27,21.3,21.3,0,0,1,2,1,27.25,27.25,0,0,1,5.86,4.54l.47.47-.45.16c.19-2.72.39-5.16.56-6.91a16.13,16.13,0,0,1,.37-2.82,15.35,15.35,0,0,1,0,2.84c-.07,1.76-.21,4.2-.39,6.93l0,.58-.41-.42-.46-.47a32.87,32.87,0,0,0-5.68-4.59C307.29,336.8,306.25,336.28,306.28,336.21Z" style="fill:#263238"></path><path d="M307.27,346a21.23,21.23,0,0,1,2.89,1.37c1.76.9,4.17,2.18,6.82,3.63l-.36.11,0,0c1.27-2.76,2.44-5.23,3.32-7a20,20,0,0,1,1.51-2.85,19.45,19.45,0,0,1-1.17,3c-.79,1.83-1.92,4.34-3.19,7.09l0,.06-.11.26-.25-.14c-2.65-1.44-5-2.77-6.74-3.76A17.28,17.28,0,0,1,307.27,346Z" style="fill:#263238"></path></g></svg>
