<svg xmlns="http://www.w3.org/2000/svg" viewBox="0 0 500 500"><g id="freepik--flowers-5--inject-8"><path d="M198.48,128.6c.49-3.67,3.69-4.62,5.92-5a7.61,7.61,0,0,1,5,1.45c5.4,3.31,14.22,16.22,16.69,21.58l-9.89,24.51-12-10.62c-1.94-3.74-4.12-11.66-5.07-15.69A40.67,40.67,0,0,1,198.48,128.6Z" style="fill:#e0e0e0"></path><path d="M190.1,136.8a2.56,2.56,0,0,1,2.21.72c13.77,10.57,27.55,23.71,29.28,39.69l6.5,18.44c-6.31,2.17-13.75,0-18.71-4.1s-7.89-9.66-10.3-15.22a129.61,129.61,0,0,1-9.9-37.21C189.08,138.24,189.16,137.11,190.1,136.8Z" style="fill:#e0e0e0"></path><g style="opacity:0.30000000000000004"><path d="M208.63,140.8a33.12,33.12,0,0,1,4-9.81c.76-1.2,2.1-2.45,3.4-1.89s1.28,2.4,1.05,3.8A257.12,257.12,0,0,0,214,181.14L212.62,183A63.82,63.82,0,0,1,208.63,140.8Z"></path></g><path d="M217,127.48c1-2.25,2.51-4.8,5.94-4.2a6.16,6.16,0,0,1,3.34,1.83c7,7.17,14.1,14.47,19.06,22.89,4.66,7.91,7.37,17,5.87,25.76-1.09,6.37-5.69,14.27-11.69,19.47a14.74,14.74,0,0,1-17.28,1.22,22.42,22.42,0,0,1-5.54-5.26c-3.44-4.66-4.94-10.22-5.81-15.72A82,82,0,0,1,217,127.48Z" style="fill:#e0e0e0"></path><path d="M217,127.48a4,4,0,0,1-.16.44c-.12.31-.29.74-.51,1.28s-.51,1.26-.81,2.09-.67,1.78-1,2.88a81.74,81.74,0,0,0-4.17,32.4c.16,2.41.47,4.89.88,7.43a46.14,46.14,0,0,0,1.89,7.67,27.22,27.22,0,0,0,3.78,7.34,21.27,21.27,0,0,0,6.34,5.73,14.58,14.58,0,0,0,16.72-2.24,38.39,38.39,0,0,0,10-15,29.93,29.93,0,0,0,.44-16.7,48.12,48.12,0,0,0-6.07-14.06A87.81,87.81,0,0,0,236.23,136c-2.69-3.11-5.26-5.8-7.52-8.16-1.15-1.15-2.17-2.32-3.2-3.22a5.75,5.75,0,0,0-3.44-1.33,4.14,4.14,0,0,0-2.79.89,6.54,6.54,0,0,0-1.44,1.67c-.32.51-.52.93-.67,1.2s-.22.42-.22.42a10.44,10.44,0,0,1,.8-1.67,6.61,6.61,0,0,1,1.43-1.74,4.3,4.3,0,0,1,2.9-1,5.94,5.94,0,0,1,3.59,1.33c1.08.94,2.08,2.06,3.25,3.22,2.28,2.34,4.87,5,7.59,8.12a86.63,86.63,0,0,1,8.13,10.75,48.61,48.61,0,0,1,6.18,14.17,30.37,30.37,0,0,1-.43,17,36.69,36.69,0,0,1-4.09,8.1,38.18,38.18,0,0,1-6.06,7.11,15,15,0,0,1-17.31,2.3,21.61,21.61,0,0,1-6.5-5.88,27.88,27.88,0,0,1-3.84-7.47,48.68,48.68,0,0,1-1.89-7.76c-.4-2.55-.7-5-.85-7.47a80.42,80.42,0,0,1,4.41-32.5A63.09,63.09,0,0,1,217,127.48Z" style="fill:#263238"></path><path d="M190.1,136.8a2.24,2.24,0,0,1,1.09.08,10.83,10.83,0,0,1,2.69,1.23,48.18,48.18,0,0,1,7.61,6,84.3,84.3,0,0,1,6.7,7c.8,1,1.42,1.74,1.83,2.3a3.8,3.8,0,0,1,.58.9s-.28-.26-.74-.77l-2-2.18c-1.66-1.83-4-4.29-6.78-6.86a58.93,58.93,0,0,0-7.44-6.07,12.55,12.55,0,0,0-2.56-1.34C190.49,136.85,190.11,136.85,190.1,136.8Z" style="fill:#263238"></path><path d="M233.23,197.56q10.54,25,19.82,50.42,9.21,25.28,17.15,51,4.51,14.57,8.6,29.25a1.25,1.25,0,0,0,2.41-.66q-7.29-26.13-15.87-51.89t-18.44-51q-5.55-14.25-11.51-28.33c-.62-1.48-2.78-.21-2.16,1.26Z" style="fill:#455a64"></path><path d="M278.05,365.05c1.93-27.81,3.87-55.7,2.26-83.53s-6.86-55.74-18.71-81a359.83,359.83,0,0,0,19.9,174.21Z" style="fill:#455a64"></path><path d="M308.1,248.16c-14.49,23.38-25.25,49.53-27.75,76.92-1.85,20.25.84,40.62,3.52,60.79l4.67,27.35c1.73-28.79,3.51-57.82,11.06-85.65,13.63-50.21,45.34-93.95,59.71-143.95C340.76,203.93,322.59,224.78,308.1,248.16Z" style="fill:#455a64"></path><path d="M292.83,457.93l-1.92-13.72A540.92,540.92,0,0,1,293.4,194.7l3.88,1a536.91,536.91,0,0,0-2.45,247.75l0,.17,1.93,13.8Z" style="fill:#455a64"></path><path d="M309.35,246.16a2.23,2.23,0,0,1-.2.38l-.61,1.06-2.42,4.09-1.76,2.94c-.63,1.07-1.24,2.3-1.93,3.58s-1.43,2.67-2.2,4.13c-.38.74-.81,1.48-1.19,2.27l-1.14,2.44-2.45,5.23c-.45.9-.84,1.84-1.23,2.81s-.79,2-1.2,3-.83,2-1.25,3.06-.86,2.08-1.21,3.18c-.76,2.17-1.55,4.41-2.35,6.71a189.79,189.79,0,0,0-9.62,62.25q.11,3.64.21,7.11c0,1.15.1,2.28.2,3.4s.18,2.21.27,3.28.17,2.14.25,3.18.17,2.06.32,3.06c.26,2,.52,3.9.76,5.72.12.91.24,1.8.35,2.67s.31,1.7.45,2.52c.3,1.63.58,3.16.85,4.6s.48,2.78.76,4l.79,3.34c.46,2,.82,3.53,1.07,4.62q.17.76.27,1.2a2.87,2.87,0,0,1,.07.42,2.56,2.56,0,0,1-.12-.41c-.08-.29-.19-.68-.32-1.19-.27-1.08-.67-2.62-1.17-4.6-.25-1-.53-2.11-.83-3.32s-.52-2.57-.81-4-.57-3-.89-4.61c-.15-.81-.34-1.65-.46-2.51s-.25-1.76-.37-2.68c-.26-1.82-.52-3.74-.8-5.73-.16-1-.25-2-.33-3.06s-.18-2.1-.27-3.18-.19-2.18-.29-3.29-.19-2.25-.21-3.41q-.1-3.47-.23-7.12a186.86,186.86,0,0,1,9.65-62.41l2.37-6.72c.36-1.1.79-2.15,1.23-3.19s.84-2.05,1.26-3.05l1.22-2.95c.39-1,.79-1.92,1.24-2.82.86-1.82,1.7-3.56,2.49-5.22.4-.83.78-1.65,1.16-2.44s.81-1.52,1.2-2.26l2.24-4.12c.71-1.28,1.33-2.5,2-3.57l1.8-2.92c1.07-1.73,1.91-3.09,2.5-4l.66-1A2.26,2.26,0,0,1,309.35,246.16Z" style="fill:#263238"></path><path d="M307.94,278.53a1.82,1.82,0,0,1-.1.31c-.09.23-.2.53-.34.91-.32.82-.77,2-1.35,3.45l-1,2.49c-.33.92-.7,1.92-1.09,3-.77,2.15-1.72,4.58-2.59,7.32-.45,1.37-.93,2.8-1.43,4.29s-.93,3.07-1.42,4.68c-1,3.23-1.92,6.74-2.91,10.41-1.86,7.38-3.64,15.56-5.06,24.23s-2.24,17-2.79,24.59c-.21,3.8-.45,7.41-.5,10.8,0,1.69-.11,3.32-.11,4.89s0,3.08,0,4.52c0,2.88.1,5.48.16,7.77,0,1.14.07,2.2.1,3.18s.11,1.87.15,2.68c.09,1.58.16,2.82.2,3.7,0,.4,0,.72,0,1a1.41,1.41,0,0,1,0,.33,1.23,1.23,0,0,1-.05-.33q0-.36-.09-1c-.07-.88-.17-2.12-.3-3.7-.06-.81-.13-1.7-.2-2.67s-.09-2.05-.15-3.19c-.08-2.29-.24-4.89-.23-7.78,0-1.44,0-2.95,0-4.52s.06-3.21.09-4.9c0-3.4.25-7,.45-10.82.52-7.61,1.39-15.95,2.76-24.65s3.22-16.87,5.1-24.26c1-3.68,1.93-7.18,3-10.41.51-1.62,1-3.19,1.46-4.68s1-2.92,1.46-4.29c.9-2.74,1.87-5.16,2.66-7.31.41-1.06.79-2.06,1.14-3s.72-1.73,1-2.47c.62-1.46,1.1-2.61,1.44-3.42l.39-.89C307.88,278.62,307.93,278.52,307.94,278.53Z" style="fill:#263238"></path><path d="M266,257.88a6.07,6.07,0,0,1,.12.82c.07.59.16,1.37.26,2.36.23,2.1.55,5.05.94,8.67.81,7.32,2,17.42,3.69,28.53s3.43,21.14,4.8,28.38c.68,3.58,1.24,6.49,1.63,8.57.19,1,.33,1.75.44,2.33a5.26,5.26,0,0,1,.12.82,4,4,0,0,1-.22-.8c-.14-.58-.31-1.35-.54-2.31-.45-2-1.07-4.93-1.8-8.54-1.45-7.22-3.28-17.24-4.94-28.37s-2.83-21.24-3.55-28.57c-.36-3.67-.62-6.64-.77-8.69-.07-1-.12-1.78-.16-2.37A4.74,4.74,0,0,1,266,257.88Z" style="fill:#263238"></path><path d="M328.34,131.82c-.5-3.67-3.69-4.63-5.92-5a7.62,7.62,0,0,0-5.05,1.45c-5.4,3.31-14.22,16.22-16.68,21.58l9.88,24.51,12-10.62c2-3.75,4.12-11.67,5.08-15.7A40.8,40.8,0,0,0,328.34,131.82Z" style="fill:#D6AD40"></path><path d="M336.71,140a2.55,2.55,0,0,0-2.21.72c-13.76,10.56-27.55,23.71-29.28,39.69l-6.5,18.43c6.31,2.18,13.75,0,18.71-4.1s7.89-9.65,10.3-15.22a129.55,129.55,0,0,0,9.9-37.2C337.73,141.46,337.65,140.33,336.71,140Z" style="fill:#D6AD40"></path><g style="opacity:0.30000000000000004"><path d="M318.18,144a33.26,33.26,0,0,0-3.94-9.82c-.77-1.19-2.11-2.45-3.4-1.88s-1.28,2.4-1.06,3.8a256.17,256.17,0,0,1,3.08,48.23l1.33,1.86A63.83,63.83,0,0,0,318.18,144Z"></path></g><path d="M309.86,130.7c-1-2.25-2.51-4.8-5.94-4.2a6.16,6.16,0,0,0-3.34,1.83c-7,7.17-14.1,14.47-19.06,22.89-4.66,7.9-7.37,16.95-5.87,25.76,1.09,6.37,5.69,14.27,11.69,19.46a14.71,14.71,0,0,0,17.28,1.22,22.2,22.2,0,0,0,5.54-5.25c3.44-4.66,4.94-10.22,5.82-15.72A82,82,0,0,0,309.86,130.7Z" style="fill:#D6AD40"></path><path d="M309.86,130.7a64.16,64.16,0,0,1,2.7,6.62,80.85,80.85,0,0,1,4.41,32.5c-.15,2.42-.46,4.92-.86,7.47a46.85,46.85,0,0,1-1.89,7.76,28.14,28.14,0,0,1-3.83,7.47,22,22,0,0,1-6.5,5.88,15.05,15.05,0,0,1-17.31-2.3,37.75,37.75,0,0,1-6.06-7.11,36.73,36.73,0,0,1-4.1-8.1,30.28,30.28,0,0,1-.42-17,48.1,48.1,0,0,1,6.17-14.17A85.91,85.91,0,0,1,290.31,139c2.71-3.1,5.3-5.78,7.58-8.12,1.17-1.16,2.17-2.28,3.25-3.22a6,6,0,0,1,3.6-1.33,4.22,4.22,0,0,1,2.89,1,6.13,6.13,0,0,1,1.43,1.74,9.4,9.4,0,0,1,.8,1.67s-.08-.14-.22-.42a12.54,12.54,0,0,0-.67-1.2,6.22,6.22,0,0,0-1.44-1.67,4.07,4.07,0,0,0-2.79-.89,5.69,5.69,0,0,0-3.44,1.32c-1,.91-2.05,2.07-3.2,3.23-2.26,2.36-4.83,5.05-7.52,8.16a87,87,0,0,0-8,10.74A48.07,48.07,0,0,0,276.46,164a30,30,0,0,0,.44,16.7,38.35,38.35,0,0,0,10,15A14.54,14.54,0,0,0,303.64,198a21.14,21.14,0,0,0,6.34-5.73,27.49,27.49,0,0,0,3.79-7.33,47.41,47.41,0,0,0,1.89-7.67c.4-2.54.72-5,.88-7.43a82,82,0,0,0-4.18-32.4c-.34-1.1-.71-2-1-2.88s-.58-1.53-.81-2.09l-.51-1.28C309.91,130.85,309.86,130.7,309.86,130.7Z" style="fill:#263238"></path><path d="M336.71,140s-.39,0-1,.28a12.27,12.27,0,0,0-2.55,1.34,58.06,58.06,0,0,0-7.45,6.07c-2.75,2.57-5.11,5-6.78,6.85-.76.86-1.41,1.58-1.95,2.18a4.48,4.48,0,0,1-.74.78,3.58,3.58,0,0,1,.58-.9c.41-.57,1-1.35,1.84-2.3a85.65,85.65,0,0,1,6.69-7,49.39,49.39,0,0,1,7.61-6,10.73,10.73,0,0,1,2.69-1.22A2,2,0,0,1,336.71,140Z" style="fill:#263238"></path><path d="M291.05,442.53c-1.84-5.74-5.35-11.16-10.58-14.16A50.13,50.13,0,0,0,294.85,460C294.58,455.65,292.94,448.42,291.05,442.53Z" style="fill:#455a64"></path></g></svg>
