<svg xmlns="http://www.w3.org/2000/svg" viewBox="0 0 500 500"><g id="freepik--flower-3--inject-6"><path d="M170.71,436.86c8.61-62.56.06-116.13,0-116.66l3.95-.65c.09.54,8.74,54.7.05,117.86Z" style="fill:#263238"></path><path d="M104.33,448.78C89.75,368,93.66,300.28,93.7,299.61l-4.12-1.19c0,.68-4,69.14,10.72,150.69Z" style="fill:#263238"></path><path d="M168.07,266.23s3-9.29,8.4-8.82,9.28,3,10.49,6.58,2.45,6.28.94,10.52-7.23,6.44-13.25,2.18A15.71,15.71,0,0,1,168.07,266.23Z" style="fill:#D47C7C"></path><path d="M181.14,279.5a11.9,11.9,0,0,1-6.78-2.4,16.08,16.08,0,0,1-6.79-10.83v-.1l0-.1c.13-.4,3.22-9.67,8.92-9.16,5.45.48,9.63,3.14,10.93,6.92l.31.91c1.1,3.16,2.06,5.9.62,9.94a7.19,7.19,0,0,1-4.67,4.43A8.45,8.45,0,0,1,181.14,279.5Zm-12.56-13.22a15.45,15.45,0,0,0,6.36,10c2.87,2,5.87,2.69,8.46,1.87a6.16,6.16,0,0,0,4-3.81c1.32-3.71.46-6.16-.63-9.28l-.31-.91c-1.16-3.4-5-5.79-10.07-6.24C171.83,257.48,168.92,265.29,168.58,266.28Z" style="fill:#263238"></path><path d="M170.61,270.08s1.42-2.09,3.3-2,4.2,2.58,4.2,2.58,2.25-2.6,3.61-3.09,1.68-1.81,2.93.65,3.27,5.77,1.75,10.55-6.72,21-8.87,21.16-4.38-5-5.22-11.22S170.61,270.08,170.61,270.08Z" style="fill:#D47C7C"></path><path d="M177.41,300.41c-2.64,0-4.81-5.8-5.59-11.65-.83-6.16-1.7-18.52-1.71-18.64V270l.09-.15c.07-.09,1.55-2.24,3.62-2.24h.12c1.59.06,3.39,1.61,4.16,2.35a11.86,11.86,0,0,1,3.46-2.83,3.6,3.6,0,0,0,.78-.41,1.63,1.63,0,0,1,1.31-.38c.5.14.92.63,1.46,1.69l.28.55c1.25,2.43,3,5.75,1.49,10.37-6,18.87-8.14,21.4-9.3,21.51Zm-6.29-30.18c.11,1.57.92,12.68,1.69,18.39.89,6.62,3.14,10.92,4.67,10.79.45-.08,2.38-1.83,8.44-20.81,1.35-4.23-.19-7.21-1.43-9.61l-.28-.56c-.52-1-.77-1.15-.84-1.17a1.5,1.5,0,0,0-.5.25,4.45,4.45,0,0,1-1,.51c-1,.37-2.8,2.25-3.4,3l-.37.42-.38-.41c-.61-.65-2.48-2.37-3.85-2.42A3.89,3.89,0,0,0,171.12,270.23Z" style="fill:#263238"></path><path d="M170.61,270.08s-.58-5.93-4.37-5.27-6.42,6.2-9.85,18.7-6.52,22.86-3.35,31.31,8.4,12.15,10.24,13.29,11.63,5,16.79,3.6,15.31-6.93,19.19-17,2.4-20.6-.92-32-3.48-14.37-5.86-15.54-7.31-5.39-8-1.92-.13,3.22-.74,5.08-4.3,7.09-5,11.9-2.1,12.82-2.1,12.82-.54-14-2-18.35A15.84,15.84,0,0,0,170.61,270.08Z" style="fill:#D47C7C"></path><path d="M177.49,332.51c-5.48,0-12.91-3-14.48-4-2.61-1.63-7.44-5.56-10.44-13.54-3.1-8.27-.31-18.4,2.93-30.13l.41-1.49c3.68-13.39,6.36-18.38,10.24-19.06a3.24,3.24,0,0,1,2.63.6c1.71,1.31,2.2,4.14,2.3,4.92a16.65,16.65,0,0,1,4,6.69c.93,2.82,1.49,9.45,1.77,14,.44-2.63,1-5.91,1.35-8.35.5-3.38,2.39-6.87,3.77-9.42a20.07,20.07,0,0,0,1.27-2.56,5.28,5.28,0,0,0,.32-1.79,17.53,17.53,0,0,1,.4-3.22,2,2,0,0,1,1.1-1.59c1.45-.63,3.73.8,5.74,2.06.69.43,1.35.84,1.85,1.09,2,1,2.56,3,4.19,9,.51,1.86,1.13,4.12,1.93,6.87,2.84,9.77,5.18,21.25.91,32.33C196,324.69,186,330.61,180.2,332.2A10.45,10.45,0,0,1,177.49,332.51Zm-10.67-67.25a2.77,2.77,0,0,0-.49,0c-3.38.59-6,5.57-9.46,18.35l-.41,1.48c-3.19,11.57-5.94,21.56-3,29.52,2.89,7.71,7.53,11.48,10,13,1.71,1.06,11.44,4.9,16.4,3.54,5.58-1.53,15.21-7.24,18.86-16.7,4.16-10.8,1.86-22.08-.94-31.69-.81-2.76-1.42-5-1.93-6.89-1.55-5.65-2.07-7.56-3.67-8.34-.55-.27-1.23-.7-1.94-1.15-1.62-1-3.84-2.41-4.81-2-.09,0-.39.17-.52.87a17.26,17.26,0,0,0-.38,3.06,6.27,6.27,0,0,1-.37,2.07,21,21,0,0,1-1.34,2.72c-1.34,2.49-3.18,5.89-3.66,9.1-.72,4.76-2.1,12.75-2.11,12.83l-.81,4.69-.18-4.75c0-.14-.55-14-2-18.21a15.57,15.57,0,0,0-3.9-6.39l-.15-.13,0-.2s-.33-3.19-1.94-4.41A2.14,2.14,0,0,0,166.82,265.26Z" style="fill:#263238"></path><path d="M175.3,302s.56-.78-1.54,5-6.73,14.25-7.61,16.37-1.28,5.32,1.1,6.22,5.29,2.35,9.05,2.23a16.25,16.25,0,0,0,6.24-1.38s-4.23-16-4.92-19S175.3,302,175.3,302Z" style="fill:#D47C7C"></path><path d="M175.86,332.34a19.92,19.92,0,0,1-7.65-1.82c-.39-.15-.77-.31-1.13-.44a3.06,3.06,0,0,1-1.78-1.69c-.84-2,.08-4.47.39-5.2s.94-2,1.77-3.64a132.61,132.61,0,0,0,5.83-12.7,46.13,46.13,0,0,0,1.54-4.67c0-.05,0-.08,0-.09l-.05-.22.39-.54.43.17c.2.1.33.17.27.63.33,1.29,1.65,6.62,2.26,9.22.68,2.94,4.87,18.83,4.91,19l.1.39-.36.18a16.62,16.62,0,0,1-6.44,1.43Zm-.55-28.24c-.25.76-.6,1.77-1.08,3.09A134,134,0,0,1,168.36,320c-.83,1.63-1.48,2.93-1.75,3.58a6.18,6.18,0,0,0-.39,4.41,2,2,0,0,0,1.21,1.15l1.15.45a18.27,18.27,0,0,0,7.71,1.75,16.59,16.59,0,0,0,5.65-1.16c-.66-2.53-4.18-15.92-4.81-18.6C176.69,309.67,175.85,306.27,175.31,304.1Z" style="fill:#263238"></path><path d="M74.13,250.06s11.06-11.34,14.18-14.46,12.76,10.78,14.46,17.58S98,274.45,98,274.45L86,279,75.83,262.54Z" style="fill:#fff"></path><path d="M85.83,279.6l-10.5-17L73.6,249.89l.17-.18c.11-.11,11.1-11.38,14.18-14.46a2.13,2.13,0,0,1,2.21-.49c4.15,1.15,11.57,12.22,13.09,18.3,1.73,6.9-4.58,21-4.85,21.6l-.08.18Zm-9.52-17.23,9.93,16,11.33-4.31c.75-1.71,6.25-14.61,4.71-20.76-1.44-5.77-8.6-16.53-12.39-17.57a1.12,1.12,0,0,0-1.23.22c-2.87,2.87-12.59,12.84-14,14.29Z" style="fill:#263238"></path><path d="M78.38,256s4.25-8.51,6.24-11.63,4.82-5.95,6.8-2.83,3.41,7.65,3.41,9.07,2-1.42,2-3.69-5.1-10.77-2.83-8.79,4,1.42,5.1,8.23S96.53,258,94,262.26s-5.39,9.64-8.23,7.94S79.23,259.7,78.38,256Z" style="fill:#fff"></path><path d="M86.86,271a2.61,2.61,0,0,1-1.36-.39c-3.08-1.85-6.79-11-7.61-14.5l0-.17.08-.17c.18-.34,4.29-8.56,6.27-11.67,1.28-2,3.23-4.42,5.21-4.42a2.91,2.91,0,0,1,2.44,1.59,26.7,26.7,0,0,1,3.44,8.79,6.34,6.34,0,0,0,1-3.14c0-.95-1.17-3.49-2-5.35-1.38-3-1.69-3.72-1.15-4.12s1,.12,1.17.31a12.94,12.94,0,0,0,1.35,1c1.67,1.11,3,2,3.91,7.51,1,6.22-1.77,10.75-4.26,14.75l-.9,1.47-.66,1.1c-2,3.32-4,6.76-6.24,7.33A3,3,0,0,1,86.86,271Zm-8-14.94c.93,3.8,4.54,12.15,7.1,13.69a1.6,1.6,0,0,0,1.25.2c1.84-.47,3.86-3.87,5.63-6.87l.66-1.1c.29-.49.6-1,.91-1.49,2.39-3.85,5.1-8.21,4.13-14-.85-5.1-2-5.83-3.48-6.85-.28-.18-.57-.38-.89-.62.27.64.64,1.46,1,2.18,1,2.26,2.11,4.6,2.11,5.77,0,1.88-1.35,4.57-2.3,4.57a.64.64,0,0,1-.58-.37,1.08,1.08,0,0,1-.1-.51c0-1.26-1.37-5.74-3.33-8.81a2,2,0,0,0-1.59-1.12c-1.18,0-2.77,1.45-4.37,4C83.24,247.49,79.51,254.89,78.91,256.08Z" style="fill:#263238"></path><path d="M84.9,265.09a87.17,87.17,0,0,0-6.24-11.62c-3.68-5.68-7.37-14.18-9.92-13.05s-4.54-.28-2.55,20.42,4.25,39.42,10.49,44,13.61,2.27,13.61,2.27,7.37,4.26,11.91,1.14,9.93-9.36,11.06-19.85-3.12-34.88-5.39-40.56-5.67-11.34-7.37-9.07-6.52,5.39-9.08,12.19A135.2,135.2,0,0,1,84.9,265.09Z" style="fill:#fff"></path><path d="M98.12,309.84a18.23,18.23,0,0,1-7.89-2.24c-1.29.35-8,1.85-13.84-2.4-6.41-4.66-8.64-22.83-10.7-44.31-1.76-18.4-.53-19.69,2.2-20.67.21-.08.43-.16.65-.26,2.27-1,4.74,3.3,7.59,8.28,1,1.69,2,3.43,3,4.95A88.43,88.43,0,0,1,84.94,264a133.92,133.92,0,0,0,6-13.21,27.07,27.07,0,0,1,7.22-10.28,20.8,20.8,0,0,0,1.92-2,1.56,1.56,0,0,1,1.51-.7c2.79.37,6.09,8.3,6.73,9.89,2.37,5.92,6.55,30.34,5.42,40.79-1.27,11.71-7.61,17.69-11.28,20.21A7.6,7.6,0,0,1,98.12,309.84Zm-7.77-3.32.19.11c.07,0,7.15,4.06,11.38,1.15,3.52-2.42,9.62-8.18,10.84-19.49,1.12-10.33-3-34.46-5.35-40.31-2.08-5.19-4.57-9.09-5.93-9.27-.15,0-.35,0-.58.31a20.93,20.93,0,0,1-2,2.15,26.41,26.41,0,0,0-7,9.92,135.82,135.82,0,0,1-6.55,14.24l-.49.91-.41-.95a87.12,87.12,0,0,0-6.2-11.55c-1-1.55-2-3.3-3-5-2.28-4-4.87-8.51-6.32-7.86-.24.11-.48.19-.71.28-1.92.69-3.31,1.19-1.55,19.63,2,20.46,4.23,39.19,10.29,43.6s13.1,2.22,13.17,2.19Z" style="fill:#263238"></path><path d="M84.9,265.09s1.7,12.48,2.55,16.45-1.41,9.64-1.7,15,4.54,10.49,4.54,10.49" style="fill:#fff"></path><path d="M89.93,307.41c-.21-.22-5-5.33-4.68-10.87a47.17,47.17,0,0,1,1-6.69c.61-3.07,1.19-6,.71-8.21-.85-3.94-2.55-16.35-2.56-16.48l1-.13c0,.12,1.71,12.5,2.54,16.41.53,2.44-.07,5.43-.7,8.6a47.46,47.46,0,0,0-1,6.56c-.27,5.1,4.36,10.07,4.4,10.12Z" style="fill:#263238"></path><path d="M125.31,433.19c8.61-62.56,0-116.13,0-116.66l4-.65c.09.54,8.74,54.7.05,117.86Z" style="fill:#263238"></path><path d="M94,270.87a7.49,7.49,0,0,1,6.17-1.07c3.23,1.07,10.21,6.18,10.21,6.18s1.07-4.3,3.49-5.91,6.71-1.34,8.32-.54,5.64,3.49,5.64,3.49a71.2,71.2,0,0,0,11.28-2.15,13.17,13.17,0,0,1,12.35,2.42,23.08,23.08,0,0,1,5.1,5.1s-1.61,4-2.42,7-5.63,8.6-5.63,8.6l-8.06,5.63s-32.76-5.37-36-8.86S94,270.87,94,270.87Z" style="fill:#c7c7c7"></path><path d="M140.57,300.13l-.2,0c-1.35-.22-33-5.44-36.27-9s-10.26-19.33-10.56-20l-.16-.37.32-.24a8,8,0,0,1,6.63-1.14c2.75.91,8,4.57,9.76,5.83.43-1.33,1.54-4.2,3.5-5.51,2.57-1.71,7-1.47,8.83-.57,1.46.73,4.77,2.92,5.53,3.42a69.58,69.58,0,0,0,11-2.1,13.6,13.6,0,0,1,12.82,2.5,23.25,23.25,0,0,1,5.21,5.23l.14.21-.09.24s-1.61,4-2.4,6.93-5.54,8.55-5.75,8.78l-.09.09ZM94.63,271.06c1.12,2.51,7.35,16.25,10.21,19.35,2.53,2.73,26.28,7.15,35.49,8.67l7.84-5.49c.46-.55,4.76-5.68,5.49-8.35.69-2.52,2-5.85,2.34-6.78a25.37,25.37,0,0,0-4.85-4.78,12.58,12.58,0,0,0-11.88-2.33,71.73,71.73,0,0,1-11.38,2.17l-.19,0-.15-.1s-4-2.68-5.58-3.46c-1.39-.69-5.51-1-7.83.5s-3.27,5.58-3.28,5.62l-.18.72-.6-.44c-.07-.05-7-5.07-10.06-6.11A6.87,6.87,0,0,0,94.63,271.06Z" style="fill:#263238"></path><path d="M102.05,302s-8-22.28-8.32-27.92,2.42-3.23,4.83-1.08,15,9.67,15.58,12.09,14,8.86,19.33,9.66,8.32-3.76,12.08-5.91,7.79-3.75,9.13-6.17a23,23,0,0,0,1.88-4.3,85.2,85.2,0,0,1-3.22,14c-2.42,7.51-6.18,15-6.45,17.18s-2.41,4.83-2.41,4.83a28,28,0,0,1-19.34,1.08c-11-3.22-14.23-4.84-16.64-7.79A34.9,34.9,0,0,0,102.05,302Z" style="fill:#a3a3a3"></path><path d="M133.49,317.16a30.22,30.22,0,0,1-8.49-1.23c-10.85-3.18-14.32-4.81-16.89-7.95a34.48,34.48,0,0,0-6.33-5.54l-.14-.09-.06-.16c-.33-.91-8.08-22.42-8.35-28.07-.11-2.24.24-3.47,1.08-3.87,1.23-.58,2.84.85,4.54,2.36.82.73,2.75,2,5,3.54,6.08,4.12,10.42,7.17,10.79,8.85.46,2.05,13.55,8.47,18.92,9.28,3.57.53,6-1.41,8.5-3.47a24.67,24.67,0,0,1,3.26-2.38c.89-.5,1.78-1,2.66-1.44,2.74-1.45,5.33-2.82,6.28-4.54a21.7,21.7,0,0,0,1.84-4.2l1,.21a87.26,87.26,0,0,1-3.25,14.05c-1.24,3.88-2.85,7.77-4.14,10.89a39.58,39.58,0,0,0-2.28,6.2c-.28,2.26-2.43,5-2.52,5.09l-.16.13A26.19,26.19,0,0,1,133.49,317.16Zm-31-15.46a34.43,34.43,0,0,1,6.41,5.64c2.25,2.74,5.06,4.31,16.41,7.63a27.81,27.81,0,0,0,18.86-1,11.62,11.62,0,0,0,2.25-4.49,37,37,0,0,1,2.35-6.46c1.28-3.11,2.88-7,4.11-10.82a90,90,0,0,0,2.5-9.71l-.24.44c-1.1,2-3.82,3.42-6.69,4.94-.87.46-1.76.93-2.63,1.43a23.26,23.26,0,0,0-3.13,2.29c-2.59,2.1-5.27,4.28-9.28,3.68-5.11-.77-19.11-7.22-19.74-10.06-.32-1.41-6.38-5.51-10.38-8.23-2.26-1.53-4.21-2.85-5-3.58-1.16-1-2.86-2.54-3.49-2.25-.15.07-.63.5-.51,2.92C94.48,279.33,101.76,299.72,102.47,301.7Z" style="fill:#263238"></path><path d="M116.82,278.66a58,58,0,0,1,2.42-6.71c1.61-3.76,4.56-4.84,6.71-3.76a32.73,32.73,0,0,1,4.3,2.68s2.95-1.34,4.29,1.08,1.88,8.05,1.88,8.05S120.85,283.23,116.82,278.66Z" style="fill:#a3a3a3"></path><path d="M125.92,281.61c-3.85,0-7.68-.59-9.47-2.62l-.18-.2.07-.26a58,58,0,0,1,2.44-6.78,7.26,7.26,0,0,1,3.92-4.17,4.35,4.35,0,0,1,3.47.16,32.43,32.43,0,0,1,4.15,2.57,3.64,3.64,0,0,1,4.66,1.4c1.38,2.48,1.92,8,1.94,8.25l0,.44-.44.09A58.51,58.51,0,0,1,125.92,281.61Zm-8.54-3.09c3.67,3.62,16,1.55,18.5,1.08-.16-1.37-.71-5.5-1.77-7.41s-3.55-.91-3.66-.86l-.27.12-.23-.18a33.73,33.73,0,0,0-4.22-2.63,3.35,3.35,0,0,0-2.69-.12,6.25,6.25,0,0,0-3.34,3.63A58.6,58.6,0,0,0,117.38,278.52Z" style="fill:#263238"></path><path d="M132.88,272.27a1.16,1.16,0,0,0,1-1.17c-1.46-1.18-3.58-.23-3.58-.23a32.73,32.73,0,0,0-4.3-2.68,4,4,0,0,0-4.12.4l.36.94-.65,2.29s2-1.59,3.18-1.14,5,2.5,5,2.5A20.52,20.52,0,0,1,132.88,272.27Z" style="fill:#d1d1d1"></path><path d="M129.67,273.73l-.2-.11s-3.84-2-4.94-2.47c-.6-.24-1.93.48-2.68,1.06l-1.21.94,1-3.6-.45-1.15.33-.22a4.52,4.52,0,0,1,4.62-.44,32.12,32.12,0,0,1,4.15,2.57,4.06,4.06,0,0,1,3.83.4l.21.17,0,.26a1.65,1.65,0,0,1-1.36,1.62h0a22,22,0,0,0-3.09.88Zm-5.41-3.63a1.69,1.69,0,0,1,.64.12c1,.4,4,2,4.84,2.41a22.45,22.45,0,0,1,3-.85h0a.58.58,0,0,0,.5-.46,3.54,3.54,0,0,0-2.83,0l-.27.12-.23-.18a33.73,33.73,0,0,0-4.22-2.63,3.43,3.43,0,0,0-3.28.16l.27.71-.34,1.17A4.3,4.3,0,0,1,124.26,270.1Z" style="fill:#263238"></path><path d="M122.19,273.83s-8.86,4.29-12.89,8.59-9.13,13.69-9.13,20.94,8.33,20.41,12.09,23.1,12.08,2.68,18.52,1.88,11-2.15,14-8.06,4.83-13.16,3.76-20.14-4.3-16.11-7-19.6-7.25-4.83-11-5.91S123.8,273.29,122.19,273.83Z" style="fill:#a3a3a3"></path><path d="M123.46,329.3c-4.12,0-8.78-.5-11.49-2.44-3.87-2.76-12.3-16.16-12.3-23.5,0-7.77,5.53-17.3,9.27-21.28,4-4.32,12.67-8.52,13-8.7l.06,0c1.74-.57,4.8-.29,8.62.8,3.57,1,8.45,2.42,11.27,6.09s6,12.63,7.08,19.83c1,6.32-.38,13.58-3.81,20.43-2.93,5.86-7.3,7.45-14.34,8.33A61,61,0,0,1,123.46,329.3Zm-1.08-55c-.57.28-8.91,4.42-12.71,8.47-3.63,3.87-9,13.1-9,20.6,0,7.08,8.14,20,11.88,22.69,3.57,2.55,11.73,2.6,18.17,1.79,6.7-.84,10.85-2.33,13.58-7.78,3.33-6.67,4.65-13.72,3.71-19.84-1.07-6.94-4.28-16-6.88-19.37s-7.13-4.7-10.75-5.74S123.91,273.8,122.38,274.29Z" style="fill:#263238"></path><path d="M130.78,328.34S125,321,125,308" style="fill:#a3a3a3"></path><path d="M130.39,328.65c-.24-.31-5.94-7.63-5.94-20.66h1c0,12.68,5.67,20,5.73,20Z" style="fill:#263238"></path><line x1="124.95" y1="295.57" x2="125.54" y2="302.07" style="fill:#a3a3a3"></line><rect x="124.74" y="295.55" width="1" height="6.53" transform="translate(-26.54 12.57) rotate(-5.19)" style="fill:#263238"></rect><path d="M159.09,455.92s-2-28-18.18-53.57-29.49-45.21-29.49-45.21,0,40.79,7.87,68.8,36.36,47.67,36.36,47.67Z" style="fill:#D47C7C"></path><path d="M156,474.46l-.63-.44c-.29-.19-28.74-20.08-36.57-47.94s-7.88-68.54-7.88-68.94V355.5l.92,1.36c.13.19,13.46,19.95,29.49,45.22s18.24,53.52,18.26,53.8V456ZM111.94,358.8c.1,7.94,1,42.57,7.83,67,7.07,25.21,31.32,43.85,35.54,46.94l3.28-16.86c-.12-1.51-2.51-28.71-18.1-53.27C126.88,381.18,115.23,363.71,111.94,358.8Z" style="fill:#263238"></path><path d="M131.34,420.41c-3.19-6.49-5.67-11.18-5.67-11.18" style="fill:#D47C7C"></path><path d="M130.89,420.63c-3.15-6.41-5.63-11.12-5.66-11.17l.89-.46s2.51,4.77,5.67,11.19Z" style="fill:#263238"></path><path d="M155.65,473.61a87.2,87.2,0,0,1-11.79-24.08c-2.12-6.81-6.36-16.32-10.22-24.39" style="fill:#D47C7C"></path><path d="M155.25,473.91a88.82,88.82,0,0,1-11.87-24.23c-1.76-5.68-5.19-13.86-10.19-24.32l.9-.43c5,10.5,8.47,18.73,10.25,24.45a87.62,87.62,0,0,0,11.71,23.93Z" style="fill:#263238"></path><path d="M153,451.61s.49-31.95,11.8-56.52,21.62-49.64,21.62-49.64-1.47,31.95-2.95,61.92-31,58-31,58Z" style="fill:#D47C7C"></path><path d="M152,466.57l.53-15c0-.59.67-32.43,11.84-56.71s21.52-49.37,21.62-49.62l1.09-2.66-.13,2.87c0,.32-1.49,32.29-2.95,61.93-1.47,29.83-30.82,58.05-31.12,58.33Zm33.82-118.3c-2.95,7.09-11.47,27.32-20.54,47-11.13,24.19-11.74,56-11.75,56.31h0l-.44,12.5c4.92-5,28.61-30.27,29.91-56.77C184.2,382.86,185.42,356.77,185.81,348.27Z" style="fill:#263238"></path><path d="M174.15,400s-7.86,33.91-10.81,40.79" style="fill:#D47C7C"></path><path d="M163.8,441l-.92-.39c2.9-6.77,10.71-40.37,10.79-40.71l1,.23C174.32,401.5,166.73,434.15,163.8,441Z" style="fill:#263238"></path><path d="M112.9,446.58s-6.88-30-15.73-49.64-22.61-42.26-22.61-42.26-2,35.38,4.43,57.5,22.11,41.28,22.11,41.28l5.41,8.36S114.37,466.24,112.9,446.58Z" style="fill:#D47C7C"></path><path d="M108.27,462.75a4.45,4.45,0,0,1-2-.5l-.1-.06-5.48-8.46c-.12-.14-15.83-19.45-22.17-41.41S74,355,74.06,354.65l.09-1.61.84,1.38c.14.23,13.88,22.86,22.64,42.32s15.68,49.43,15.75,49.73l0,.07c.64,8.64-.4,13.89-3.11,15.62A3.75,3.75,0,0,1,108.27,462.75Zm-1.42-1.32a3.09,3.09,0,0,0,2.91-.12c1.63-1.05,3.4-4.43,2.64-14.65-.28-1.21-7.1-30.43-15.69-49.51-7.47-16.6-18.58-35.53-21.72-40.79C74.7,363.6,74,393,79.47,412c6.28,21.76,21.86,40.91,22,41.1Z" style="fill:#263238"></path><path d="M88.85,416.75c.78,2.49,1.59,4.92,2.42,7.22" style="fill:#D47C7C"></path><path d="M90.8,424.14c-.8-2.23-1.62-4.67-2.43-7.24l1-.3c.8,2.56,1.61,5,2.41,7.21Z" style="fill:#263238"></path><path d="M75.55,360.08S80.4,388.16,87.41,412" style="fill:#D47C7C"></path><path d="M86.93,412.16c-6.94-23.62-11.83-51.71-11.88-52l1-.17c0,.28,4.93,28.32,11.85,51.87Z" style="fill:#263238"></path></g></svg>
