<svg xmlns="http://www.w3.org/2000/svg" viewBox="0 0 500 500"><g id="freepik--flowers-3--inject-9"><path d="M359.07,194.39s-4.66,5.72-6.9,19.08c-13.56,80.91,6.17,197.21,26.58,256.83h-5.49s-29.36-69.74-30.64-183.77c-.24-21.79.54-45.19,2.75-70,0,0,2.54-17.44-5.64-27C339.73,189.45,358.42,188.93,359.07,194.39Z" style="fill:#455a64"></path><path d="M373.26,186.26s5.35-33.06,16.07-39.42,12.21-3.79,15-3.89,8.85,3.75,8.85,3.75-14.17.15-19.24,8.7Z" style="fill:#F6AA98"></path><path d="M373.26,186.26s5.35-33.06,16.07-39.42,12.21-3.79,15-3.89,8.85,3.75,8.85,3.75-14.17.15-19.24,8.7Z" style="opacity:0.1"></path><path d="M353.8,115.41s8.89-.38,12,7.92,5.73,28.1,3.5,35.71-4.89,25.39-10.81,19.83S340,161,340.58,150.35,343.82,114.89,353.8,115.41Z" style="fill:#F6AA98"></path><path d="M353.8,115.41s8.89-.38,12,7.92,5.73,28.1,3.5,35.71-4.89,25.39-10.81,19.83S340,161,340.58,150.35,343.82,114.89,353.8,115.41Z" style="opacity:0.1"></path><path d="M371.25,123.09s-6.37-2.08-9.71,5.13-25.87,45.34-22.44,58.41,6.76,8.51,11.65,10.33c5.52,2,19.57-3.54,23.08-9.8s10.09-19.26,10.7-27.37S392.55,127.93,371.25,123.09Z" style="fill:#F6AA98"></path><g style="opacity:0.1"><path d="M361.21,134.37c-2.69,4.74-4.85,9.77-7.15,14.7s-4.54,9.9-5.75,15.23c-2,7.78-4.71,16.12-.91,23.75a18.74,18.74,0,0,0,4.61,6.64,18.88,18.88,0,0,1-4.94-6.48c-2.61-5-2.67-10.76-1.41-16.13a89.56,89.56,0,0,1,4.56-15.75,181.44,181.44,0,0,1,11-22Z"></path><path d="M355.57,196.41c5.61-2.52,11.28-5.84,15.07-10.76a37.5,37.5,0,0,0,3.88-7.53c3.39-8.44,6-17.27,6.75-26.37a56,56,0,0,1-1.84,13.58c-1.77,6.62-3.75,13.33-7.29,19.26a17.45,17.45,0,0,1-4.6,5.15,40.74,40.74,0,0,1-12,6.67Z"></path><path d="M377.28,145.21c-.12,10.2-1.39,20.61-5.13,30.15,2.76-9.85,4-20,5.13-30.15Z"></path><path d="M360.37,147.17c-6.77,12.76-10.09,27.73-7.79,42.09a24.94,24.94,0,0,0,.57,3.06l.68,3.05c-5.34-15.93-2.21-34.06,6.54-48.2Z"></path><path d="M375.65,131.34c-1.12,9.2-3.21,19.22-4.78,28.34.62-9.57,2.62-19,4.78-28.34Z"></path><path d="M369,165.15c-1.43,9.47-4.22,19.21-10.17,26.87,5.08-8.22,7.74-17.59,10.17-26.87Z"></path></g><path d="M333.36,111.31s-7.82,4.64-9.18,11.11-9.69,35-4.6,50.52,10.72,20.56,21.26,22.28,4.31-74.52,4.31-74.52S337.77,107.87,333.36,111.31Z" style="fill:#F6AA98"></path><g style="opacity:0.1"><path d="M326.58,126.21c-1.9,11.17-4.29,22.4-4.86,33.72a68.35,68.35,0,0,0,3.07,16.66c1.2,4.08,2.48,8.18,4.92,11.69a12.18,12.18,0,0,0,2.9,3.09,12,12,0,0,1-3.07-3c-2.66-3.41-4.05-7.58-5.36-11.63A62.81,62.81,0,0,1,321,159.94c.6-11.41,3.21-22.58,5.56-33.73Z"></path><path d="M337.93,192.91c7.13-4,6.16-19.3,6.47-26.58,0-7.12,0-14.3-.54-21.4l-.73-7.11a103,103,0,0,1,1.44,10.64c.38,5.92.56,11.95.56,17.88-.28,7.37.55,23-7.2,26.57Z"></path><path d="M339.23,132.32a127.35,127.35,0,0,1,2.66,32.75c-.31-10.8-1.53-22-2.66-32.75Z"></path><path d="M328.59,139.68c-1.73,15.75-1,32,3.7,47.15.36,1,1.27,3.6,1.64,4.66-7.17-16.1-8.25-34.56-5.34-51.81Z"></path><path d="M335.4,118.53c1.28,10,1.87,20.67,2.53,30.75a229.21,229.21,0,0,1-2.53-30.75Z"></path><path d="M337.78,155.53c1.11,10.26,1.27,20.87-1.27,30.94,1.54-10.25,1.37-20.61,1.27-30.94Z"></path></g><path d="M353.18,118.73s-10.36-1.72-15.77,5.09S325.63,143.89,325,155.26s-4.08,38.85,20.24,40.7c18.36,1.4,27.44-21.83,30.88-41.94,2.52-14.7-5.93-18.89-10-25.22S355.53,118.91,353.18,118.73Z" style="fill:#F6AA98"></path><path d="M353.18,118.73s-10.36-1.72-15.77,5.09S325.63,143.89,325,155.26s-4.08,38.85,20.24,40.7c18.36,1.4,27.44-21.83,30.88-41.94,2.52-14.7-5.93-18.89-10-25.22S355.53,118.91,353.18,118.73Z" style="fill:#fff;opacity:0.2"></path><g style="opacity:0.1"><path d="M336.31,133.25a162.72,162.72,0,0,0-4.37,15.84,69.55,69.55,0,0,0-2.35,16.17c-.08,8.05-.63,16.79,4,23.78a18.83,18.83,0,0,0,5.58,5.9,18.92,18.92,0,0,1-5.88-5.7c-3.3-4.55-4.19-10.27-4.38-15.75a83.42,83.42,0,0,1,.69-16.49,139.23,139.23,0,0,1,6.72-23.75Z"></path><path d="M345.24,196c5.61-2.53,11.28-5.84,15.07-10.76a37,37,0,0,0,3.88-7.53c3.39-8.44,6-17.27,6.75-26.37a56,56,0,0,1-1.84,13.58c-1.77,6.62-3.75,13.33-7.29,19.26a17.45,17.45,0,0,1-4.6,5.15,40.74,40.74,0,0,1-12,6.67Z"></path><path d="M367,144.76c-.11,10.2-1.39,20.61-5.13,30.15,2.77-9.85,4-20,5.13-30.15Z"></path><path d="M339.39,147.66c-5.14,15.44-4.86,32.71,1.68,47.68-7.53-14.59-7.83-32.54-1.68-47.68Z"></path><path d="M346.92,140.72c-1.13,9.2-3.21,19.22-4.78,28.34.62-9.57,2.62-19,4.78-28.34Z"></path><path d="M358.65,164.7c-1.43,9.47-4.22,19.21-10.17,26.87,5.09-8.22,7.74-17.59,10.17-26.87Z"></path></g><path d="M345.55,195.75s19.06,7.05,30.26-3.06S386,173.46,389.2,165.35A56.33,56.33,0,0,1,397,151.69s-5.94,1.42-13.63,16.7S358.6,197,345.55,195.75Z" style="fill:#F6AA98"></path><path d="M345.55,195.75s19.06,7.05,30.26-3.06S386,173.46,389.2,165.35A56.33,56.33,0,0,1,397,151.69s-5.94,1.42-13.63,16.7S358.6,197,345.55,195.75Z" style="fill:#fff;opacity:0.2"></path><path d="M354.3,201.25c-2.44,1.11-4.62,2.24-6.38,1.73s-3.67-2.32-4.93-3.27a32.28,32.28,0,0,0-5.63-3.51c-2.21-1-7.38-3.6-7.38-3.6a34.54,34.54,0,0,1,9.29-.86c4.52.32,10.14,4.56,10.14,4.56s5.63-2,10.13-1a31.26,31.26,0,0,1,8.12,3.08s-3.81-.94-5.55-.4S356.22,200.38,354.3,201.25Z" style="fill:#455a64"></path><path d="M277.05,265.47s.13,57.21,33.18,122.33c31.65,62.36,56.89,72.49,63.28,79.76a8.48,8.48,0,0,1,.74.95c4.91,7.43-17.27-61.74-39.75-104S294.56,283.56,277.05,265.47Z" style="fill:#455a64"></path><path d="M361,443.21c-34.69-46.21-56.35-97.33-73.09-151.95-.76-2.47-1.17-7.3-.41-4.84,16.64,54.31,43.62,108.71,73,153.86C361.85,442.34,362.45,445.13,361,443.21Z" style="fill:#37474f"></path><path d="M392,286.53s3,.48,4.15,14.38c1.07,13.2-6.52,111.5-37,169.39h6.22s37.62-81.19,34.25-175.38c-.22-6.34,5.11-11.84,5.11-11.84Z" style="fill:#455a64"></path><path d="M395.9,263s-15-8.43-16.56-24.13,2.35-28.49,9-36.87,9.36-8.4,9.36-8.4,8.4-2.24,15.95,15.05,14.63,31.78,9.64,41.78C413.78,269.54,395.9,263,395.9,263Z" style="fill:#F6AA98"></path><path d="M395.9,263.05s-15-8.42-16.56-24.12,2.35-28.5,9-36.88,9.36-8.4,9.36-8.4,8.4-2.24,15.95,15,14.63,31.78,9.64,41.78C413.78,269.63,395.9,263.05,395.9,263.05Z" style="opacity:0.1"></path><g style="opacity:0.1"><path d="M391.67,204.79c-1.23,5.32-2.5,10.64-3.66,16-1,5.26-2.59,10.69-2.29,16a81.9,81.9,0,0,0,4.79,15.56,14.13,14.13,0,0,0,4.76,6.38,25.71,25.71,0,0,0,7.32,3.54,25.55,25.55,0,0,1-7.54-3.23,14.71,14.71,0,0,1-5.1-6.43A71.84,71.84,0,0,1,385,236.93c-.31-5.54,1.37-10.91,2.49-16.28s2.72-10.59,4.15-15.86Z"></path><path d="M407.4,262.08c4.05-3.26,8.15-7.3,9.41-12.51A72.11,72.11,0,0,0,418,233.62c.15-3.59-.64-7.08-1.08-10.64.49,2.16.95,4.4,1.39,6.59.49,7.56.92,15.53-1.72,22.77a26.73,26.73,0,0,1-9.21,9.74Z"></path><path d="M406.19,228.7c2,8,3.09,16.32,2,24.49.07-8.09-1-16.45-2-24.49Z"></path><path d="M392.34,225.26a59.06,59.06,0,0,0,11.77,37l-1.59-1.92a48.74,48.74,0,0,1-10.18-35.1Z"></path><path d="M396.49,218.61c1.32,7.58,1.9,15.29,2.64,22.94a121.92,121.92,0,0,1-2.64-22.94Z"></path><path d="M405.68,207.26c7.17,14.87,11.29,35.64,3.19,50.86a30.05,30.05,0,0,0,2.22-6.14c3.61-15,.24-30.67-5.41-44.72Z"></path></g><path d="M365.59,246.36s-10.18-12.91-8.47-25.61,5.46-13.9,6.49-14.52,8.91-.76,14.87,9.11,8.2,17.43,7.86,22.37-6.36,10.4-6.36,10.4S373.26,251.47,365.59,246.36Z" style="fill:#F6AA98"></path><path d="M365.59,246.36s-10.18-12.91-8.47-25.61,5.46-13.9,6.49-14.52,8.91-.76,14.87,9.11,8.2,17.43,7.86,22.37-6.36,10.4-6.36,10.4S373.26,251.47,365.59,246.36Z" style="opacity:0.1"></path><path d="M366.57,211s-6,2.42-6.43,13.29,3.53,23,4.47,25.21,5.57,23.83,18.14,31.06,14,1.5,14,1.5,8.52-6.69,7.66-19.71S401.15,239,396.83,230s-6.25-14.06-13.05-16.6S368.66,209.45,366.57,211Z" style="fill:#F6AA98"></path><g style="opacity:0.1"><path d="M385.28,217.45c2.39,5.13,4.48,10.41,6.53,15.69s4.11,10.63,5.25,16.2a136.22,136.22,0,0,1,2.58,16.83A27.63,27.63,0,0,1,398,278.79a12.11,12.11,0,0,1-2.16,3.65,11.88,11.88,0,0,0,2-3.72,28.76,28.76,0,0,0,1.2-12.5,155.69,155.69,0,0,0-2.67-16.73c-1.07-5.55-3.21-10.82-5-16.16-1.75-4.63-4.09-11.39-6-15.88Z"></path><path d="M392.06,283.6a33.93,33.93,0,0,1-10.32-7.69c-2.87-3.31-4.53-7.38-6.31-11.31A113.42,113.42,0,0,1,367.9,240l1.66,6.22a156.41,156.41,0,0,0,6.56,18.14c1.68,3.88,3.37,7.93,6.05,11.21a37.58,37.58,0,0,0,9.89,8.08Z"></path><path d="M378.64,243.64c2.77,9.82,5.55,20,9,29.63a117.87,117.87,0,0,1-9-29.63Z"></path><path d="M387.83,235.54c6.52,14.69,9.5,31.39,6.85,47.34.08-1,.27-3.52.36-4.52.66-14.55-2.16-29.19-7.21-42.82Z"></path><path d="M381.77,228.85a206.47,206.47,0,0,1,7.83,28c-2.75-9.12-5.7-18.71-7.83-28Z"></path><path d="M369.82,218c1.52,16.17,4.87,32.27,11.4,47.19a67.9,67.9,0,0,0,8,14.1c-13-16-18.48-41-19.4-61.29Z"></path></g><path d="M402.5,283.78s-13.47,4-20-15.24-2.68-26.28-2.14-29.17-1-5.81.74-9.49,3.26-3.09,5.41-8,2.14-11.71,4.13-13.89,4.06-3.7,7.16-3.72,8.84,2.55,12.34,3.36,3.33,7.27,5.86,9.69,9.93,9.45,9.25,24.79-1.24,25.65-7.15,32.19S407,283.25,402.5,283.78Z" style="fill:#F6AA98"></path><path d="M402.5,283.78s-13.47,4-20-15.24-2.68-26.28-2.14-29.17-1-5.81.74-9.49,3.26-3.09,5.41-8,2.14-11.71,4.13-13.89,4.06-3.7,7.16-3.72,8.84,2.55,12.34,3.36,3.33,7.27,5.86,9.69,9.93,9.45,9.25,24.79-1.24,25.65-7.15,32.19S407,283.25,402.5,283.78Z" style="fill:#fff;opacity:0.2"></path><g style="opacity:0.1"><path d="M391.08,218.26c-1.24,5.6-2,11.29-2.9,17s-1.78,11.32-1.33,17.05c.7,8.37.71,17.51,5.15,24.89a18.58,18.58,0,0,0,5.72,6.27,18.64,18.64,0,0,1-6-6.07c-3.29-4.85-4.15-10.78-4.85-16.46s-1.18-11.51-.42-17.24a214.47,214.47,0,0,1,4.67-25.4Z"></path><path d="M402.87,284a37.34,37.34,0,0,0,9.56-8.73c2.67-3.42,3.67-7.78,4.66-11.93a109.69,109.69,0,0,0,3-25.84c0,2.35.43,7.57.18,9.82-.7,7.58-1.74,15.26-4.2,22.5-2.12,6.27-7.54,11-13.15,14.18Z"></path><path d="M407.56,242.78c.67,10.14.33,20.51-2.25,30.38,1.57-9.9,1.91-20.35,2.25-30.38Z"></path><path d="M393.43,236.35a81.53,81.53,0,0,0,4.1,43.14c.41.93,1.4,3.23,1.81,4.18-7.81-14.24-9.65-31.59-5.91-47.32Z"></path><path d="M399,228.84c0,9.37-.77,19.23-1.3,28.59a185.86,185.86,0,0,1,1.3-28.59Z"></path><path d="M410.86,216.37c4.94,19.41,5.58,45.63-5.71,63a40.73,40.73,0,0,0,3.51-7.25c6.48-17.8,5.78-37.35,2.2-55.71Z"></path></g><path d="M385.72,285.09c-2.35.68-8,1.64-16.08-5.93-9.86-9.26-10.94-24.22-12-28s-3.67-15.89-6.46-21.29-2.7-8.69-2.12-9.17,6,.76,9.58,7.11S369,239.6,371.2,249.28s3.61,23.86,9.79,29,11.91,2.93,10.86,5.82C391.67,284.58,387.22,284.65,385.72,285.09Z" style="fill:#F6AA98"></path><path d="M385.72,285.09c-2.35.68-8,1.64-16.08-5.93-9.86-9.26-10.94-24.22-12-28s-3.67-15.89-6.46-21.29-2.7-8.69-2.12-9.17,6,.76,9.58,7.11S369,239.6,371.2,249.28s3.61,23.86,9.79,29,11.91,2.93,10.86,5.82C391.67,284.58,387.22,284.65,385.72,285.09Z" style="fill:#fff;opacity:0.2"></path><g style="opacity:0.1"><path d="M352.62,228.37c3.18,11.22,7.25,22.16,9.88,33.55.94,5.82,4.92,10.37,9,14.34a45.9,45.9,0,0,0,6.63,5.61,18.8,18.8,0,0,0,8,3.22,18.75,18.75,0,0,1-8.2-2.89,49,49,0,0,1-6.85-5.48c-4.22-4-8.43-8.72-9.28-14.65-2.53-11.16-6.5-22.57-9.2-33.7Z"></path><path d="M361.75,244.6c3.65,14.38,10.53,34.89,26,40-15.91-4.08-23.4-25.45-26-40Z"></path><path d="M356.13,230.84c2.62,6.42,5.22,13.16,5.52,20.15-1.24-6.48-3.94-13.68-5.52-20.15Z"></path><path d="M369.61,257.09c2.73,7.52,5.49,15.17,10.25,21.68-5.59-5.88-8.52-13.88-10.25-21.68Z"></path></g><path d="M403.84,287c-2,.19-3.76,2.93-5.94,3.07s-5-1.13-6.83-1.69-4.34.27-7.22,0-9.72-1.09-9.72-1.09a41.42,41.42,0,0,1,10.08-4.68c5.19-1.45,13.19,1.06,13.19,1.06s5.51-4.52,11-5.22a37.09,37.09,0,0,1,10.33.2s-4.64.48-6.38,1.78S406.34,286.79,403.84,287Z" style="fill:#455a64"></path><path d="M362.13,470.3h8s25.47-42.53,30.16-57.45,31.16-75.07,36.06-83.18,4.91-11.45,4.91-11.45-25.22,3-26.47,4.57S362.13,470.3,362.13,470.3Z" style="fill:#37474f"></path><path d="M441.28,318.22s0,3.34-4.91,11.45c-1.82,3-6.61,13.19-12.15,25.57a81.64,81.64,0,0,0-4.75-10.17c-2.79-4.47-4.8-9.51-6.59-8.81s-7.14,11.39-7.48,12.05c5.35-14.89,9.08-25.11,9.41-25.52C416.07,321.23,441.28,318.22,441.28,318.22Z" style="fill:#263238"></path><path d="M362.13,470.3S409.48,324.57,414.44,321s9.09.43,15.44-2.76,7.28-4.87,9.31-3.79c7.15,3.79,15.09,55,13.73,70.27s-16.55,44.61-19.14,43.57c-1.63-.65.26-30.81-1.16-41.19s-15.09-65.33-16.85-63.46S362.13,470.3,362.13,470.3Z" style="fill:#455a64"></path><path d="M431.39,321.61c12.47,31.64,14.17,58.33,11.37,83.67-.13,1.15-1.15,2.86-1,1.71,2.79-25.19-1.87-55.55-10.79-84.22C430.54,321.46,430.87,320.29,431.39,321.61Z" style="fill:#37474f"></path></g></svg>
