<svg xmlns="http://www.w3.org/2000/svg" viewBox="0 0 500 500"><g id="freepik--flower-2--inject-19"><path d="M184.29,341.71a65.18,65.18,0,0,1-6.72-9.16l13.74.24-1.24-1.34a18.57,18.57,0,0,1,14.71,3.16l-.93-1.74a18.81,18.81,0,0,1,9.11,8.92c2,4,3.52,9.91,2.69,14.24a17.06,17.06,0,0,1-14,4.48,21.05,21.05,0,0,1-13.5-8.37l2.58-.91a35,35,0,0,1-9.29-9.53Z" style="fill:#455a64"></path><path d="M184.76,336.29a1.52,1.52,0,0,1,.47,0,12.05,12.05,0,0,1,1.33.2,21.69,21.69,0,0,1,4.73,1.48,39.11,39.11,0,0,1,6.42,3.6c2.29,1.54,4.69,3.41,7.17,5.41,4.93,4.06,9.14,8,12.26,10.76l3.68,3.29a13.87,13.87,0,0,1,1.33,1.23s-.14-.07-.39-.25-.61-.46-1.07-.83c-.91-.72-2.21-1.81-3.79-3.17-3.18-2.69-7.44-6.59-12.34-10.62-2.48-2-4.86-3.87-7.12-5.42a41.7,41.7,0,0,0-6.3-3.66,25.9,25.9,0,0,0-4.62-1.63C185.39,336.43,184.75,336.34,184.76,336.29Z" style="fill:#263238"></path><path d="M187.23,344.17a3.74,3.74,0,0,1,1-.07l2.82,0c2.38,0,5.68.14,9.32.28l1.25,0-.25.36a73.23,73.23,0,0,0-3.71-7.58c-1-1.86-1.74-3-1.68-3a3.24,3.24,0,0,1,.59.72c.34.48.83,1.2,1.39,2.11a57.87,57.87,0,0,1,3.89,7.56l.15.37h-.41l-1.25-.05c-3.63-.14-6.92-.29-9.3-.43-1.19-.07-2.15-.14-2.82-.19A4.73,4.73,0,0,1,187.23,344.17Z" style="fill:#263238"></path><path d="M197.71,355a4.79,4.79,0,0,1,1.07-.26l2.95-.56c2.49-.46,6-1.19,9.87-1.75l-.22.32c-.09-.33-.19-.69-.28-1a61.18,61.18,0,0,0-3.86-10c-.61-1.23-1.13-2.21-1.48-2.89a5.7,5.7,0,0,1-.52-1.08,4.94,4.94,0,0,1,.69,1c.42.65,1,1.61,1.63,2.83a51.21,51.21,0,0,1,4,10c.1.36.19.72.29,1.06l.07.28-.29,0c-3.9.55-7.37,1.22-9.88,1.59-1.26.2-2.28.33-3,.41A5.06,5.06,0,0,1,197.71,355Z" style="fill:#263238"></path><g style="opacity:0.2"><path d="M184.29,341.71a65.18,65.18,0,0,1-6.72-9.16l13.74.24-1.24-1.34a18.57,18.57,0,0,1,14.71,3.16l-.93-1.74a18.81,18.81,0,0,1,9.11,8.92c2,4,3.52,9.91,2.69,14.24a17.06,17.06,0,0,1-14,4.48,21.05,21.05,0,0,1-13.5-8.37l2.58-.91a35,35,0,0,1-9.29-9.53Z"></path></g><path d="M189.36,185.86c31.7,17.1,39.1,40.66,41.64,67.9s3.23,62.08-3.17,88.67c-2.07,8.62-4,29.48-4,29.48,4.49,19.21,9.44,34.18,15.48,45.43L246,474.91h-9s3.5-31.88-4.69-55c-7.46-21-13.73-48-13.73-48l9.22-57s2.95-63.66-5.3-86.81S182,191.28,182,191.28Z" style="fill:#263238"></path><path d="M144.32,166.66,186,183.24a22.44,22.44,0,0,0-11.21-24.44c-11.06-5.71-28.22-2.42-38.81-9C134,155.56,139.18,163.48,144.32,166.66Z" style="fill:#8FADEC"></path><path d="M144.32,166.66a1.41,1.41,0,0,1-.31-.17c-.19-.13-.5-.3-.86-.58a19,19,0,0,1-3-2.68,21.62,21.62,0,0,1-3.49-5.24,15.64,15.64,0,0,1-1.18-3.78,9.1,9.1,0,0,1,.25-4.43l.08-.22.2.12a28,28,0,0,0,9.13,3.34,110,110,0,0,0,11.15,1.49,87.63,87.63,0,0,1,12.34,1.82,30.06,30.06,0,0,1,6.23,2.25,20.85,20.85,0,0,1,5.45,4.11,22.77,22.77,0,0,1,5.86,20.61l-.07.28-.26-.11-29.93-12-8.59-3.5-2.28-1-.58-.25c-.13-.06-.2-.09-.19-.1s.07,0,.21.06l.6.22,2.31.88c2.05.79,5,1.93,8.65,3.37l30,11.83-.33.17A22.29,22.29,0,0,0,180,163.05a20.36,20.36,0,0,0-5.31-4,29.53,29.53,0,0,0-6.12-2.21A88.39,88.39,0,0,0,156.29,155a108.84,108.84,0,0,1-11.19-1.53,28.58,28.58,0,0,1-9.24-3.46l.27-.09a8.76,8.76,0,0,0-.27,4.26,15.24,15.24,0,0,0,1.12,3.7,21.88,21.88,0,0,0,3.38,5.24,21.47,21.47,0,0,0,2.85,2.73c.35.29.64.47.83.61Z" style="fill:#263238"></path><path d="M131.34,147.53a8.27,8.27,0,0,0-2.63,2.85,35.55,35.55,0,0,0-4.81,12.89,11.88,11.88,0,0,0-.12,4.6,4.9,4.9,0,0,0,2.7,3.55,5,5,0,0,0,4.06-.31,14.79,14.79,0,0,0,3.36-2.49l6.65-2.67-2.94-11.69c-.3-1.2-.63-4.57-2.84-6.4A2.91,2.91,0,0,0,131.34,147.53Z" style="fill:#8FADEC"></path><path d="M131.34,147.53a1.53,1.53,0,0,1,.37-.24A2.75,2.75,0,0,1,133,147a3.18,3.18,0,0,1,1.91.76,6.52,6.52,0,0,1,1.68,2.19,13.67,13.67,0,0,1,1,3.22c.22,1.18.6,2.43.93,3.78.69,2.69,1.45,5.69,2.27,8.9l.05.21-.2.08L134,168.86l.08-.05a23.16,23.16,0,0,1-2.09,1.73,7.32,7.32,0,0,1-3.15,1.38,4.41,4.41,0,0,1-3.28-.72,5.37,5.37,0,0,1-1.85-2.66,8.33,8.33,0,0,1-.33-3.07A35.81,35.81,0,0,1,126,155.36a28.64,28.64,0,0,1,3.43-6.14,7.12,7.12,0,0,1,1.37-1.36,1.73,1.73,0,0,1,.58-.33,8.25,8.25,0,0,0-1.79,1.81,31.06,31.06,0,0,0-3.25,6.16,36.53,36.53,0,0,0-2.44,10,7.84,7.84,0,0,0,.32,2.88,4.85,4.85,0,0,0,1.68,2.4,3.82,3.82,0,0,0,2.9.62,6.79,6.79,0,0,0,2.93-1.28,24.4,24.4,0,0,0,2-1.69l0,0,.05,0,6.65-2.66-.15.29c-.8-3.22-1.54-6.22-2.2-8.92-.32-1.35-.68-2.6-.89-3.8a13.7,13.7,0,0,0-.94-3.16,6.43,6.43,0,0,0-1.55-2.14,3,3,0,0,0-1.77-.78A3.26,3.26,0,0,0,131.34,147.53Z" style="fill:#263238"></path><g style="opacity:0.30000000000000004"><path d="M139.39,157a31.2,31.2,0,0,0-9.06,3.89,12.3,12.3,0,0,0-5.43,7.94c3.54-4.06,9.24-5.3,14.53-6.32l44.93,17.73c-3-8.34-9.67-14.95-17.24-19.54-5.58-3.38-11.94-5.86-18.45-5.55A39.37,39.37,0,0,0,139.39,157Z"></path></g><path d="M130.56,161.18a1,1,0,0,1,0,.44.68.68,0,0,1-.27.5.62.62,0,0,1-.37.1.39.39,0,0,1-.35-.31,2.16,2.16,0,0,1,.14-.94c.09-.32.19-.67.32-1a14.91,14.91,0,0,1,1.08-2.41,16.17,16.17,0,0,1,1.81-2.64,5.52,5.52,0,0,1,.63-.66,1.34,1.34,0,0,1,1-.35,1.64,1.64,0,0,1,1.32,1.54,8,8,0,0,1-.19,2,16.54,16.54,0,0,1-.5,2,18.34,18.34,0,0,1-1.78,4,18.55,18.55,0,0,1-2.68,3.46,17.32,17.32,0,0,1-1.57,1.39,2.18,2.18,0,0,1-1,.43,1.23,1.23,0,0,1-1.07-.44,3.39,3.39,0,0,1-.54-1.92,11.81,11.81,0,0,1,0-1.79,15.69,15.69,0,0,1,.62-3.15,28.83,28.83,0,0,1,1.71-4.28,10.22,10.22,0,0,1,.8-1.49,11.31,11.31,0,0,1-.61,1.57,34.62,34.62,0,0,0-1.55,4.3,15.42,15.42,0,0,0-.53,3.08,11.1,11.1,0,0,0,0,1.73,3,3,0,0,0,.44,1.64c.33.42.95.29,1.45-.09a16.52,16.52,0,0,0,1.49-1.34,18.69,18.69,0,0,0,2.59-3.37,18,18,0,0,0,1.74-3.87,15.65,15.65,0,0,0,.5-2,7.44,7.44,0,0,0,.2-1.88,1.18,1.18,0,0,0-.89-1.14c-.47-.06-.87.42-1.24.84a16.81,16.81,0,0,0-2.95,4.87c-.14.35-.25.69-.35,1a2.26,2.26,0,0,0-.19.82c0,.21.3.22.45.13a.65.65,0,0,0,.25-.39C130.54,161.33,130.53,161.17,130.56,161.18Z" style="fill:#263238"></path><path d="M132.14,162.36a24.23,24.23,0,0,0-6,3.1,8.54,8.54,0,0,0-3.48,5.64,5.28,5.28,0,0,0,3.11,5.49c2.13.77,4.91-.73,5-3l34.94-10c-4-4.4-10.38-6.12-16.35-5.82S137.69,160.16,132.14,162.36Z" style="fill:#8FADEC"></path><g style="opacity:0.1"><path d="M132.14,162.41a23.9,23.9,0,0,0-6,3.1,8.56,8.56,0,0,0-3.47,5.63,5.25,5.25,0,0,0,3.11,5.49c2.13.77,4.9-.73,5.05-3l34.93-10c-4-4.4-10.38-6.13-16.34-5.83S137.7,160.2,132.14,162.41Z" style="fill:#fff"></path></g><path d="M130.8,173.64a1.94,1.94,0,0,1-.07.64,3.28,3.28,0,0,1-1,1.58,4.32,4.32,0,0,1-2.7,1.12,4.2,4.2,0,0,1-3.45-1.72,5.94,5.94,0,0,1-1.13-4.55,8.52,8.52,0,0,1,2.66-4.69,17.3,17.3,0,0,1,5.09-3.11c1.89-.8,3.87-1.56,5.91-2.31a47.78,47.78,0,0,1,11.93-2.92,25.06,25.06,0,0,1,10,1,18.14,18.14,0,0,1,5.95,3.19,13.77,13.77,0,0,1,1.34,1.26c.28.32.43.48.41.5s-.62-.63-1.87-1.6a18.87,18.87,0,0,0-5.94-3,25,25,0,0,0-9.81-.9,48.61,48.61,0,0,0-11.79,2.93c-2,.74-4,1.51-5.89,2.29a17,17,0,0,0-5,3,8.06,8.06,0,0,0-2.56,4.42,5.54,5.54,0,0,0,1,4.25,3.91,3.91,0,0,0,3.14,1.65,4.18,4.18,0,0,0,2.58-1,3.42,3.42,0,0,0,1-1.46A5.77,5.77,0,0,1,130.8,173.64Z" style="fill:#263238"></path><path d="M186.48,186.12a36.12,36.12,0,0,1-15.75,12.51c-6,2.31-13.14,2.12-18.58-1.33-9.54-6.08-12.45-20.65-23.28-23.93a33.71,33.71,0,0,1,57.61,12.75" style="fill:#8FADEC"></path><path d="M186.48,186.12a1.8,1.8,0,0,1-.14-.35l-.37-1a16.07,16.07,0,0,0-.65-1.63,22,22,0,0,0-1-2.18,34.92,34.92,0,0,0-18.85-16.78,31.86,31.86,0,0,0-11.87-1.89c-1.07,0-2.14.13-3.23.22s-2.17.31-3.25.58-2.18.57-3.27.88-2.16.75-3.21,1.25a33.33,33.33,0,0,0-11.57,8.34l-.12-.42.9.34a17.3,17.3,0,0,1,6.22,4.15,42.25,42.25,0,0,1,4.54,5.65c2.69,3.9,5.06,7.82,8.11,10.89a20,20,0,0,0,5,3.76,18.4,18.4,0,0,0,5.62,1.79,22.28,22.28,0,0,0,10.51-.95,31.72,31.72,0,0,0,7.81-4.05,38.2,38.2,0,0,0,5.12-4.28,36,36,0,0,0,2.81-3.14c.3-.38.51-.68.67-.87s.23-.3.24-.29a25.57,25.57,0,0,1-3.58,4.45,37.36,37.36,0,0,1-5.1,4.37A31.73,31.73,0,0,1,170,199.1a22.61,22.61,0,0,1-10.7,1,18.74,18.74,0,0,1-5.75-1.81,20.88,20.88,0,0,1-5.13-3.83c-3.11-3.12-5.51-7.07-8.19-10.93a41,41,0,0,0-4.49-5.59,16.94,16.94,0,0,0-6-4l-.87-.33-.37-.15.25-.28a33.94,33.94,0,0,1,11.75-8.46c1.07-.5,2.18-.86,3.26-1.26s2.21-.66,3.32-.88,2.21-.4,3.31-.58,2.19-.23,3.27-.22a32,32,0,0,1,12,2,34.83,34.83,0,0,1,18.88,17.09,23.84,23.84,0,0,1,1,2.21,14.62,14.62,0,0,1,.6,1.66c.13.44.24.78.32,1A1.48,1.48,0,0,1,186.48,186.12Z" style="fill:#263238"></path><path d="M179.68,190.72c-3.45,4.17-6.31,11-4.81,16.19s4.63,9.76,7.71,14.21q.63-12.33,1.25-24.65a9.64,9.64,0,0,1,.88-4.23c1-1.72,2.85-2.67,4.67-3.44a65.1,65.1,0,0,1,11.4-3.61c3-.66,6.42-1.39,7.85-4.09a23.57,23.57,0,0,0-16.39-4.25c1.69-1.33,1.84-3.81,1.65-6a35.19,35.19,0,0,0-8.84-20.29,49.92,49.92,0,0,1-5.37,40.12" style="fill:#455a64"></path><path d="M151.64,195.09c.06-.08,1.19.67,3.19,1.47a22,22,0,0,0,3.63,1.09,24.41,24.41,0,0,0,4.6.45,24,24,0,0,0,4.6-.52,22.12,22.12,0,0,0,3.61-1.13c2-.83,3.12-1.6,3.17-1.52a3.37,3.37,0,0,1-.75.59,9.61,9.61,0,0,1-.95.59c-.39.2-.81.47-1.32.68a19.79,19.79,0,0,1-3.65,1.26,22.07,22.07,0,0,1-4.7.57,22.91,22.91,0,0,1-4.71-.5,19.44,19.44,0,0,1-3.67-1.22,13.75,13.75,0,0,1-1.33-.66,8.4,8.4,0,0,1-1-.57A3.5,3.5,0,0,1,151.64,195.09Z" style="fill:#fff"></path><path d="M148.31,190.39c.14-.06.54.71,1.17,1.54s1.24,1.42,1.15,1.54-.89-.33-1.57-1.23S148.18,190.43,148.31,190.39Z" style="fill:#fff"></path><path d="M128.37,174.68s-.15.37-.69.64a2.58,2.58,0,0,1-3.68-1.83c-.11-.59,0-1,.1-.94s.07.36.26.84a2.5,2.5,0,0,0,3.18,1.59C128,174.83,128.31,174.62,128.37,174.68Z" style="fill:#fff"></path><path d="M172.43,358.91a2.65,2.65,0,0,1-.28-2.7,22.35,22.35,0,0,1,10,9.46,2.67,2.67,0,0,1,1.07-2.18,15.76,15.76,0,0,1,3.25,11.82c.19-1,1.82-1.1,2.47-.28a3.69,3.69,0,0,1,.37,3,21.67,21.67,0,0,1-5.58,10.88l-.6.5c-5.94-12.86-15.58-23.59-25.07-34.1A25.3,25.3,0,0,1,172.43,358.91Z" style="fill:#455a64"></path><path d="M178.17,440.6a69.74,69.74,0,0,1-13,4.37q3.17-8.81,6.32-17.61l-2,1a27.18,27.18,0,0,1,9.94-17.51l-2.32.39a21.92,21.92,0,0,1,13.81-7.57c5.33-.69,12.41.11,16.8,3.2a26.65,26.65,0,0,1-16.4,33.72c0-1.25.09-2.5.14-3.75a40.19,40.19,0,0,1-14.56,7.51Z" style="fill:#455a64"></path><path d="M172.44,437.45a1.51,1.51,0,0,1,.18-.47c.13-.3.33-.74.61-1.3a31.62,31.62,0,0,1,2.88-4.47,43.77,43.77,0,0,1,5.37-5.77,85.66,85.66,0,0,1,7.54-6c5.58-3.95,10.72-7.37,14.42-9.88l4.41-2.94,1.21-.77a2.06,2.06,0,0,1,.44-.25s-.12.13-.38.33l-1.16.86-4.31,3.07-14.33,10a94.54,94.54,0,0,0-7.52,5.94,46.78,46.78,0,0,0-5.4,5.63,39.2,39.2,0,0,0-3,4.34l-.7,1.26A1.74,1.74,0,0,1,172.44,437.45Z" style="fill:#263238"></path><path d="M182.17,438a6.6,6.6,0,0,1,.38-1.28c.32-.9.72-2.05,1.2-3.42,1.05-2.88,2.52-6.84,4.18-11.21l1-2.53.25.35a72.94,72.94,0,0,0-10,1.27c-1.24.24-2.24.46-2.92.61a4.81,4.81,0,0,1-1.07.2,4.2,4.2,0,0,1,1-.37c.68-.21,1.66-.48,2.9-.77a60.53,60.53,0,0,1,10-1.46l.4,0-.14.38-1,2.53c-1.65,4.36-3.18,8.31-4.31,11.15-.55,1.34-1,2.47-1.36,3.36A7.61,7.61,0,0,1,182.17,438Z" style="fill:#263238"></path><path d="M198.71,429.53a7.78,7.78,0,0,1,.21-1.51l.69-4.09c.6-3.45,1.34-8.23,2.44-13.47v0l.23.32a57.54,57.54,0,0,0-13.58.16c-1.73.21-3.12.44-4.08.6a8.49,8.49,0,0,1-1.51.22,7.38,7.38,0,0,1,1.47-.41c.95-.23,2.34-.51,4.07-.78a53,53,0,0,1,13.69-.31l.28,0-.06.28v0c-1.1,5.23-1.89,10-2.58,13.44-.34,1.72-.64,3.1-.87,4.06A8.68,8.68,0,0,1,198.71,429.53Z" style="fill:#263238"></path><path d="M102.56,383.8a61.15,61.15,0,0,1-11.11-4.16l13.84-8.37-1.88-.45a23.47,23.47,0,0,1,16.21-6.32l-1.77-1A18.93,18.93,0,0,1,131.24,366c3.95,2.44,8.27,6.84,9.53,11.31a23,23,0,0,1-29.38,13.67c.71-.81,1.42-1.63,2.14-2.44a34.58,34.58,0,0,1-13.86-2.9C100.63,385,101.59,384.39,102.56,383.8Z" style="fill:#455a64"></path><path d="M100.42,378.56a9,9,0,0,1,1.48-.77,27.48,27.48,0,0,1,4.29-1.43,39.35,39.35,0,0,1,6.65-1,73.28,73.28,0,0,1,8.22.06c5.81.38,11,.89,14.84,1.22l4.48.44a9.77,9.77,0,0,1,1.65.24,11,11,0,0,1-1.66,0l-4.5-.27L121,376a80.64,80.64,0,0,0-8.16-.1,41.9,41.9,0,0,0-6.59.84A34.64,34.64,0,0,0,102,378,10.68,10.68,0,0,1,100.42,378.56Z" style="fill:#263238"></path><path d="M106.68,384.2a4.77,4.77,0,0,1,.94-.66l2.67-1.65c2.26-1.36,5.41-3.23,8.9-5.25.69-.4,1.37-.8,2-1.17l0,.43a63.94,63.94,0,0,0-7.39-4.61c-1.93-1-3.14-1.59-3.11-1.66a3.71,3.71,0,0,1,.89.3c.57.22,1.38.58,2.37,1.06a51.16,51.16,0,0,1,7.54,4.49l.32.23-.34.2-2,1.18c-3.49,2-6.67,3.83-9,5.12l-2.75,1.5A4.78,4.78,0,0,1,106.68,384.2Z" style="fill:#263238"></path><path d="M122.36,387.57a6.5,6.5,0,0,1,1-.91c.71-.63,1.61-1.43,2.69-2.37,2.27-2,5.37-4.81,9-7.73h0l0,.38a50.72,50.72,0,0,0-9.18-7.3c-1.27-.8-2.33-1.41-3.06-1.83a5.91,5.91,0,0,1-1.12-.69,6.85,6.85,0,0,1,1.21.51c.76.37,1.85.93,3.16,1.7a45.39,45.39,0,0,1,9.36,7.25l.21.2-.23.18,0,0c-3.58,2.9-6.71,5.67-9.06,7.6-1.16,1-2.12,1.73-2.79,2.24A6.94,6.94,0,0,1,122.36,387.57Z" style="fill:#263238"></path><path d="M141.37,377.27l.33,0,1,.17c.85.16,2.1.37,3.7.7,3.21.64,7.85,1.65,13.51,3.16a170.12,170.12,0,0,1,19.52,6.47,127.8,127.8,0,0,1,22.36,11.58,99.51,99.51,0,0,1,19.09,16.41,91.62,91.62,0,0,1,6.83,8.64c.95,1.43,1.87,2.82,2.7,4.19s1.62,2.69,2.25,4a69.17,69.17,0,0,1,5.24,12.83c.25.78.43,1.49.57,2.1l.37,1.55c.09.4.17.72.22,1a1.42,1.42,0,0,1,.06.33,1.41,1.41,0,0,1-.11-.32l-.27-.94c-.11-.43-.25-.94-.42-1.54s-.35-1.31-.62-2.08a72.79,72.79,0,0,0-5.36-12.72c-.64-1.31-1.49-2.6-2.27-4s-1.76-2.74-2.72-4.16a93.81,93.81,0,0,0-6.82-8.56,100.27,100.27,0,0,0-19-16.29,128.7,128.7,0,0,0-22.25-11.58,176.69,176.69,0,0,0-19.44-6.55c-5.64-1.56-10.25-2.62-13.45-3.32l-3.68-.8-1-.21Z" style="fill:#263238"></path><path d="M240.19,441.42c-.07-.75-12.29-18.42-19.84-25.85,0,0,18.78,24.44,18.11,37.65Z" style="fill:#263238"></path><path d="M171.68,388.19a26.56,26.56,0,0,0-26.56-.46l2.62.52a12.51,12.51,0,0,0-8.27,7.66,22.22,22.22,0,0,0-1,11.53l2-1.68c-1.12,4.8-1.72,7.44-.72,11.37,1,.56,7.3-2.67,12.95-2.61-.27.17-.13.63.15.75a1.33,1.33,0,0,0,.92,0c4.86-1.47,9.9-3,13.62-6.49C172.85,403.76,174.52,394.94,171.68,388.19Z" style="fill:#455a64"></path><path d="M145.12,408a1.43,1.43,0,0,1,.13-.37,10.79,10.79,0,0,1,.47-1,23.35,23.35,0,0,1,2.2-3.45,35,35,0,0,1,10.17-8.76,120.06,120.06,0,0,1,12.1-5.86c1.58-.67,2.86-1.19,3.76-1.55a8.17,8.17,0,0,1,1.41-.49,9.21,9.21,0,0,1-1.33.68l-3.69,1.7c-3.11,1.45-7.46,3.38-12,6a37,37,0,0,0-10.14,8.54A45.65,45.65,0,0,0,145.12,408Z" style="fill:#263238"></path><path d="M152.67,407.3a2.8,2.8,0,0,1,0-.91,23.59,23.59,0,0,1,.4-2.45,30.28,30.28,0,0,1,2.75-7.68l.34-.65.3.38c-2.92.73-5.54,1.35-7.44,1.78a20,20,0,0,1-3.07.59,18.73,18.73,0,0,1,3-.94c1.87-.51,4.47-1.2,7.39-1.94l.57-.14-.28.52-.34.64a36,36,0,0,0-2.85,7.53C152.93,406,152.75,407.31,152.67,407.3Z" style="fill:#263238"></path><path d="M162.56,402.93a24.69,24.69,0,0,1,.47-3.49c.35-2.15.87-5.11,1.47-8.38l.23.3h-.07c-3.31-.39-6.31-.78-8.48-1.08a21.87,21.87,0,0,1-3.5-.6,25.64,25.64,0,0,1,3.53.23c2.18.21,5.19.54,8.51.93h.07l.28,0,0,.27c-.61,3.27-1.19,6.22-1.63,8.35A22.8,22.8,0,0,1,162.56,402.93Z" style="fill:#263238"></path><path d="M205.24,398.62a23.47,23.47,0,0,1-9.6-21.41l1.34,2a11.06,11.06,0,0,1,3.33-9.38,19.67,19.67,0,0,1,9-4.78l-.66,2.24c3.51-2.58,5.44-4,9-4.53.79.59.37,6.85,2.38,11.42,0-.27.46-.32.66-.14a1.16,1.16,0,0,1,.28.77c.49,4.45,1,9.09-.53,13.31C218.27,394.17,211.7,398.59,205.24,398.62Z" style="fill:#455a64"></path><path d="M212.1,370.17a44,44,0,0,0-2.61,4.06,33.11,33.11,0,0,0-3.4,11c-.59,4.52-.73,8.66-.86,11.64-.06,1.42-.11,2.6-.14,3.55a6.13,6.13,0,0,1-.11,1.29,5.87,5.87,0,0,1-.1-1.3c0-.83,0-2.05,0-3.55a99.93,99.93,0,0,1,.71-11.7,31.2,31.2,0,0,1,3.6-11.15,19.24,19.24,0,0,1,2-2.93A5.07,5.07,0,0,1,212.1,370.17Z" style="fill:#263238"></path><path d="M214.14,376.55c0,.07-.93.67-2.37,1.78a31.85,31.85,0,0,0-5.11,4.94l-.4.49-.37.46-.09-.58c-.41-2.62-.76-5-1-6.67a14.4,14.4,0,0,1-.26-2.76,15.67,15.67,0,0,1,.61,2.7c.32,1.69.72,4,1.14,6.65l-.46-.12.41-.5a26.4,26.4,0,0,1,5.29-4.9A10.31,10.31,0,0,1,214.14,376.55Z" style="fill:#263238"></path><path d="M214,386.1a18.73,18.73,0,0,1-2.48,1.88c-1.57,1.1-3.76,2.6-6.21,4.23l-.23.15-.14-.24,0-.05c-1.47-2.57-2.77-4.9-3.7-6.6a19,19,0,0,1-1.39-2.8,19.61,19.61,0,0,1,1.72,2.63c1,1.65,2.36,3.95,3.82,6.51l0,.05-.37-.08c2.44-1.63,4.66-3.08,6.29-4.11A19,19,0,0,1,214,386.1Z" style="fill:#263238"></path><path d="M311.27,222.14a59.73,59.73,0,0,0,5.37-10.31l-15.57,3,1.08-1.56a23.07,23.07,0,0,0-16,6c.21-.63.43-1.26.64-1.88a18.54,18.54,0,0,0-8.16,10.55c-1.29,4.37-1.56,10.41.46,14.5a22.58,22.58,0,0,0,30.38-9.29l-3.16-.38a34,34,0,0,0,8.21-11.19Z" style="fill:#455a64"></path><path d="M308.53,225.14a5.13,5.13,0,0,1-1.08.33l-3,.71c-2.53.58-6,1.34-9.9,2.15l-2.25.46-.39.09.09-.39a51,51,0,0,1,2.55-8.22c.41-1,.77-1.79,1-2.32a3,3,0,0,1,.46-.8c.07,0-.45,1.22-1.18,3.24a61.4,61.4,0,0,0-2.37,8.21l-.31-.31,2.25-.47c3.87-.81,7.39-1.52,9.94-2l3-.55A4.22,4.22,0,0,1,308.53,225.14Z" style="fill:#263238"></path><path d="M299.29,237.87A5.16,5.16,0,0,1,298,238c-.83.07-2,.14-3.52.2-3,.13-7.07.17-11.58.4h-.31v-.28a45.05,45.05,0,0,1,2.08-11.42c.46-1.42.88-2.54,1.2-3.31a5.17,5.17,0,0,1,.56-1.17,7.5,7.5,0,0,1-.37,1.24c-.26.79-.63,1.92-1,3.34a49.85,49.85,0,0,0-1.92,11.34l-.27-.27h0c4.54-.23,8.64-.21,11.61-.25l3.51,0A6.51,6.51,0,0,1,299.29,237.87Z" style="fill:#263238"></path><g style="opacity:0.2"><path d="M311.27,222.14a59.73,59.73,0,0,0,5.37-10.31l-15.57,3,1.08-1.56a23.07,23.07,0,0,0-16,6c.21-.63.43-1.26.64-1.88a18.54,18.54,0,0,0-8.16,10.55c-1.29,4.37-1.56,10.41.46,14.5a22.58,22.58,0,0,0,30.38-9.29l-3.16-.38a34,34,0,0,0,8.21-11.19Z"></path></g><path d="M260.71,225.79a59.72,59.72,0,0,0-5.29-10.35q-3.31,7.2-6.61,14.41l-.64-1.78a23.06,23.06,0,0,0-4.35,16.5L242.65,243a18.56,18.56,0,0,0,3.88,12.76c2.82,3.58,7.59,7.3,12.09,8a22.57,22.57,0,0,0,10-30.14c-.71.78-1.42,1.57-2.14,2.35a33.69,33.69,0,0,0-4.37-13.17Z" style="fill:#455a64"></path><path d="M255.37,224.3s-.16.66-.45,1.83a30.16,30.16,0,0,0-.77,5.07,42.37,42.37,0,0,0,.18,7.6c.29,2.85.83,6,1.46,9.22,1.24,6.49,2.37,12.36,3.21,16.71.37,2.08.68,3.8.91,5.08.09.55.16,1,.22,1.38a2.26,2.26,0,0,1,.05.49,1.55,1.55,0,0,1-.15-.47c-.09-.37-.19-.82-.32-1.36-.27-1.27-.63-3-1.08-5.05-.88-4.26-2.08-10.16-3.35-16.68-.64-3.26-1.16-6.4-1.43-9.28a41.3,41.3,0,0,1-.07-7.67,26.52,26.52,0,0,1,.94-5.09c.16-.59.35-1,.45-1.33S255.35,224.29,255.37,224.3Z" style="fill:#263238"></path><path d="M261.56,229.76a4.22,4.22,0,0,1-.35,1.07c-.32.78-.7,1.73-1.16,2.85-1,2.4-2.4,5.69-4,9.31-.31.72-.62,1.43-.92,2.1l-.16.37-.27-.29a51.6,51.6,0,0,1-5.21-6.84c-.58-.92-1-1.67-1.3-2.2a4,4,0,0,1-.39-.83c.07,0,.74,1.07,2,2.84a63.66,63.66,0,0,0,5.31,6.68l-.42.08.91-2.11c1.59-3.63,3-6.9,4.13-9.26.51-1.09.95-2,1.3-2.78A4.92,4.92,0,0,1,261.56,229.76Z" style="fill:#263238"></path><path d="M266.59,244.66a5.39,5.39,0,0,1-.61,1.14c-.42.72-1.06,1.74-1.87,3-1.61,2.5-3.95,5.87-6.39,9.68v0l-.15.24-.23-.18a44.47,44.47,0,0,1-8.1-8.31c-.9-1.19-1.57-2.19-2-2.89a5.77,5.77,0,0,1-.63-1.13,7,7,0,0,1,.8,1c.49.67,1.2,1.63,2.13,2.79a50.31,50.31,0,0,0,8.13,8.12l-.38.07,0,0c2.44-3.83,4.83-7.16,6.51-9.6.81-1.15,1.48-2.12,2-2.89A6.71,6.71,0,0,1,266.59,244.66Z" style="fill:#263238"></path><path d="M305.17,217.49s-.09.09-.29.24l-.87.65c-.77.58-1.94,1.37-3.34,2.53a103.66,103.66,0,0,0-11.34,10.43A166.91,166.91,0,0,0,274.89,249a271.39,271.39,0,0,0-15,23.65c-9.82,17.29-17.37,33.66-22.82,45.49l-6.38,14.06L229,336.05l-.47,1a1.71,1.71,0,0,1-.17.33,1.5,1.5,0,0,1,.13-.35l.41-1c.4-.91.95-2.2,1.66-3.85,1.46-3.35,3.56-8.18,6.23-14.13,5.37-11.87,12.87-28.28,22.7-45.6a268,268,0,0,1,15.05-23.67,163.09,163.09,0,0,1,14.56-17.68,99,99,0,0,1,11.48-10.33c1.43-1.14,2.62-1.91,3.41-2.46.38-.25.68-.45.9-.61A2.61,2.61,0,0,1,305.17,217.49Z" style="fill:#263238"></path><g style="opacity:0.2"><path d="M260.71,225.79a59.72,59.72,0,0,0-5.29-10.35q-3.31,7.2-6.61,14.41l-.64-1.78a23.06,23.06,0,0,0-4.35,16.5L242.65,243a18.56,18.56,0,0,0,3.88,12.76c2.82,3.58,7.59,7.3,12.09,8a22.57,22.57,0,0,0,10-30.14c-.71.78-1.42,1.57-2.14,2.35a33.69,33.69,0,0,0-4.37-13.17Z"></path></g><path d="M296.41,286a59.47,59.47,0,0,0,9.77-6.31l-15-5.12,1.72-.82A23.08,23.08,0,0,0,276,271.05l1.49-1.32a18.55,18.55,0,0,0-12.32,5.14c-3.27,3.16-6.49,8.92-6.76,13.46,3.17,4.94,8.34,7.93,14.07,9.21a22.87,22.87,0,0,0,16.93-2.89l-2.56-1.9a33.72,33.72,0,0,0,12.67-5.67Z" style="fill:#455a64"></path><g style="opacity:0.2"><path d="M296.41,286a59.47,59.47,0,0,0,9.77-6.31l-15-5.12,1.72-.82A23.08,23.08,0,0,0,276,271.05l1.49-1.32a18.55,18.55,0,0,0-12.32,5.14c-3.27,3.16-6.49,8.92-6.76,13.46,3.17,4.94,8.34,7.93,14.07,9.21a22.87,22.87,0,0,0,16.93-2.89l-2.56-1.9a33.72,33.72,0,0,0,12.67-5.67Z"></path></g><path d="M297.36,280.5a16.69,16.69,0,0,1-1.92-.27,30.85,30.85,0,0,0-5.26-.24,43.18,43.18,0,0,0-7.75,1c-2.88.6-6,1.5-9.27,2.49s-6.33,2.07-9.12,3l-7.43,2.58c-2.12.72-3.84,1.28-5,1.64-.6.18-1.07.32-1.39.4a2.6,2.6,0,0,1-.49.1,13.82,13.82,0,0,1,1.82-.69l5-1.8,7.39-2.68c2.79-1,5.85-2.11,9.13-3.09s6.41-1.88,9.32-2.46a41.51,41.51,0,0,1,7.84-.92,27.39,27.39,0,0,1,5.3.41c.62.1,1.09.25,1.41.32A2,2,0,0,1,297.36,280.5Z" style="fill:#263238"></path><path d="M292.55,287.22a5.32,5.32,0,0,1-1.11-.25l-2.95-.86c-2.48-.75-5.9-1.82-9.66-3l-2.18-.7-.39-.13.27-.29a50.81,50.81,0,0,1,6.28-5.88c.86-.67,1.56-1.17,2.05-1.5a3.64,3.64,0,0,1,.8-.48c0,.06-1,.85-2.63,2.24a63.79,63.79,0,0,0-6.12,6l-.12-.41,2.19.69c3.77,1.22,7.17,2.34,9.63,3.18l2.9,1A4.38,4.38,0,0,1,292.55,287.22Z" style="fill:#263238"></path><path d="M278.22,293.72a6.1,6.1,0,0,1-1.19-.49l-3.16-1.49c-2.66-1.28-6.32-3.08-10.36-5.1l-.26-.13.15-.24.11-.16a49.11,49.11,0,0,1,7.43-9.05c1.09-1,2-1.82,2.67-2.33a5.94,5.94,0,0,1,1.07-.76,6.89,6.89,0,0,1-.94.91c-.61.56-1.5,1.38-2.55,2.44a55.73,55.73,0,0,0-7.24,9.07l-.11.16-.1-.37c4,2,7.68,3.87,10.3,5.24l3.08,1.63A5.73,5.73,0,0,1,278.22,293.72Z" style="fill:#263238"></path><path d="M266.89,327.21a64.66,64.66,0,0,0,8.08-8l-13.6-1.94,1.44-1.13a18.59,18.59,0,0,0-15,.78l1.2-1.56a18.75,18.75,0,0,0-10.41,7.37c-2.63,3.67-4.81,9.78-4.68,14.19,3.18,4.11,7.78,6,12.92,6.08a21,21,0,0,0,14.65-6.12l-2.4-1.31a34.86,34.86,0,0,0,10.68-7.94Z" style="fill:#455a64"></path><g style="opacity:0.2"><path d="M266.89,327.21a64.66,64.66,0,0,0,8.08-8l-13.6-1.94,1.44-1.13a18.59,18.59,0,0,0-15,.78l1.2-1.56a18.75,18.75,0,0,0-10.41,7.37c-2.63,3.67-4.81,9.78-4.68,14.19,3.18,4.11,7.78,6,12.92,6.08a21,21,0,0,0,14.65-6.12l-2.4-1.31a34.86,34.86,0,0,0,10.68-7.94Z"></path></g><path d="M267.29,321.79s-.65,0-1.81.13a25.09,25.09,0,0,0-4.82.87,42,42,0,0,0-6.8,2.61c-2.48,1.18-5.13,2.65-7.89,4.23-5.48,3.2-10.3,6.38-13.87,8.54-1.78,1.09-3.23,1.95-4.25,2.53-.5.29-.9.5-1.18.64s-.42.21-.43.19a14.79,14.79,0,0,1,1.51-1l4.16-2.66c3.52-2.24,8.29-5.46,13.81-8.68,2.76-1.58,5.42-3.05,7.94-4.21a39.23,39.23,0,0,1,6.9-2.53,21.91,21.91,0,0,1,4.91-.72,11.43,11.43,0,0,1,1.35,0A1.47,1.47,0,0,1,267.29,321.79Z" style="fill:#263238"></path><path d="M263.59,329.17a3.6,3.6,0,0,1-1,0c-.66,0-1.62-.14-2.81-.26-2.37-.24-5.64-.61-9.25-1.05l-1.24-.15-.41-.05.21-.34a58.44,58.44,0,0,1,5-6.85c.71-.81,1.3-1.44,1.72-1.86a3.36,3.36,0,0,1,.69-.62c.05,0-.81,1-2.14,2.71a75.85,75.85,0,0,0-4.86,6.89l-.19-.39,1.25.15c3.61.43,6.88.86,9.24,1.2,1.18.16,2.13.31,2.79.42A4.23,4.23,0,0,1,263.59,329.17Z" style="fill:#263238"></path><path d="M251.52,338.24a4.51,4.51,0,0,1-1-.23c-.66-.18-1.59-.48-2.74-.9-2.3-.81-5.39-2.19-9-3.3l-.28-.09.12-.27c.15-.32.3-.67.46-1a53.47,53.47,0,0,1,5-9.08c.77-1.09,1.45-1.93,1.93-2.49a4.59,4.59,0,0,1,.81-.83c.07.06-1,1.32-2.43,3.52a63.87,63.87,0,0,0-4.84,9.1l-.46,1-.16-.35c3.63,1.14,6.7,2.58,9,3.47l2.67,1.05A3.48,3.48,0,0,1,251.52,338.24Z" style="fill:#263238"></path><path d="M280.84,425.37a65.36,65.36,0,0,0,8.08-8l-13.6-1.94,1.44-1.13a18.59,18.59,0,0,0-15,.78l1.2-1.56a18.78,18.78,0,0,0-10.41,7.36c-2.63,3.68-5.05,9.22-4.92,13.63a17.06,17.06,0,0,0,13.16,6.65,21,21,0,0,0,14.65-6.12l-2.4-1.31a34.86,34.86,0,0,0,10.68-7.94Z" style="fill:#455a64"></path><g style="opacity:0.2"><path d="M280.84,425.37a65.36,65.36,0,0,0,8.08-8l-13.6-1.94,1.44-1.13a18.59,18.59,0,0,0-15,.78l1.2-1.56a18.78,18.78,0,0,0-10.41,7.36c-2.63,3.68-5.05,9.22-4.92,13.63a17.06,17.06,0,0,0,13.16,6.65,21,21,0,0,0,14.65-6.12l-2.4-1.31a34.86,34.86,0,0,0,10.68-7.94Z"></path></g><path d="M281.24,420s-.65,0-1.81.13a25.09,25.09,0,0,0-4.82.87,42.37,42.37,0,0,0-6.8,2.61c-2.48,1.18-5.12,2.65-7.88,4.23-5.49,3.2-10.31,6.38-13.88,8.54-1.78,1.09-3.23,1.95-4.24,2.53-.51.28-.91.5-1.19.64a1.78,1.78,0,0,1-.43.19,13,13,0,0,1,1.51-1l4.16-2.67c3.52-2.23,8.29-5.45,13.81-8.67,2.76-1.58,5.43-3,7.94-4.21a39.33,39.33,0,0,1,6.9-2.54,22.51,22.51,0,0,1,4.91-.72,13.44,13.44,0,0,1,1.35,0A1.47,1.47,0,0,1,281.24,420Z" style="fill:#263238"></path><path d="M277.55,427.33a3.71,3.71,0,0,1-1.05,0c-.66-.05-1.62-.14-2.81-.26-2.37-.24-5.64-.61-9.25-1.05l-1.24-.15-.41-.05.21-.35a58.21,58.21,0,0,1,5-6.84c.71-.81,1.3-1.44,1.72-1.86s.66-.64.69-.62-.81,1-2.13,2.71a73.75,73.75,0,0,0-4.87,6.89l-.19-.4,1.25.15c3.61.44,6.88.87,9.24,1.2,1.18.17,2.13.32,2.79.43A4.62,4.62,0,0,1,277.55,427.33Z" style="fill:#263238"></path><path d="M266,436.44a4.55,4.55,0,0,1-1.07-.24c-.68-.18-1.66-.48-2.88-.86-2.42-.77-5.74-2-9.5-3.14l-.28-.09.12-.26.45-1a50.72,50.72,0,0,1,5.56-9.23c.84-1.1,1.55-2,2.06-2.54a4.93,4.93,0,0,1,.84-.86,5.34,5.34,0,0,1-.68,1c-.46.62-1.13,1.5-1.92,2.63a59.36,59.36,0,0,0-5.39,9.23c-.15.34-.31.67-.45,1l-.16-.36c3.78,1.18,7.08,2.44,9.47,3.3l2.82,1A4.87,4.87,0,0,1,266,436.44Z" style="fill:#263238"></path></g></svg>
